<?xml version="1.0" encoding="UTF-8"?>
<svg width="120px" height="118px" viewBox="0 0 120 118" version="1.1" xmlns="http://www.w3.org/2000/svg" xmlns:xlink="http://www.w3.org/1999/xlink">
    <!-- Generator: Sketch 41 (35326) - http://www.bohemiancoding.com/sketch -->
    <title>Artboard</title>
    <desc>Created with Sketch.</desc>
    <defs></defs>
    <g id="Page-1" stroke="none" stroke-width="1" fill="none" fill-rule="evenodd">
        <g id="Artboard">
            <g id="1479231263_game_sport_cycling_bicycle_exercise_bikers_cyclists">
                <g id="g5">
                    <g id="g4594">
                        <ellipse id="ellipse15" fill="#AB0738" transform="translate(62.009415, 64.485520) rotate(-56.957142) translate(-62.009415, -64.485520) " cx="62.009415" cy="64.48552" rx="29.5227524" ry="29.4915114"></ellipse>
                        <ellipse id="ellipse23" fill="#FF6D00" transform="translate(44.767545, 41.800771) rotate(-56.957142) translate(-44.767545, -41.800771) " cx="44.767545" cy="41.8007707" rx="29.5227524" ry="29.4915114"></ellipse>
                        <polygon id="polygon35" fill="#EDB29F" points="54.70764 89.5388533 55.1959238 95.7041997 53.7115462 97.908893 49.6099837 98.3186152 48.7896712 97.0309168 46.5631088 79.9786656 39.7271738 75.6473164 44.4927975 70.9647767 43.8677963 65.0725834 53.5943587 59.2194088 53.1842025 57.9902422 60.8013938 52.254131 64.3170188 56.0586945 65.5474875 60.6241707 59.3365462 67.004131 56.348265 70.1063136 55.4693587 77.1301231 55.5279525 84.0954009"></polygon>
                        <polygon id="polygon43" fill="#30384C" points="39.8443613 81.5395171 36.9537337 79.003139 36.5240475 78.066631 40.2740475 75.7643799 46.5631087 78.300758 43.2818587 81.6955993"></polygon>
                        <polygon id="polygon51" fill="#EDB29F" points="68.555295 20.2372641 67.617795 14.8523438 73.5162375 13.0573702 78.59436 12.511074 81.7974825 13.0963915 81.3678 18.3252273 78.9068625 24.3344863 77.65686 24.9978467 75.4693575 23.3199373 73.633425 23.8272118 72.3443625 26.0123976"></polygon>
                        <path d="M68.3990475,12.04282 L67.6568625,15.1645128 C67.6568625,15.1645128 68.008425,16.1010208 69.414675,15.9059143 C70.820925,15.7108098 72.07092,14.1109414 73.0865475,13.6817089 C74.102175,13.2524755 74.84436,13.0183485 75.35217,13.6426865 C75.8599875,14.2670254 76.055295,14.8913634 76.055295,14.8913634 L76.914675,15.2425549 C76.914675,15.2425549 76.7584125,13.915835 77.2662375,13.837792 C77.7740475,13.7597491 80.03967,13.525623 80.03967,13.525623 L77.3443575,11.6916286 L75.78186,10.0527397 L72.305295,9.54546428 L69.25842,11.1843532 L68.3990475,12.0428191 L68.3990475,12.04282 Z" id="path59" fill="#546187"></path>
                        <path d="M75.9381075,10.7551216 C75.9381075,10.7551216 74.4537375,10.5600152 73.2818625,10.7941422 C72.1099875,11.0282691 71.1724875,11.6526081 70.5474825,12.1598835 C69.922485,12.667158 68.1646725,13.05737 68.047485,13.05737 C67.9302975,13.05737 67.4224875,10.1698042 67.4224875,10.1698042 L66.3092063,8.23825653 L67.9302975,6.77496288 L68.0084288,4.97998903 L71.9928038,5.95551844 L74.5318613,8.41385177 L75.7818638,10.0527407 L75.9381075,10.7551216 Z" id="path67" fill="#30384C"></path>
                        <path d="M44.8052963,66.2432183 C44.8052963,66.2432183 54.0631087,60.9753612 54.0631087,60.5071072 C54.0631087,60.0388533 53.5943587,59.2194088 53.5943587,59.2194088 C53.5943587,59.2194088 55.2349837,56.2342898 56.8756088,55.1807183 C58.5162337,54.1271469 60.8013938,52.254131 60.8013938,52.254131 L50.3131088,43.9426231 L53.1256088,41.2501628 L63.59436,34.5580307 L65.0787375,33.9336945 C65.0787375,33.9336945 66.8951438,31.6509564 68.4185813,31.3582977 C69.9420188,31.065639 73.6920188,30.4217898 73.6920188,30.4217898 L72.695925,25.9733752 L71.0553,22.11028 C71.0553,22.11028 71.758425,21.4664308 70.8795188,19.9446054 C70.0006125,18.4227794 69.77844,16.7253588 67.369995,16.3741683 C64.96155,16.0229778 54.922485,18.0130572 54.922485,18.0130572 L44.609985,22.3053864 L37.1881087,28.314645 L32.7349837,32.5289326 L27.8182631,39.5488407 L27.50061,44.7815769 L30.6256088,50.3225834 L44.8052963,66.2432183 Z" id="path75" fill="#3D3D3D"></path>
                        <path d="M67.77405,5.25313749 C67.77405,5.25313749 71.09436,5.60432796 72.3834225,6.77496288 C73.672485,7.9455978 74.33655,8.53091526 75.2349825,9.93567717 C76.1334225,11.3404391 76.4068575,12.1598835 77.1099825,12.5500945 C77.8131075,12.9403065 81.602175,14.5791954 82.070925,14.7743009 C82.539675,14.9694073 83.4381075,15.3205969 83.71155,15.0864699 C83.984985,14.8523438 83.008425,9.50644374 83.008425,9.50644374 L78.399045,5.52628538 L73.3599825,4.58977745 L67.4224875,4.37516111 L67.77405,5.25313749 L67.77405,5.25313749 Z" id="path83" fill="#AB0738"></path>
                        <path d="M73.39905,5.87747605 C74.6881125,7.04811097 75.35217,7.63342805 76.25061,9.03818996 C77.14905,10.4429519 77.422485,11.2623963 78.12561,11.6526083 C78.828735,12.0428202 82.617795,13.6817091 83.086545,13.8768146 C83.555295,14.0719201 83.75061,14.1109416 84.024045,13.8768146 C84.2974875,13.6426876 82.539675,8.76504243 82.539675,8.76504243 L77.930295,4.7848837 L74.37561,3.6922908 L68.4381075,3.47767446 L68.78967,4.35565065 C68.78967,4.35565065 72.1099875,4.70684113 73.39905,5.87747605 Z" id="path91" fill="#3D3D3D"></path>
                        <path d="M72.03186,10.9502273 C72.1490475,11.0672908 71.9928038,11.3014178 72.50061,11.8477138 C73.00842,12.3940107 73.39905,12.6281377 73.5162375,13.0573702 C73.633425,13.4866027 74.102175,23.0858103 74.102175,23.0858103 L75.4693575,23.3199373 C75.4693575,23.3199373 75.3131137,17.6618669 75.078735,16.6863384 C74.84436,15.7108099 74.9224913,12.9793281 74.9615475,12.7061797 C75.0006037,12.4330312 75.547485,11.6135868 75.6256125,11.3014178 C75.703725,10.9892488 75.2349825,9.93567736 75.2349825,9.93567736 L72.03186,10.9502273 L72.03186,10.9502273 Z" id="path99" fill="#30384C"></path>
                        <path d="M66.641235,30.7339578 L73.203735,29.4072389 L81.641235,39.0064434 L87.1881075,42.908561 L92.18811,47.9032688 L94.4537325,48.8397767 L95.6939719,49.503139 L98.8873312,50.6152422 L100.762331,54.3612739 L100.1178,56.409885 C100.1178,56.409885 98.71155,57.8731787 97.8912375,57.9902422 C97.070925,58.1073057 95.4303,57.346393 95.4303,57.346393 L92.4713156,54.0686152 L85.5279562,48.3325041 L76.953735,43.376815 L69.7076438,34.8116707 L66.641235,30.7339578 Z" id="path107" fill="#EDB29F"></path>
                        <path d="M28.3599844,39.1625293 C28.3599844,39.1625293 28.9849856,42.8305199 32.3443613,47.2789326 C35.7037369,51.7273453 45.9381113,63.8239037 46.25061,64.2921577 C46.5631088,64.7604116 52.9693613,61.2485069 52.9693613,61.2485069 C52.9693613,61.2485069 43.672485,46.1082977 40.4693588,42.8305199 C37.2662363,39.5527422 32.65686,33.9336945 32.2662337,33.2313136 C31.8756113,32.5289326 28.3599844,39.1625293 28.3599844,39.1625293 Z" id="path115" fill="#8B8B8B"></path>
                        <path d="M37.1881087,77.8325041 C37.1881087,77.8325041 37.7740462,79.0811838 38.516235,79.8225834 C39.2584238,80.563983 41.1334237,81.3444088 41.8365487,81.3834275 C42.5396737,81.4224611 43.2818587,81.6955993 43.2818587,81.6955993 L46.3287337,86.7683481 L46.1334225,89.4608084 L42.3834225,87.8219196 L36.0162337,83.9978505 L35.1177975,82.2809168 L36.172485,79.0421577 L37.1881087,77.8325041 Z" id="path123" fill="#AB0738"></path>
                        <path d="M48.8677988,97.4601521 C48.8677988,97.4601521 50.5865475,97.6552529 51.7584225,97.2260251 C52.9302975,96.7967898 55.1959238,95.7041997 55.1959238,95.7041997 L56.7193613,97.694279 L54.4146713,100.464777 L49.6490475,101.362266 L48.9459225,99.4112053 L48.8677913,97.4601521 L48.8677988,97.4601521 Z" id="path131" fill="#30384C"></path>
                        <path d="M26.40747,116.208766 C14.3133546,116.208766 4.47509775,106.38092 4.47509775,94.2996007 C4.47509775,82.2182831 14.3133546,72.3904377 26.40747,72.3904377 C38.5015875,72.3904377 48.3398438,82.2182831 48.3398438,94.2996007 C48.3398438,106.38092 38.5015875,116.208766 26.40747,116.208766 Z M26.40747,74.0659085 C15.2380373,74.0659085 6.15234375,83.1419871 6.15234375,94.2996007 C6.15234375,105.457216 15.2380371,114.533295 26.40747,114.533295 C37.576905,114.533295 46.6625981,105.457216 46.6625981,94.2996007 C46.6625981,83.1419871 37.576905,74.0659085 26.40747,74.0659085 Z" id="path139" fill="#231F20"></path>
                        <path d="M26.40747,110.02452 C17.7282716,110.02452 10.6658936,102.969617 10.6658936,94.2996007 C10.6658936,85.6295863 17.7282716,78.5746829 26.40747,78.5746829 C35.0866706,78.5746829 42.1472175,85.6295863 42.1472175,94.2996007 C42.1472175,102.969617 35.0866706,110.02452 26.40747,110.02452 Z M26.40747,80.2501536 C18.6529541,80.2501536 12.3431396,86.5532903 12.3431396,94.2996007 C12.3431396,102.045913 18.6529541,108.34905 26.40747,108.34905 C34.1619881,108.34905 40.46997,102.045913 40.46997,94.2996007 C40.46997,86.5532903 34.1619881,80.2501536 26.40747,80.2501536 L26.40747,80.2501536 Z" id="path147" fill="#231F20"></path>
                        <path d="M94.06311,110.02452 C85.3839112,110.02452 78.3215325,102.969617 78.3215325,94.2996007 C78.3215325,85.6295863 85.3839112,78.5746829 94.06311,78.5746829 C102.742309,78.5746829 109.804688,85.6295863 109.804688,94.2996007 C109.804688,102.969617 102.742309,110.02452 94.06311,110.02452 Z M94.06311,80.2501536 C86.3085938,80.2501536 79.99878,86.5532903 79.99878,94.2996007 C79.99878,102.045913 86.3085938,108.34905 94.06311,108.34905 C101.817626,108.34905 108.127442,102.045913 108.127442,94.2996007 C108.127442,86.5532903 101.817626,80.2501536 94.06311,80.2501536 Z" id="path155" fill="#231F20"></path>
                        <path d="M48.9459225,99.4112053 C48.9459225,99.4112053 49.5709238,100.308695 50.93811,100.23065 C52.3052962,100.15262 54.1802962,99.6843584 54.8834212,99.0600148 C55.5865462,98.4356787 56.4068587,97.8893799 56.4068587,97.8893799 L60.4693575,99.8014219 L64.02405,101.206184 L67.578735,101.869539 L67.38342,103.820599 L63.9459225,104.796126 L57.8912362,105.459488 L52.6177987,105.147316 L49.1802975,105.537533 L48.359985,101.83052 L48.9459225,99.4112053 Z" id="path163" fill="#363636"></path>
                        <path d="M94.21875,116.208766 C82.1246344,116.208766 72.2863763,106.38092 72.2863763,94.2996007 C72.2863763,82.2182831 82.1246344,72.3904377 94.21875,72.3904377 C106.312866,72.3904377 116.151124,82.2182831 116.151124,94.2996007 C116.151124,106.38092 106.312866,116.208766 94.21875,116.208766 Z M94.21875,74.0659085 C83.0493169,74.0659085 73.9636237,83.1419871 73.9636237,94.2996007 C73.9636237,105.457216 83.0493169,114.533295 94.21875,114.533295 C105.388183,114.533295 114.473876,105.457216 114.473876,94.2996007 C114.473876,83.1419871 105.388183,74.0659085 94.21875,74.0659085 Z" id="path171" fill="#231F20"></path>
                        <path d="M50.234985,106.444938 C48.8562019,106.444938 48.3105469,106.148621 47.889405,105.05664 C47.5982662,104.297555 47.7044737,102.656838 47.8875731,100.423486 L47.9534981,99.6022117 C48.0761794,97.9505189 48.1146356,93.8093988 47.8472981,92.2564776 C47.5616531,90.6102727 46.6333087,85.6606821 45.7562325,82.5676455 C44.9432437,79.694102 45.8715825,74.9018149 46.6406325,71.5472135 L46.682745,71.3642947 C46.9976869,69.9833108 46.6021762,69.2882477 46.3128713,68.7815819 C45.8203181,68.1139548 35.3778131,56.6563683 28.4857237,49.125893 C26.9604544,47.6058975 26.1071831,45.5481405 26.1071831,43.3550299 C26.1071831,41.6630954 26.4386044,40.2382135 27.0941212,39.1242804 C35.1104737,24.8260781 50.1635737,15.843285 66.5240475,15.5433099 C66.5661619,14.998233 66.7016606,14.2610998 67.0605469,13.4123895 C67.5183094,12.3332103 67.4304188,11.4095063 66.8078606,10.7400495 C65.9289544,9.79256677 65.5261219,8.54327979 65.5096425,8.49023542 C65.436405,8.25610843 65.46753,8.00186114 65.5975237,7.79334184 C65.711055,7.61225867 65.8904925,7.48239199 66.0955706,7.42751843 L65.8905019,7.10193564 C65.72937,6.84403016 65.7220463,6.51844737 65.8685306,6.25139613 C66.016845,5.98434509 66.2969963,5.81972441 66.6027825,5.81972441 L67.0202625,5.81972441 L66.6265875,4.63994393 C66.5441812,4.3930132 66.5826375,4.12047459 66.7291312,3.90463892 C66.875625,3.68880287 67.1136525,3.55344825 67.3754944,3.53881532 C68.2379212,3.48759957 75.8990531,3.09616903 78.2739319,4.46800707 C79.6691944,5.27647676 83.0346731,7.4330058 84.1333069,10.0175482 C84.9298144,11.8923933 85.0231988,14.9616515 84.3054319,15.6786647 C83.9337263,16.0518047 83.1335569,16.3920204 82.3974712,16.3810456 C80.0134388,24.376116 79.6710319,24.7437684 79.5227156,24.9047316 C79.1528437,25.3638397 78.6639525,25.982081 77.8125113,26.0296387 C77.1258656,26.0643832 76.4099231,25.7186881 75.6482044,24.9559455 C75.0256462,24.3340462 74.6722519,24.1749129 74.536755,24.134673 C74.5019737,24.1584603 74.4671738,24.1803933 74.430555,24.2005282 L71.9403206,25.4882266 C71.5283325,25.7022337 71.0247937,25.5412704 70.8087281,25.1297202 C70.5963262,24.718168 70.7574656,24.2115022 71.1676162,23.9993251 L73.5479869,22.7701584 C73.7054494,22.6329788 73.959975,22.4848157 74.326185,22.4518918 C75.1043831,22.3714083 75.8807512,22.8195443 76.8347306,23.7706861 C77.3162981,24.251744 77.6916637,24.3431996 77.7154669,24.3578335 C77.8161731,24.3505287 77.9956181,24.1255345 78.10182,23.9920091 C78.1714012,23.9042209 78.2336512,23.8273897 78.2922487,23.7633701 C78.5028206,23.3554759 79.87245,19.0003488 81.0333394,15.08238 C81.1029206,14.8445957 81.2750381,14.6507092 81.5020894,14.551937 C81.7309706,14.4495074 81.9909806,14.4586514 82.2125381,14.5702364 L82.5641006,14.7458316 C82.5970631,14.7275322 82.8735487,14.634256 83.0383425,14.5446287 C83.1701662,13.9849032 83.2086187,12.1338366 82.5878906,10.6723721 C81.9635006,9.20176212 80.0372306,7.42568943 77.4316406,5.92032597 C76.1297606,5.16672964 71.6949469,5.05149534 68.5693369,5.16124246 L68.9813231,6.39223831 C69.0655481,6.64831479 69.0234356,6.92816959 68.8659731,7.14766363 C68.7085106,7.3653285 68.453985,7.49519592 68.1848212,7.49519592 L68.1170775,7.49519592 L68.19399,7.61774735 C68.3423025,7.85736171 68.36244,8.15550782 68.2434338,8.4134133 C68.1262463,8.66948978 67.8863775,8.84874321 67.6062262,8.89081283 L67.5311512,8.9017887 C67.6684762,9.13591569 67.8369375,9.38284642 68.0383519,9.59868228 C69.1113506,10.7546843 69.3182606,12.3825984 68.60598,14.0672153 C68.0749744,15.3183305 68.1976538,16.2383763 68.1994856,16.2475219 C68.2342669,16.4871363 68.1628669,16.7358962 68.0035631,16.9188078 C67.8442631,17.101719 67.6135481,17.2114665 67.3700175,17.2114665 C51.2915269,17.2114665 36.4160381,25.9272091 28.5498281,39.9583681 C28.0389638,40.8271983 27.7844456,41.9649094 27.7844456,43.3550393 C27.7844456,45.1000158 28.4637675,46.7370766 29.6978981,47.9680714 C36.3263156,55.2077179 47.4481425,67.3896333 47.7594225,67.932881 C48.1238025,68.5694142 48.7774894,69.7199291 48.319725,71.7356164 L48.2776125,71.9221875 C47.8564706,73.7513036 46.5802256,79.3173074 47.3712413,82.1103693 C48.2666269,85.2747416 49.2114506,90.3011557 49.4989256,91.9711386 C49.8230231,93.8496424 49.7351325,98.2578152 49.6271006,99.7265949 L49.5611756,100.560673 C49.4696194,101.670946 49.2791944,103.979292 49.4568131,104.456692 C49.4842819,104.529852 49.5520256,104.703623 49.5831506,104.745693 C49.6417444,104.760303 49.991475,104.800572 51.0864469,104.740261 C51.8884481,104.694541 52.4835413,104.539058 53.0566613,104.389071 C53.8916231,104.175064 54.677145,103.966545 55.7940881,104.16592 C56.83779,104.352491 60.3991913,104.93049 62.3913788,104.520768 C64.3451137,104.118362 66.6156206,103.297088 66.9305625,103.114176 C67.0221188,103.053809 67.0532438,103.031857 67.0532438,102.728232 C67.0440563,102.569101 66.7273163,102.137429 66.4032188,102.122795 C66.1908169,102.108185 65.8447463,102.120967 65.4492394,102.135531 C63.9935513,102.183087 62.8253381,102.194063 62.1313688,101.897746 C61.7907919,101.753243 61.1828813,101.407542 60.4907438,101.010624 C59.5331025,100.46006 58.3410844,99.7759695 57.6581025,99.5400144 C56.2243856,99.0479825 55.0781456,97.9102715 54.6679894,96.5731873 C54.3274125,95.4720581 53.7451369,91.1718028 54.1699425,87.8519571 C54.6203813,84.3052985 54.8913788,79.7453103 54.7064419,78.8161183 C54.4830525,77.7058432 54.2267044,73.2098747 54.9957488,71.4648963 C55.1440613,71.1301677 55.2978713,70.8119011 55.4443556,70.5082684 C55.8893025,69.5955384 56.239035,68.8748675 56.11086,68.2182143 C55.9149375,67.2103707 51.9854944,57.7904213 50.667135,55.3229421 C50.1288056,54.3150984 49.4915981,52.9267985 48.8763638,51.5823983 C48.0523894,49.7862041 47.1991181,47.9278221 46.6516313,47.1284976 C46.3934531,46.7498712 46.1261194,46.334661 45.84963,45.9048189 C45.0787556,44.7049181 44.2035113,43.3440541 43.3539019,42.6032613 C43.0060031,42.2977986 42.9712125,41.7691849 43.2751706,41.4198224 C43.5827888,41.0722918 44.1119625,41.037538 44.4598631,41.3411745 C45.4870856,42.2392706 46.4300775,43.7043942 47.2613775,44.9994086 C47.5287113,45.4146188 47.7868894,45.817025 48.0359138,46.1828475 C48.6657956,47.1010654 49.5080813,48.9393275 50.401635,50.883679 C51.0132075,52.2207633 51.6284419,53.5615055 52.1466319,54.5327672 C53.3551275,56.7953854 57.4896488,66.5262835 57.7588144,67.8962935 C57.9931894,69.1035103 57.4896488,70.1424478 56.9531494,71.241747 C56.8158244,71.5270898 56.6693363,71.8252364 56.5301756,72.1416731 C55.9863525,73.3763277 56.1273431,77.3692904 56.3507381,78.4868815 C56.6272275,79.8678636 56.2207256,85.0259732 55.83255,88.064138 C55.4461969,91.0986428 55.9717125,95.1098974 56.2720031,96.0811572 C56.5246894,96.9042597 57.2827444,97.6395645 58.203765,97.956003 C59.0387269,98.2431738 60.2545463,98.9418968 61.327545,99.5564801 C61.9464413,99.9131585 62.4866025,100.227765 62.7905569,100.357633 C63.2007131,100.531392 64.6271062,100.483837 65.3961488,100.461885 C65.8502494,100.445402 66.2420963,100.434445 66.4892869,100.447275 C67.7508844,100.509459 68.7304988,101.724 68.7304988,102.728183 C68.7304988,103.558604 68.4576713,104.110997 67.8479306,104.51706 C67.3095994,104.875568 64.6307681,105.771834 62.7283013,106.163266 C60.5877975,106.602255 57.2827444,106.132174 55.4974669,105.815734 C54.7485656,105.684042 54.2157281,105.81948 53.4796444,106.011449 C52.8570863,106.174233 52.1502994,106.357152 51.1816706,106.412025 C50.8282763,106.432142 50.5151663,106.444953 50.235015,106.444953 L50.234985,106.444938 Z M74.7344963,23.9334699 C74.7326662,23.9334699 74.7326662,23.9352998 74.7326662,23.9352998 C74.7326662,23.9352998 74.7326662,23.9334699 74.7344963,23.9334699 Z" id="path179" fill="#231F20"></path>
                        <path d="M92.18811,47.9032688 L89.8345969,51.2005596 L92.9986594,53.9808176 L95.5767844,56.3220874 C95.5767844,56.3220874 96.1920188,56.2050239 96.133425,55.7075041 C96.0748313,55.2099842 97.070925,55.4441112 97.1881125,55.268516 C97.3053,55.0929207 98.3599875,54.4783374 98.4478781,54.2734763 C98.5357594,54.0686152 99.5611594,53.8052223 99.5904563,53.5710953 C99.6197625,53.3369683 99.3267844,51.2298255 99.3267844,51.2298255 L98.008425,50.0884564 L95.6939719,49.503139 L92.18811,47.9032688 Z" id="path187" fill="#FF6D00"></path>
                        <path d="M92.2322269,47.9032688 L89.8787138,51.2005596 L93.0427763,53.9808176 L95.6209013,56.3220874 C95.6209013,56.3220874 97.1002219,55.7660358 97.0416281,55.268516 C97.0123219,55.0197551 95.7416213,54.2039687 94.96155,53.1321072 C94.0333763,51.8567483 93.5782388,50.2714351 94.40109,48.9258586 L94.45374,48.8397748 L92.2322344,47.9032669 L92.2322269,47.9032688 Z" id="path195" fill="#30384C"></path>
                        <path d="M57.110595,69.7345593 C56.8817138,69.7345593 56.6546625,69.6412831 56.4880369,69.4583625 C56.1767587,69.114488 56.2042238,68.5858742 56.5484681,68.2749236 C58.5076969,66.5061673 63.7445119,61.7340019 64.4348194,60.9072396 C64.9694888,60.2670503 65.0500538,57.8599346 63.5815481,55.8497353 C62.3474175,54.1614606 52.8076237,47.0864353 49.235235,44.5037225 C49.026495,44.3519145 48.8983219,44.1122903 48.8891663,43.8543853 C48.8799787,43.5964804 48.99171,43.3477196 49.1894588,43.1831002 C49.4604544,42.9544593 55.8819638,37.5951465 58.5754444,36.089783 C61.18836,34.6301474 66.8737856,31.2023823 66.9305475,31.1676303 C67.3278863,30.9280154 67.8424125,31.0560548 68.0822813,31.4511431 C68.32215,31.8480614 68.193975,32.3620432 67.7984681,32.6016581 C67.7417119,32.6364025 62.0324756,36.078809 59.3957569,37.5530767 C57.38526,38.6743258 52.9412906,42.2667122 51.0955875,43.7830497 C54.1937306,46.0401799 63.5138006,52.914002 64.93653,54.8620116 C66.6082819,57.1520676 66.9763238,60.4773975 65.7238819,61.9791029 C64.83216,63.0473082 58.4033269,68.8602411 57.672735,69.5187242 C57.513435,69.6632273 57.3120169,69.7345593 57.1106006,69.7345593 L57.110595,69.7345593 Z" id="path203" fill="#231F20"></path>
                        <polygon id="polygon211" fill="#383838" points="56.4068587 97.8893799 82.109985 71.394012 82.7349825 72.2524751 86.1724875 83.0223164 93.359985 92.8556497 86.9537325 76.8569775 84.453735 67.6479803 82.5006075 61.4826338 80.3912325 55.5514182 79.06311 57.8146469 77.7349875 60.8582977 64.4537325 62.7313136 56.7584212 63.7263533 55.8209212 64.7799247 56.8756087 66.1846866 76.6803 64.0775437 78.8482688 65.8920279 78.789675 68.5844882 73.5162375 75.6082977 63.6724875 86.144012 58.43811 91.6069775 54.922485 94.8847552"></polygon>
                        <path d="M99.3365475,58.1836891 C99.1333013,58.1836891 98.9300531,58.1105291 98.7689213,57.9641941 C98.4283444,57.6514155 98.4045413,57.1209717 98.7176587,56.7789272 C98.7268462,56.7697494 99.1223212,56.3381092 99.4464187,55.9064371 C99.55995,55.677798 99.6514969,54.4961891 99.5745937,53.3017744 C99.5306437,52.7274328 98.0712994,50.7099156 97.4359219,50.3477511 C97.0367531,50.1209402 95.55726,49.923395 94.4146819,49.8721812 C94.0081875,49.8538256 93.68043,49.5484266 93.6236662,49.1569963 C93.4442287,49.023469 93.1201256,48.8149517 92.7264506,48.6009447 C92.4023531,48.8350717 91.9134619,48.7893439 91.6204931,48.5222968 C91.4282325,48.344866 86.8872169,44.1836316 85.5468844,42.6855841 C84.8309419,41.8862596 82.27662,39.9601999 80.2258387,38.4127666 C78.3581644,37.0043467 77.2869975,36.1903883 76.9555762,35.8227359 C76.3714687,35.1734007 72.5482275,30.1963723 71.7736912,27.5350059 C71.3800144,26.1777999 70.3326506,22.5744395 69.1937344,21.5135521 C68.4100444,20.7837352 66.5240569,20.4691266 65.8630462,20.4087649 C65.40162,20.3685325 65.061045,19.9606309 65.1031594,19.4996948 C65.1434344,19.0387568 65.5993744,18.6784202 66.0113625,18.7406102 C66.313485,18.7662143 68.99415,19.0350988 70.3399744,20.2880434 C71.6363625,21.4970902 72.5702006,24.2608862 73.3850194,27.066752 C74.0368744,29.3074203 77.5543312,33.9808159 78.2025244,34.7014868 C78.4423913,34.9667096 79.9273781,36.0861288 81.2365819,37.0756824 C83.4558206,38.7493232 85.9716881,40.6461189 86.7974944,41.567993 C87.8686613,42.7642358 91.2524512,45.9011721 92.3822119,46.9437677 C92.7154631,46.8834004 93.1146337,46.9071877 93.5229581,47.1266864 C94.41102,47.6059163 94.8559669,47.9534487 95.0775244,48.2333035 C95.97474,48.3009756 97.5384619,48.4765764 98.2672219,48.8917847 C99.2431725,49.4496663 101.165781,51.9244615 101.248177,53.195698 C101.304934,54.0553823 101.370859,56.1387472 100.790415,56.9124639 C100.413218,57.4118118 99.9554531,57.9129915 99.9554531,57.9129915 C99.7888219,58.0922391 99.5636081,58.1837003 99.3365569,58.1837003 L99.3365475,58.1836891 Z" id="path219" fill="#231F20"></path>
                        <polygon id="polygon227" fill="#D23C17" points="71.9928 64.5262846 73.711545 61.287533 69.1021725 62.0679513 66.5240475 65.5798561"></polygon>
                        <polygon id="polygon235" fill="#6A738A" points="66.8637225 65.3847552 69.6099825 62.1459961 62.2450088 62.9264219 58.1256113 66.4383267"></polygon>
                        <polygon id="polygon243" fill="#969696" points="75.5432794 77.2798745 74.7694875 73.696591 71.7470231 77.2595335 72.0396131 81.6047224"></polygon>
                        <polygon id="polygon251" fill="#BFBFBF" points="72.1736231 81.2369183 72.1857769 76.9924602 67.0555612 82.3285438 66.16923 87.6655003"></polygon>
                        <path d="M62.3443575,85.5196759 L59.7271725,83.2564434 L61.0943625,80.1737739 L64.297485,77.4422949 L65.703735,76.1936152 L67.38342,74.0864723 L69.72717,74.7108084 L70.820925,76.505787 L69.5709225,78.066631 C69.5709225,78.066631 68.477175,78.066631 68.2428,78.5739037 C68.008425,79.0811838 68.516235,80.4859457 68.516235,80.4859457 C68.516235,80.4859457 65.93811,83.6856787 65.7818625,83.8417608 C65.6256,83.997858 62.3443575,85.5196759 62.3443575,85.5196759 Z" id="path259" fill="#FF6D00"></path>
                        <path d="M55.4095462,64.8563044 C54.9975581,64.8563044 54.6386719,64.5526698 54.5800781,64.1338035 C54.5178281,63.6746936 54.8382563,63.2521675 55.2960206,63.1881497 C61.1883544,62.3760212 76.6735838,60.2249805 77.5634756,60.0384094 C78.2098388,59.9012297 78.5375981,59.4878495 78.5375981,58.8092464 C78.5375981,58.2367329 77.8875731,56.391153 77.4279788,55.2625879 C77.2521975,54.8345757 77.4591037,54.3443718 77.8875731,54.1706065 C78.3160406,53.9950113 78.8067619,54.1998817 78.9807131,54.6297145 C79.1876213,55.1345504 80.2148438,57.7062892 80.2148438,58.8092464 C80.2148438,60.2798523 79.3304438,61.3791535 77.9077144,61.6772983 C76.7797856,61.9150832 56.3928225,64.728265 55.5267337,64.8489884 C55.4864587,64.8544202 55.4480025,64.8562932 55.4095462,64.8562932 L55.4095462,64.8563044 Z" id="path267" fill="#231F20"></path>
                        <path d="M57.2863762,93.5953917 C57.0812981,93.5953917 56.87439,93.5203962 56.7114262,93.3685807 C56.3745112,93.0521441 56.3580319,92.5217003 56.6748075,92.1833138 C56.8176262,92.0315059 71.0339381,76.9028682 75.335085,72.7251663 C78.6364762,69.5150643 78.3874537,68.176152 78.1457531,66.8793077 C78.0889969,66.564699 78.0340594,66.2592364 78.0120844,65.9501157 C77.9589844,65.185545 77.6184075,65.0611655 76.7926031,64.9422721 L76.5307612,64.9020397 L76.5289312,64.9020397 C75.7104487,64.9020397 64.3542487,66.4421551 56.9348137,67.4829226 C56.4825431,67.5414543 56.0504156,67.2286757 55.9863281,66.7695677 C55.9222406,66.3104596 56.2426762,65.8861035 56.7004387,65.8220857 C69.5379637,64.0240635 76.3000481,63.1735233 76.8310537,63.252175 L77.03247,63.283267 C77.7172856,63.3820311 79.5336919,63.6436034 79.6856681,65.833056 C79.7021681,66.0818168 79.7497556,66.3232598 79.7955244,66.5738487 C80.1544106,68.4980803 80.1525806,70.3802403 76.5032887,73.9250708 C72.2314387,78.0789948 58.0407638,93.1783554 57.8979413,93.3320026 C57.7331475,93.5075978 57.5097581,93.5953955 57.2863688,93.5953955 L57.2863762,93.5953917 Z" id="path275" fill="#231F20"></path>
                        <path d="M90.1428225,63.5283661 C89.4433594,63.5283661 88.9379888,63.4314188 88.8098138,63.4039791 C88.3575431,63.3070318 88.0682381,62.8607315 88.1652825,62.4089395 C88.2623325,61.9571474 88.6999519,61.6626606 89.1613763,61.7650903 C89.26392,61.787042 91.6699219,62.280902 93.3215325,60.667621 C94.4165044,59.5975913 95.1324469,57.622144 94.3798819,56.2960337 C93.9239494,55.4967092 93.0377194,55.1692986 92.1807863,54.85469 C90.4302975,54.2090108 88.7860106,54.386436 87.7203375,54.6479989 L79.0026862,56.927079 C78.5485838,57.0441425 78.0963131,56.7770879 77.9791256,56.3289576 C77.8619381,55.8808255 78.1292756,55.4235455 78.5778806,55.306482 L87.3083494,53.0237439 C89.1796875,52.5664639 91.0638431,52.6560915 92.76123,53.2816488 C93.7390144,53.6419852 95.077515,54.1358471 95.8374019,55.4674452 C97.0458975,57.5928781 96.0479738,60.3493543 94.4934075,61.8675217 C93.0798338,63.2485038 91.3311769,63.5283605 90.1428225,63.5283605 L90.1428225,63.5283661 Z" id="path283" fill="#231F20"></path>
                        <polygon id="polygon291" fill="#393939" points="40.7037337 64.487266 42.6373275 64.3702025 43.3871981 67.2150926 40.64514 71.9207977 26.9342044 93.4897461 47.5006087 97.8503612 46.6217025 100.074568 34.9615462 98.6405398 24.8834231 94.8359763 24.7955325 91.5581985"></polygon>
                        <path d="M46.5234375,77.7332885 C46.1700431,77.7332885 45.8404537,77.5083075 45.7250981,77.153459 L41.3140875,63.575922 C41.1694312,63.1369339 41.4093,62.663192 41.850585,62.5205225 C42.2900381,62.372367 42.7642819,62.6137987 42.9071044,63.0564523 L47.3217769,76.6376473 C47.3137144,77.0784653 47.2229081,77.5503773 46.7816156,77.6930487 C46.6955531,77.7204883 46.6094906,77.733281 46.5234375,77.733281 L46.5234375,77.7332885 Z" id="path299" fill="#231F20"></path>
                        <path d="M46.7871094,101.019778 L30.8496094,98.5614442 C29.2529306,98.3163432 23.9685056,97.4036132 23.0145262,95.9732434 C22.0385738,94.5117797 23.3203125,92.377199 23.4686288,92.137586 L41.4678956,62.1437242 C41.6326894,61.8693554 41.9311519,61.7193681 42.2680669,61.7413179 C42.5903325,61.77241 42.86499,61.9845909 42.9766837,62.2882236 L44.4818119,66.4238576 C44.5696931,66.6671305 44.5404056,66.9360095 44.4030806,67.1555044 L27.7899206,93.6740434 L47.8692656,96.9060934 C48.32703,96.9792534 48.63831,97.4091011 48.5632369,97.8663792 C48.4899994,98.3236592 48.0505406,98.6327799 47.6019319,98.5596143 L26.2738069,95.126363 C25.9954875,95.0824596 25.7592806,94.9013801 25.643925,94.6453051 C25.5267375,94.3892283 25.546875,94.0929116 25.697025,93.8551266 L42.7642819,66.6122568 L42.0007331,64.5160879 L24.9005119,93.0137323 C24.5233162,93.6209996 24.1497806,94.6544511 24.4097906,95.0440515 C24.8272706,95.5470593 27.9583744,96.4213775 31.1059575,96.9042653 L47.0434575,99.3625986 L46.7871094,101.019778 Z" id="path307" fill="#231F20"></path>
                        <path d="M46.4666756,90.8059878 C46.4666756,90.8059878 44.2163081,89.622549 43.2092288,89.0317436 C42.1270763,88.3970403 36.97815,85.4887449 35.8355719,85.0534148 C34.0905769,84.3894457 33.7133794,81.8725806 33.7133794,81.2854332 C33.7133794,80.8226671 34.088745,80.4476987 34.5520013,80.4476987 C35.0152594,80.4476987 35.390625,80.8226671 35.390625,81.2854332 C35.390625,81.7353971 35.7604988,83.2316147 36.432495,83.4876897 C37.7691656,83.9961854 43.201905,87.083734 44.0588381,87.5867418 C45.0439463,88.1647433 47.2448738,89.3225743 47.2467038,89.3244023 L46.4666756,90.8059878 Z" id="path315" fill="#231F20"></path>
                        <path d="M60.5053706,100.970392 C60.4687519,100.970392 60.4321331,100.968562 60.3955144,100.963087 C59.93592,100.904555 59.6118244,100.483857 59.6722481,100.024749 C59.7088669,99.7339203 59.7290044,99.4394316 59.7290044,99.137627 C59.7290044,96.0336163 57.6324469,93.3173762 54.6313481,92.5308557 C54.1827394,92.4137922 53.9154056,91.9546841 54.0325931,91.50838 C54.1497806,91.060246 54.6002194,90.7931951 55.0561519,90.9102586 C58.7951663,91.8906663 61.40625,95.2727037 61.40625,99.137627 C61.40625,99.5125954 61.3824375,99.8802497 61.3348313,100.240584 C61.2817313,100.66311 60.9191813,100.970403 60.5053631,100.970403 L60.5053706,100.970392 Z" id="path323" fill="#231F20"></path>
                        <path d="M93.90747,55.8424193 C93.6822506,55.8424193 93.4570313,55.7527955 93.2904056,55.5735385 C92.5854488,54.8107958 91.3146975,53.4865156 90.9027094,53.1792248 C90.7159406,53.038374 90.2801513,52.7420648 89.7454838,52.3799003 C88.0627444,51.2348733 86.6290275,50.2471496 86.1254888,49.7441418 C85.7208244,49.3655154 82.5073238,47.5418853 80.3814694,46.3364966 C78.6383062,45.3469449 77.1331781,44.4945765 76.4959706,44.0793664 C74.6960456,42.9087315 71.2408444,38.6889597 69.79065,36.6897344 C68.1555169,34.4326042 65.0408925,30.3884257 65.0390625,30.3865958 L66.3684075,29.3659483 C66.3684075,29.3659483 69.5031731,33.4357345 71.1492919,35.7056687 C72.8100581,37.9957228 75.9942619,41.7545585 77.4114994,42.6746045 C78.0065925,43.0623768 79.5629888,43.9440129 81.2091056,44.8786909 C85.15686,47.1175311 86.87622,48.1235448 87.3120113,48.5588749 C87.7441406,48.990547 89.5880119,50.2453215 90.6903075,50.9934303 C91.2542719,51.3775446 91.7138663,51.6903233 91.9097906,51.8384807 C92.578125,52.3360006 94.3267819,54.2236503 94.5245363,54.4358274 C94.8376463,54.7760439 94.817505,55.3064876 94.47693,55.6210962 C94.3157925,55.7692518 94.11072,55.8424193 93.9074719,55.8424193 L93.90747,55.8424193 Z" id="path331" fill="#231F20"></path>
                        <path d="M77.5006125,8.41385177 C77.184555,7.99413008 76.7202113,7.53097502 76.016235,7.12615336 C76.5424781,7.20869717 77.3874019,7.41792709 78.2037375,8.02363982 C79.11546,8.70013007 80.0661131,9.92651812 79.7564719,10.433197 C79.6293281,10.6412475 79.2921281,10.7239758 79.02405,10.667324 C78.3311175,10.5208879 78.3089512,9.48733092 77.5006125,8.41385177 Z" id="path339" fill="#AB0738"></path>
                        <path d="M70.871115,8.5162119 C70.5414394,8.49841825 70.1309606,8.53430523 69.6517331,8.70883098 C69.9040612,8.48946111 70.3460962,8.1682314 70.9673887,8.02090784 C71.6612719,7.85636901 72.6355294,7.89529028 72.754275,8.24868474 C72.803025,8.39379477 72.7066125,8.58914883 72.57105,8.69500082 C72.2206312,8.96860836 71.7142819,8.56170203 70.8711094,8.51621209 L70.871115,8.5162119 Z" id="path347" fill="#546187"></path>
                        <path d="M70.871115,9.88195233 C70.5414394,9.86415868 70.1309606,9.90004566 69.6517331,10.0745714 C69.9040612,9.85520154 70.3460962,9.53397183 70.9673887,9.38664827 C71.6612719,9.22210944 72.6355294,9.26103071 72.754275,9.61442517 C72.803025,9.7595352 72.7066125,9.95489019 72.57105,10.0607412 C72.2206312,10.3343488 71.7142819,9.92744245 70.8711094,9.88195252 L70.871115,9.88195233 Z" id="path355" fill="#546187"></path>
                        <polygon id="polygon363" fill="#AB0738" points="86.60217 74.7888533 83.477175 76.739914 83.3990475 74.7888533 85.820925 72.1354116"></polygon>
                        <polygon id="polygon371" fill="#6A738A" points="88.633425 87.0219882 84.414675 78.769012 83.7701438 75.9594882 85.820925 74.2620676 88.5162375 81.1688136 91.7388938 88.4852818"></polygon>
                        <path d="M36.1340325,79.5294808 C35.8996575,79.5294808 35.6652825,79.4307167 35.4986569,79.238652 C35.1965325,78.8892896 35.234985,78.3588459 35.5865381,78.0570412 L44.1009431,70.720453 C44.4470119,70.4168203 44.9780175,70.4570602 45.2838038,70.8082413 C45.5859281,71.1576037 45.5474756,71.6880474 45.1959225,71.9898521 L36.6815194,79.3264403 C36.5240569,79.4636199 36.328125,79.5294714 36.1340325,79.5294714 L36.1340325,79.5294808 Z" id="path379" fill="#231F20"></path>
                        <path d="M43.28247,82.5328917 C43.0719,82.5328917 42.86316,82.4542438 42.7001944,82.2987647 C42.3669431,81.9768401 42.3577875,81.4463964 42.6782194,81.1134959 L45.9594694,77.7186547 C46.283565,77.3857561 46.5126638,77.3802681 46.844085,77.6967029 C47.1773381,78.0186275 47.1864919,78.5490712 46.86606,78.8819698 L43.8867169,82.2768111 C43.7219231,82.4469184 43.5021956,82.532888 43.28247,82.5328917 L43.28247,82.5328917 Z" id="path387" fill="#231F20"></path>
                        <path d="M59.454345,95.8781298 C59.245605,95.8781298 59.036865,95.8012987 58.8739013,95.6458309 C58.5388181,95.3257362 58.5278325,94.7952925 58.84827,94.460564 L81.50391,70.8137386 C81.7163119,70.5942436 82.0367475,70.5101058 82.3242225,70.5832696 C82.6208531,70.6619175 82.8497344,70.8942202 82.9229775,71.1905369 C82.943115,71.2710204 84.9499556,79.234994 86.9000287,82.6042274 C87.6141394,83.838882 88.8867225,85.5509346 90.2215612,87.2337233 C89.7473175,86.2606316 89.2803994,85.2655919 88.8629194,84.31628 C86.9311556,79.931887 82.0990031,64.3423226 81.893925,63.6801816 C81.7163063,63.1369339 80.1599156,58.1782012 81.50391,55.5717085 C81.8829375,54.8345757 82.4798625,54.3224219 83.2269319,54.088295 C83.6187787,53.9657435 84.4152862,53.7663703 85.1660194,53.5798011 C85.7061806,53.4462738 86.2225387,53.3182363 86.5246612,53.2322686 C86.9751019,53.1042293 87.4346962,53.3657959 87.5610394,53.8102701 C87.6873769,54.2565742 87.4273706,54.7193402 86.9824256,54.8455497 C86.6674838,54.9351735 86.1328162,55.0668727 85.5706819,55.207716 C84.8584013,55.3833112 84.1021762,55.5698805 83.7286406,55.686944 C83.406375,55.7875437 83.172,55.9960646 82.9943887,56.3399391 C82.1246381,58.0282138 83.0603137,61.8455775 83.4942656,63.1735158 C83.5473656,63.3472755 88.5058631,79.3447415 90.3973425,83.639507 C92.2943156,87.9452483 95.1983681,93.1765236 95.227665,93.2277393 C95.4345731,93.6027077 95.3265337,94.0727916 94.9786406,94.3197225 C94.63074,94.5666516 94.1491744,94.5099498 93.8653594,94.1916832 C93.6053456,93.8990244 87.4951163,86.9867905 85.4461669,83.4419618 C83.8897706,80.7513315 82.369995,75.5840759 81.6796875,73.0544069 L60.0604256,95.6202249 C59.8956319,95.7921677 59.6759025,95.8781298 59.454345,95.8781298 L59.454345,95.8781298 Z" id="path395" fill="#231F20"></path>
                        <ellipse id="circle403" fill="#30384C" cx="26.1334219" cy="94.3774751" rx="4.30923469" ry="4.30467465"></ellipse>
                        <path d="M26.1328125,99.6186736 C23.2397456,99.6186736 20.88684,97.2682578 20.88684,94.3782524 C20.88684,91.4882489 23.2397456,89.1360031 26.1328125,89.1360031 C29.0258794,89.1360031 31.380615,91.4882489 31.380615,94.3782524 C31.380615,97.2682578 29.0258794,99.6186736 26.1328125,99.6186736 Z M26.1328125,91.0090209 C24.2742919,91.0090209 22.76184,92.5198704 22.76184,94.3782543 C22.76184,96.2348082 24.2742919,97.7456577 26.1328125,97.7456577 C27.993165,97.7456577 29.505615,96.2348082 29.505615,94.3782543 C29.505615,92.5198704 27.993165,91.0090209 26.1328125,91.0090209 Z" id="path409" fill="#231F20"></path>
                        <path d="M67.1002219,74.9644485 C67.1002219,74.9644485 68.3892844,75.4912342 68.9752219,76.2521469 C69.5611594,77.0130596 69.9420188,77.5983771 69.9420188,77.5983771 L70.820925,76.505787 L69.72717,74.7108084 L67.7447531,74.1742699 L67.1002219,74.9644485 Z" id="path417" fill="#30384C"></path>
                        <ellipse id="circle425" fill="#30384C" cx="94.1946394" cy="94.3774751" rx="2.40631088" ry="2.40376451"></ellipse>
                        <path d="M94.1949469,97.7182218 C92.3510737,97.7182218 90.8514412,96.2201743 90.8514412,94.3782543 C90.8514412,92.5363323 92.3510737,91.0364568 94.1949469,91.0364568 C96.0388181,91.0364568 97.5384525,92.5363323 97.5384525,94.3782543 C97.5384525,96.2201743 96.0388181,97.7182218 94.1949469,97.7182218 Z M94.1949469,92.9094727 C93.38562,92.9094727 92.7264412,93.5679539 92.7264412,94.3782543 C92.7264412,95.1867229 93.38562,95.8452059 94.1949469,95.8452059 C95.0042719,95.8452059 95.6634525,95.1867229 95.6634525,94.3782543 C95.6634525,93.5679539 95.0042719,92.9094727 94.1949469,92.9094727 Z" id="path431" fill="#231F20"></path>
                        <path d="M63.046875,86.9044808 C62.8710937,86.9044808 62.6953125,86.8496014 62.5451662,86.7380259 C58.5955819,83.7876606 58.5223387,83.49683 58.4454337,83.1877093 C58.1689462,82.0957261 61.4007562,79.2203545 61.6955569,79.0721971 C62.39685,78.7228347 63.7371825,78.4722457 64.3450931,79.2807162 C64.6215825,79.6520266 64.5465094,80.1769824 64.1766431,80.4550091 C63.8562094,80.6909642 63.4185862,80.6690162 63.1274494,80.4202647 C62.9827931,80.4019091 62.69532,80.4477043 62.4444656,80.5720726 C62.0983969,80.7842497 60.845955,82.1268219 60.2948081,82.8456648 C60.9411694,83.4035463 62.3327719,84.4863836 63.5485912,85.3954537 C63.920295,85.6734804 63.9953681,86.1984362 63.7188787,86.5679186 C63.554085,86.7892416 63.3013987,86.9044752 63.0468825,86.9044752 L63.046875,86.9044808 Z M63.0010987,80.2867355 L63.0029287,80.2867355 L63.0010987,80.2867355 Z" id="path439" fill="#231F20"></path>
                        <path d="M62.578125,80.1916219 C62.371215,80.1916219 62.1643069,80.1166263 62.0013431,79.9629828 C61.6644281,79.6447162 61.6497806,79.1142725 61.9683806,78.777714 L64.7424281,75.8511267 C64.8852469,75.7011356 65.0811731,75.6078538 65.2880812,75.5913919 C65.4657,75.5767823 65.68359,75.5365125 65.8264125,75.4944446 C65.820975,75.4048208 65.8080375,75.2731215 65.7843,75.1706919 C65.7202125,74.8780332 65.815425,74.5689125 66.0369862,74.3658795 L67.4029519,73.1165929 C67.6666237,72.8733199 68.0603006,72.8275921 68.3770725,73.0031817 L69.6221906,73.6945887 L70.0378406,73.3342523 C70.3875712,73.0306196 70.9167469,73.0690295 71.2225331,73.4220405 C71.5246556,73.7714011 71.486205,74.3000167 71.1364706,74.6036495 L70.2758756,75.3462722 C70.0085419,75.5730831 69.6276825,75.616981 69.3182344,75.4432195 L68.0895956,74.7609584 L67.4945025,75.3042061 C67.5164775,75.6371047 67.489065,76.0596309 67.2949181,76.4071633 C67.0092731,76.922975 66.3500944,77.1406401 65.7495075,77.2266078 L63.1878619,79.9300421 C63.0230681,80.1038018 62.7996787,80.1916069 62.5781212,80.1916069 L62.578125,80.1916219 Z" id="path447" fill="#231F20"></path>
                        <path d="M62.7740475,5.27098939 L42.8521725,5.27098939 C42.3889163,5.27098939 42.0135506,4.89602041 42.0135506,4.43325382 C42.0135506,3.97048723 42.3889163,3.59551806 42.8521725,3.59551806 L62.7740475,3.59551806 C63.2373038,3.59551806 63.6126713,3.97048723 63.6126713,4.43325382 C63.6126713,4.89602041 63.2373038,5.27098939 62.7740475,5.27098939 Z" id="path455" fill="#231F20"></path>
                        <path d="M54.1772456,9.16700869 C53.7158194,9.16700869 53.3404538,8.79386871 53.3386238,8.3329313 C53.3367919,7.87016471 53.7103275,7.49336655 54.1735838,7.49153736 L62.7703856,7.45861349 L62.7741356,7.45861349 C63.2355619,7.45861349 63.6109275,7.83175346 63.6127594,8.29269087 C63.6145894,8.75545746 63.2410538,9.13225563 62.7777975,9.13408481 L54.1809956,9.16700869 L54.1772456,9.16700869 L54.1772456,9.16700869 Z" id="path463" fill="#231F20"></path>
                        <path d="M117.539062,116.424601 L2.4609375,116.424601 C1.942749,116.424601 1.5234375,116.005734 1.5234375,115.488093 C1.5234375,114.970453 1.942749,114.551585 2.4609375,114.551585 L117.539062,114.551585 C118.057251,114.551585 118.476562,114.970453 118.476562,115.488093 C118.476562,116.005734 118.057251,116.424601 117.539062,116.424601 Z" id="path471" fill="#231F20"></path>
                    </g>
                </g>
            </g>
        </g>
    </g>
</svg>