<svg xmlns="http://www.w3.org/2000/svg" width="32" height="32" viewBox="0 0 32 32"><style>.a{fill:#485665;}.b{fill:#F6F7F8;}.c{fill:#30384C;}.d{fill:#231F20;}.e{fill:#6A738A;}.f{fill:#546187;}</style><polygon points="14.6 24.3 14.7 26 14.3 26.6 13.2 26.7 13 26.3 12.4 21.7 10.5 20.5 11.8 19.2 11.6 17.6 14.3 16.1 14.2 15.7 16.2 14.2 17.2 15.2 17.5 16.4 15.8 18.2 15 19 14.8 20.9 14.8 22.8" class="b"/><polygon points="10.5 22.1 9.8 21.4 9.6 21.2 10.7 20.5 12.4 21.2 11.5 22.2" class="c"/><polygon points="18.3 5.5 18.1 4 19.7 3.5 21 3.4 21.9 3.6 21.8 5 21.1 6.6 20.8 6.8 20.2 6.3 19.7 6.5 19.3 7.1" class="b"/><path d="M18.3 3.3L18.1 4.1C18.1 4.1 18.2 4.4 18.6 4.3 18.9 4.3 19.3 3.8 19.5 3.7 19.8 3.6 20 3.5 20.2 3.7 20.3 3.9 20.4 4 20.4 4L20.6 4.1C20.6 4.1 20.5 3.8 20.7 3.8 20.8 3.7 21.4 3.7 21.4 3.7L20.7 3.2 20.3 2.7 19.3 2.6 18.5 3 18.3 3.3 18.3 3.3Z" class="a"/><path d="M20.3 2.9C20.3 2.9 19.9 2.9 19.6 2.9 19.3 3 19 3.2 18.9 3.3 18.7 3.4 18.2 3.5 18.2 3.5 18.2 3.5 18 2.8 18 2.8L17.7 2.2 18.2 1.8 18.2 1.4 19.3 1.6 19.9 2.3 20.3 2.7 20.3 2.9Z" class="c"/><path d="M11.9 18C11.9 18 14.4 16.5 14.4 16.4 14.4 16.3 14.3 16.1 14.3 16.1 14.3 16.1 14.7 15.2 15.2 15 15.6 14.7 16.2 14.2 16.2 14.2L13.4 11.9 14.1 11.2 17 9.4 17.4 9.2C17.4 9.2 17.9 8.6 18.3 8.5 18.7 8.4 19.7 8.2 19.7 8.2L19.4 7 19 6C19 6 19.2 5.8 19 5.4 18.7 5 18.7 4.5 18 4.4 17.3 4.3 14.6 4.9 14.6 4.9L11.8 6 9.8 7.7 8.6 8.8 7.3 10.7 7.2 12.1 8 13.6 11.9 18Z" class="a"/><path d="M18.1 1.4C18.1 1.4 19 1.5 19.4 1.8 19.7 2.2 19.9 2.3 20.1 2.7 20.4 3.1 20.4 3.3 20.6 3.4 20.8 3.5 21.9 4 22 4 22.1 4.1 22.4 4.2 22.4 4.1 22.5 4 22.2 2.6 22.2 2.6L21 1.5 19.6 1.2 18 1.2 18.1 1.4 18.1 1.4Z" class="a"/><path d="M19.6 1.6C20 1.9 20.2 2.1 20.4 2.5 20.7 2.8 20.7 3.1 20.9 3.2 21.1 3.3 22.1 3.7 22.3 3.8 22.4 3.8 22.4 3.8 22.5 3.8 22.6 3.7 22.1 2.4 22.1 2.4L20.9 1.3 19.9 1 18.3 0.9 18.4 1.2C18.4 1.2 19.3 1.3 19.6 1.6Z" fill="#3D3D3D"/><path d="M19.3 3C19.3 3 19.3 3.1 19.4 3.2 19.5 3.4 19.6 3.4 19.7 3.5 19.7 3.7 19.8 6.3 19.8 6.3L20.2 6.3C20.2 6.3 20.2 4.8 20.1 4.5 20 4.3 20 3.5 20.1 3.4 20.1 3.4 20.2 3.1 20.2 3.1 20.3 3 20.1 2.7 20.1 2.7L19.3 3 19.3 3Z" class="c"/><path d="M17.8 8.3L19.6 8 21.9 10.6 23.4 11.6 24.7 13 25.3 13.2 25.7 13.4 26.5 13.7 27.1 14.7 26.9 15.3C26.9 15.3 26.5 15.7 26.3 15.7 26.1 15.8 25.6 15.6 25.6 15.6L24.8 14.7 22.9 13.1 20.6 11.8 18.6 9.4 17.8 8.3Z" class="b"/><path d="M7.4 10.6C7.4 10.6 7.6 11.6 8.5 12.8 9.4 14 12.2 17.3 12.3 17.4 12.4 17.6 14.1 16.6 14.1 16.6 14.1 16.6 11.6 12.5 10.7 11.6 9.8 10.7 8.6 9.2 8.5 9 8.4 8.8 7.4 10.6 7.4 10.6Z" fill="#35404C"/><path d="M9.8 21.1C9.8 21.1 10 21.4 10.2 21.6 10.4 21.8 10.9 22.1 11.1 22.1 11.3 22.1 11.5 22.2 11.5 22.2L12.3 23.5 12.2 24.3 11.2 23.8 9.5 22.8 9.3 22.3 9.5 21.4 9.8 21.1Z" class="a"/><path d="M13 26.4C13 26.4 13.4 26.5 13.8 26.4 14.1 26.2 14.7 26 14.7 26L15.1 26.5 14.5 27.2 13.2 27.5 13 27 13 26.4 13 26.4Z" class="c"/><path d="M6.9 31.5C3.6 31.5 0.9 28.8 0.9 25.6 0.9 22.3 3.6 19.6 6.9 19.6 10.2 19.6 12.8 22.3 12.8 25.6 12.8 28.8 10.2 31.5 6.9 31.5ZM6.9 20.1C3.9 20.1 1.4 22.5 1.4 25.6 1.4 28.6 3.9 31.1 6.9 31.1 9.9 31.1 12.4 28.6 12.4 25.6 12.4 22.5 9.9 20.1 6.9 20.1Z" class="d"/><path d="M6.9 29.8C4.5 29.8 2.6 27.9 2.6 25.6 2.6 23.2 4.5 21.3 6.9 21.3 9.2 21.3 11.2 23.2 11.2 25.6 11.2 27.9 9.2 29.8 6.9 29.8ZM6.9 21.8C4.8 21.8 3.1 23.5 3.1 25.6 3.1 27.7 4.8 29.4 6.9 29.4 9 29.4 10.7 27.7 10.7 25.6 10.7 23.5 9 21.8 6.9 21.8L6.9 21.8Z" class="d"/><path d="M25.2 29.8C22.9 29.8 21 27.9 21 25.6 21 23.2 22.9 21.3 25.2 21.3 27.6 21.3 29.5 23.2 29.5 25.6 29.5 27.9 27.6 29.8 25.2 29.8ZM25.2 21.8C23.1 21.8 21.4 23.5 21.4 25.6 21.4 27.7 23.1 29.4 25.2 29.4 27.3 29.4 29.1 27.7 29.1 25.6 29.1 23.5 27.3 21.8 25.2 21.8Z" class="d"/><path d="M13 27C13 27 13.2 27.2 13.5 27.2 13.9 27.2 14.4 27 14.6 26.9 14.8 26.7 15 26.5 15 26.5L16.1 27.1 17.1 27.4 18.1 27.6 18 28.2 17.1 28.4 15.4 28.6 14 28.5 13.1 28.6 12.8 27.6 13 27Z" fill="#363636"/><path d="M25.3 31.5C22 31.5 19.3 28.8 19.3 25.6 19.3 22.3 22 19.6 25.3 19.6 28.6 19.6 31.2 22.3 31.2 25.6 31.2 28.8 28.6 31.5 25.3 31.5ZM25.3 20.1C22.3 20.1 19.8 22.5 19.8 25.6 19.8 28.6 22.3 31.1 25.3 31.1 28.3 31.1 30.8 28.6 30.8 25.6 30.8 22.5 28.3 20.1 25.3 20.1Z" class="d"/><path d="M13.4 28.9C13 28.9 12.8 28.8 12.7 28.5 12.6 28.3 12.7 27.8 12.7 27.2L12.7 27C12.8 26.6 12.8 25.4 12.7 25 12.6 24.6 12.4 23.2 12.1 22.4 11.9 21.6 12.2 20.3 12.4 19.4L12.4 19.4C12.5 19 12.4 18.8 12.3 18.7 12.2 18.5 9.3 15.4 7.5 13.3 7 12.9 6.8 12.4 6.8 11.8 6.8 11.3 6.9 10.9 7.1 10.6 9.3 6.7 13.3 4.3 17.8 4.2 17.8 4.1 17.8 3.9 17.9 3.6 18 3.3 18 3.1 17.8 2.9 17.6 2.7 17.5 2.3 17.5 2.3 17.5 2.2 17.5 2.2 17.5 2.1 17.5 2.1 17.6 2 17.7 2L17.6 1.9C17.6 1.9 17.6 1.8 17.6 1.7 17.6 1.6 17.7 1.6 17.8 1.6L17.9 1.6 17.8 1.3C17.8 1.2 17.8 1.1 17.8 1.1 17.9 1 17.9 1 18 1 18.2 0.9 20.3 0.8 21 1.2 21.3 1.4 22.2 2 22.5 2.7 22.8 3.2 22.8 4.1 22.6 4.3 22.5 4.4 22.3 4.4 22.1 4.4 21.4 6.6 21.3 6.7 21.3 6.8 21.2 6.9 21.1 7 20.8 7.1 20.6 7.1 20.5 7 20.2 6.8 20.1 6.6 20 6.6 19.9 6.5 19.9 6.6 19.9 6.6 19.9 6.6L19.2 6.9C19.1 7 19 6.9 18.9 6.8 18.9 6.7 18.9 6.6 19 6.5L19.7 6.2C19.7 6.1 19.8 6.1 19.9 6.1 20.1 6.1 20.3 6.2 20.6 6.4 20.7 6.6 20.8 6.6 20.8 6.6 20.8 6.6 20.9 6.5 20.9 6.5 20.9 6.5 20.9 6.5 21 6.4 21 6.3 21.4 5.2 21.7 4.1 21.7 4 21.8 4 21.8 3.9 21.9 3.9 22 3.9 22 4L22.1 4C22.1 4 22.2 4 22.2 3.9 22.3 3.8 22.3 3.3 22.1 2.9 22 2.5 21.4 2 20.7 1.6 20.4 1.4 19.2 1.4 18.3 1.4L18.4 1.7C18.5 1.8 18.4 1.9 18.4 1.9 18.4 2 18.3 2 18.2 2L18.2 2 18.2 2.1C18.3 2.1 18.3 2.2 18.2 2.3 18.2 2.4 18.1 2.4 18.1 2.4L18 2.4C18.1 2.5 18.1 2.5 18.2 2.6 18.5 2.9 18.5 3.4 18.3 3.8 18.2 4.2 18.2 4.4 18.2 4.4 18.2 4.5 18.2 4.5 18.2 4.6 18.1 4.6 18.1 4.7 18 4.7 13.6 4.7 9.6 7 7.5 10.8 7.3 11.1 7.3 11.4 7.3 11.8 7.3 12.2 7.4 12.7 7.8 13 9.6 15 12.6 18.3 12.7 18.4 12.8 18.6 13 18.9 12.8 19.5L12.8 19.5C12.7 20 12.4 21.5 12.6 22.3 12.8 23.1 13.1 24.5 13.2 24.9 13.2 25.5 13.2 26.6 13.2 27L13.2 27.3C13.1 27.6 13.1 28.2 13.1 28.3 13.1 28.3 13.2 28.4 13.2 28.4 13.2 28.4 13.3 28.4 13.6 28.4 13.8 28.4 14 28.3 14.1 28.3 14.3 28.3 14.6 28.2 14.9 28.2 15.1 28.3 16.1 28.5 16.6 28.3 17.2 28.2 17.8 28 17.9 28 17.9 27.9 17.9 27.9 17.9 27.9 17.9 27.8 17.8 27.7 17.7 27.7 17.7 27.7 17.6 27.7 17.5 27.7 17.1 27.7 16.8 27.7 16.6 27.6 16.5 27.6 16.3 27.5 16.1 27.4 15.9 27.2 15.6 27.1 15.4 27 15 26.9 14.7 26.6 14.6 26.2 14.5 25.9 14.3 24.7 14.4 23.8 14.5 22.9 14.6 21.6 14.6 21.4 14.5 21.1 14.4 19.9 14.6 19.4 14.7 19.3 14.7 19.2 14.8 19.1 14.9 18.9 15 18.7 14.9 18.5 14.9 18.2 13.8 15.7 13.5 15 13.3 14.7 13.2 14.4 13 14 12.8 13.5 12.5 13 12.4 12.8 12.3 12.7 12.2 12.6 12.2 12.4 12 12.1 11.7 11.8 11.5 11.6 11.4 11.5 11.4 11.3 11.5 11.2 11.5 11.1 11.7 11.1 11.8 11.2 12.1 11.5 12.3 11.9 12.5 12.2 12.6 12.3 12.7 12.4 12.8 12.5 12.9 12.8 13.2 13.3 13.4 13.8 13.6 14.2 13.7 14.5 13.9 14.8 14.2 15.4 15.3 18 15.4 18.4 15.5 18.7 15.3 19 15.2 19.3 15.1 19.4 15.1 19.5 15.1 19.6 14.9 19.9 14.9 21 15 21.3 15.1 21.7 15 23.1 14.9 23.9 14.8 24.7 14.9 25.8 15 26.1 15.1 26.3 15.3 26.5 15.5 26.6 15.7 26.6 16.1 26.8 16.4 27 16.5 27.1 16.7 27.2 16.8 27.2 16.9 27.3 17.3 27.2 17.5 27.2 17.6 27.2 17.7 27.2 17.8 27.2 18.1 27.3 18.4 27.6 18.4 27.9 18.4 28.1 18.3 28.2 18.1 28.3 18 28.4 17.3 28.7 16.7 28.8 16.2 28.9 15.3 28.8 14.8 28.7 14.6 28.7 14.4 28.7 14.2 28.7 14.1 28.8 13.9 28.8 13.6 28.9 13.5 28.9 13.4 28.9 13.4 28.9L13.4 28.9ZM20 6.5C20 6.5 20 6.5 20 6.5 20 6.5 20 6.5 20 6.5Z" class="d"/><path d="M24.7 13L24.1 13.9 24.9 14.6 25.6 15.3C25.6 15.3 25.8 15.2 25.8 15.1 25.8 15 26.1 15 26.1 15 26.1 14.9 26.4 14.8 26.4 14.7 26.5 14.7 26.7 14.6 26.7 14.5 26.7 14.5 26.7 13.9 26.7 13.9L26.3 13.6 25.7 13.4 24.7 13Z" class="a"/><path d="M24.7 13L24.1 13.9 25 14.6 25.7 15.3C25.7 15.3 26.1 15.1 26 15 26 14.9 25.7 14.7 25.5 14.4 25.2 14.1 25.1 13.6 25.3 13.3L25.3 13.2 24.7 13 24.7 13Z" class="c"/><path d="M15.2 18.9C15.2 18.9 15.1 18.9 15 18.8 15 18.7 15 18.6 15.1 18.5 15.6 18 17 16.7 17.2 16.5 17.3 16.3 17.4 15.7 17 15.1 16.6 14.7 14 12.8 13.1 12.1 13 12 13 12 13 11.9 13 11.8 13 11.8 13.1 11.7 13.1 11.6 14.9 10.2 15.6 9.8 16.3 9.4 17.9 8.5 17.9 8.5 18 8.4 18.1 8.4 18.2 8.5 18.3 8.6 18.2 8.8 18.1 8.8 18.1 8.9 16.6 9.8 15.8 10.2 15.3 10.5 14.1 11.5 13.6 11.9 14.4 12.5 17 14.3 17.3 14.9 17.8 15.5 17.9 16.4 17.6 16.8 17.3 17.1 15.6 18.7 15.4 18.9 15.3 18.9 15.3 18.9 15.2 18.9L15.2 18.9Z" class="d"/><polygon points="15 26.5 22 19.4 22.2 19.6 23.1 22.5 25 25.2 23.3 20.8 22.6 18.3 22.1 16.7 21.5 15.1 21.2 15.7 20.8 16.5 17.2 17 15.1 17.3 14.9 17.6 15.2 17.9 20.5 17.4 21.1 17.9 21.1 18.6 19.7 20.5 17 23.4 15.6 24.8 14.6 25.7" fill="#383838"/><path d="M26.5 15.7C26.4 15.6 26.4 15.5 26.5 15.4 26.5 15.4 26.6 15.3 26.7 15.2 26.7 15.1 26.8 14.8 26.7 14.5 26.7 14.3 26.3 13.8 26.2 13.7 26 13.6 25.6 13.5 25.3 13.5 25.2 13.5 25.1 13.4 25.1 13.3 25.1 13.3 25 13.2 24.9 13.2 24.8 13.2 24.7 13.2 24.6 13.2 24.5 13.1 23.3 12 22.9 11.6 22.7 11.4 22 10.8 21.5 10.4 21 10 20.7 9.8 20.6 9.7 20.4 9.5 19.4 8.2 19.2 7.5 19.1 7.1 18.8 6.1 18.5 5.8 18.3 5.6 17.8 5.6 17.6 5.5 17.5 5.5 17.4 5.4 17.4 5.3 17.4 5.2 17.5 5.1 17.6 5.1 17.7 5.1 18.4 5.2 18.8 5.5 19.2 5.8 19.4 6.6 19.6 7.3 19.8 7.9 20.8 9.2 20.9 9.4 21 9.5 21.4 9.8 21.8 10.1 22.4 10.5 23 11 23.3 11.3 23.6 11.6 24.5 12.4 24.8 12.7 24.9 12.7 25 12.7 25.1 12.8 25.3 12.9 25.5 13 25.5 13.1 25.8 13.1 26.2 13.1 26.4 13.3 26.6 13.4 27.2 14.1 27.2 14.4 27.2 14.7 27.2 15.2 27.1 15.4 27 15.6 26.8 15.7 26.8 15.7 26.8 15.8 26.7 15.8 26.7 15.8 26.6 15.8 26.6 15.8 26.5 15.7Z" class="d"/><polygon points="19.3 17.5 19.7 16.6 18.5 16.8 17.8 17.8" class="a"/><polygon points="17.9 17.7 18.6 16.9 16.6 17.1 15.5 18" class="e"/><polygon points="20.2 21 20 20 19.2 21 19.3 22.1" fill="#969696"/><polygon points="19.3 22 19.3 20.9 17.9 22.3 17.7 23.8" fill="#BFBFBF"/><path d="M16.6 23.2L15.9 22.6 16.3 21.7 17.2 21 17.5 20.7 18 20.1 18.6 20.3 18.9 20.7 18.6 21.2C18.6 21.2 18.3 21.2 18.2 21.3 18.2 21.4 18.3 21.8 18.3 21.8 18.3 21.8 17.6 22.7 17.6 22.7 17.5 22.8 16.6 23.2 16.6 23.2Z" class="a"/><path d="M14.8 17.6C14.6 17.6 14.5 17.5 14.5 17.4 14.5 17.3 14.6 17.2 14.7 17.1 16.3 16.9 20.5 16.3 20.8 16.3 20.9 16.2 21 16.1 21 15.9 21 15.8 20.9 15.3 20.7 15 20.7 14.9 20.7 14.7 20.9 14.7 21 14.6 21.1 14.7 21.1 14.8 21.2 15 21.5 15.6 21.5 15.9 21.5 16.3 21.2 16.6 20.9 16.7 20.6 16.8 15 17.6 14.8 17.6 14.8 17.6 14.8 17.6 14.8 17.6L14.8 17.6Z" class="d"/><path d="M15.3 25.4C15.2 25.4 15.2 25.4 15.1 25.3 15 25.2 15 25.1 15.1 25 15.1 25 19 20.9 20.2 19.7 21.1 18.9 21 18.5 20.9 18.1 20.9 18.1 20.9 18 20.9 17.9 20.9 17.7 20.8 17.6 20.6 17.6L20.5 17.6 20.5 17.6C20.3 17.6 17.2 18 15.2 18.3 15 18.3 14.9 18.2 14.9 18.1 14.9 18 15 17.9 15.1 17.9 18.6 17.4 20.4 17.1 20.6 17.2L20.6 17.2C20.8 17.2 21.3 17.3 21.3 17.9 21.3 17.9 21.4 18 21.4 18.1 21.5 18.6 21.5 19.1 20.5 20 19.3 21.2 15.5 25.3 15.4 25.3 15.4 25.4 15.3 25.4 15.3 25.4L15.3 25.4Z" class="d"/><path d="M24.2 17.2C24 17.2 23.8 17.2 23.8 17.2 23.7 17.2 23.6 17 23.6 16.9 23.7 16.8 23.8 16.7 23.9 16.7 23.9 16.8 24.6 16.9 25 16.5 25.3 16.2 25.5 15.6 25.3 15.3 25.2 15 25 15 24.7 14.9 24.3 14.7 23.8 14.7 23.5 14.8L21.2 15.4C21 15.5 20.9 15.4 20.9 15.3 20.8 15.2 20.9 15 21 15L23.4 14.4C23.9 14.3 24.4 14.3 24.9 14.4 25.1 14.5 25.5 14.7 25.7 15 26 15.6 25.8 16.4 25.4 16.8 25 17.2 24.5 17.2 24.2 17.2L24.2 17.2Z" class="d"/><polygon points="10.8 17.5 11.3 17.5 11.5 18.2 10.8 19.5 7 25.4 12.6 26.5 12.4 27.1 9.2 26.7 6.5 25.7 6.5 24.8" fill="#393939"/><path d="M12.3 21.1C12.2 21.1 12.2 21 12.1 20.9L10.9 17.2C10.9 17.1 11 17 11.1 17 11.2 16.9 11.3 17 11.4 17.1L12.6 20.8C12.6 20.9 12.5 21 12.4 21.1 12.4 21.1 12.4 21.1 12.3 21.1L12.3 21.1Z" class="d"/><path d="M12.4 27.4L8.1 26.7C7.7 26.7 6.2 26.4 6 26 5.7 25.6 6.1 25.1 6.1 25L11 16.9C11 16.8 11.1 16.7 11.2 16.7 11.3 16.8 11.4 16.8 11.4 16.9L11.8 18C11.8 18.1 11.8 18.2 11.8 18.2L7.3 25.4 12.7 26.3C12.8 26.3 12.9 26.4 12.9 26.5 12.9 26.7 12.8 26.7 12.6 26.7L6.9 25.8C6.8 25.8 6.7 25.7 6.7 25.7 6.7 25.6 6.7 25.5 6.7 25.5L11.3 18.1 11.1 17.5 6.5 25.2C6.4 25.4 6.3 25.7 6.3 25.8 6.5 25.9 7.3 26.1 8.2 26.3L12.5 26.9 12.4 27.4Z" class="d"/><path d="M12.3 24.6C12.3 24.6 11.7 24.3 11.4 24.1 11.2 24 9.8 23.2 9.4 23.1 9 22.9 8.9 22.2 8.9 22 8.9 21.9 9 21.8 9.1 21.8 9.2 21.8 9.3 21.9 9.3 22 9.3 22.2 9.4 22.6 9.6 22.6 10 22.8 11.4 23.6 11.7 23.8 11.9 23.9 12.5 24.2 12.5 24.2L12.3 24.6Z" class="d"/><path d="M16.1 27.4C16.1 27.4 16.1 27.4 16.1 27.4 16 27.4 15.9 27.2 15.9 27.1 15.9 27 15.9 27 15.9 26.9 15.9 26 15.4 25.3 14.5 25.1 14.4 25.1 14.3 24.9 14.4 24.8 14.4 24.7 14.5 24.6 14.7 24.7 15.7 24.9 16.4 25.8 16.4 26.9 16.4 27 16.4 27.1 16.4 27.2 16.3 27.3 16.2 27.4 16.1 27.4L16.1 27.4Z" class="d"/><path d="M25.2 15.1C25.1 15.1 25.1 15.1 25 15.1 24.8 14.9 24.5 14.5 24.4 14.4 24.3 14.4 24.2 14.3 24.1 14.2 23.6 13.9 23.2 13.6 23.1 13.5 23 13.4 22.1 12.9 21.5 12.6 21.1 12.3 20.6 12.1 20.5 12 20 11.6 19 10.5 18.7 9.9 18.2 9.3 17.4 8.2 17.4 8.2L17.7 8C17.7 8 18.6 9.1 19 9.7 19.5 10.3 20.3 11.3 20.7 11.6 20.9 11.7 21.3 11.9 21.8 12.2 22.8 12.8 23.3 13.1 23.4 13.2 23.5 13.3 24 13.6 24.3 13.8 24.5 13.9 24.6 14 24.7 14.1 24.8 14.2 25.3 14.7 25.4 14.8 25.4 14.9 25.4 15 25.3 15.1 25.3 15.1 25.3 15.1 25.2 15.1L25.2 15.1Z" class="d"/><path d="M20.7 2.3C20.7 2.2 20.5 2 20.3 1.9 20.5 2 20.7 2 20.9 2.2 21.2 2.4 21.4 2.7 21.4 2.8 21.3 2.9 21.2 2.9 21.2 2.9 21 2.9 21 2.6 20.7 2.3Z" class="a"/><polygon points="23.2 20.3 22.4 20.8 22.3 20.3 23 19.6" class="a"/><polygon points="23.8 23.6 22.6 21.4 22.4 20.6 23 20.1 23.7 22 24.6 24" class="e"/><path d="M9.5 21.6C9.5 21.6 9.4 21.5 9.4 21.5 9.3 21.4 9.3 21.2 9.4 21.2L11.7 19.2C11.8 19.1 11.9 19.1 12 19.2 12.1 19.3 12.1 19.4 12 19.5L9.7 21.5C9.6 21.5 9.6 21.6 9.5 21.6L9.5 21.6Z" class="d"/><path d="M11.5 22.4C11.4 22.4 11.4 22.4 11.3 22.3 11.2 22.2 11.2 22.1 11.3 22L12.2 21.1C12.3 21 12.3 21 12.4 21.1 12.5 21.2 12.5 21.3 12.4 21.4L11.6 22.3C11.6 22.4 11.5 22.4 11.5 22.4L11.5 22.4Z" class="d"/><path d="M15.9 26C15.8 26 15.7 26 15.7 25.9 15.6 25.9 15.6 25.7 15.7 25.6L21.8 19.2C21.9 19.1 22 19.1 22.1 19.1 22.1 19.2 22.2 19.2 22.2 19.3 22.2 19.3 22.8 21.5 23.3 22.4 23.5 22.7 23.8 23.2 24.2 23.7 24.1 23.4 23.9 23.1 23.8 22.9 23.3 21.7 22 17.4 21.9 17.3 21.9 17.1 21.5 15.8 21.8 15.1 21.9 14.9 22.1 14.7 22.3 14.7 22.4 14.6 22.6 14.6 22.8 14.5 23 14.5 23.1 14.5 23.2 14.4 23.3 14.4 23.4 14.5 23.5 14.6 23.5 14.7 23.4 14.8 23.3 14.9 23.2 14.9 23.1 14.9 22.9 15 22.7 15 22.5 15.1 22.4 15.1 22.3 15.1 22.3 15.2 22.2 15.3 22 15.7 22.3 16.8 22.4 17.1 22.4 17.2 23.7 21.5 24.2 22.7 24.8 23.8 25.5 25.3 25.6 25.3 25.6 25.4 25.6 25.5 25.5 25.6 25.4 25.6 25.3 25.6 25.2 25.5 25.1 25.5 23.5 23.6 22.9 22.6 22.5 21.9 22.1 20.5 21.9 19.8L16 25.9C16 26 15.9 26 15.9 26L15.9 26Z" class="d"/><path d="M6.8 27C6 27 5.4 26.4 5.4 25.6 5.4 24.8 6 24.2 6.8 24.2 7.6 24.2 8.2 24.8 8.2 25.6 8.2 26.4 7.6 27 6.8 27ZM6.8 24.7C6.3 24.7 5.9 25.1 5.9 25.6 5.9 26.1 6.3 26.5 6.8 26.5 7.3 26.5 7.7 26.1 7.7 25.6 7.7 25.1 7.3 24.7 6.8 24.7Z" class="d"/><path d="M17.9 20.3C17.9 20.3 18.3 20.5 18.4 20.7 18.6 20.9 18.7 21 18.7 21L18.9 20.7 18.6 20.3 18.1 20.1 17.9 20.3Z" class="c"/><path d="M25.3 26.5C24.8 26.5 24.4 26.1 24.4 25.6 24.4 25.1 24.8 24.7 25.3 24.7 25.8 24.7 26.2 25.1 26.2 25.6 26.2 26.1 25.8 26.5 25.3 26.5ZM25.3 25.2C25.1 25.2 24.9 25.4 24.9 25.6 24.9 25.8 25.1 26 25.3 26 25.5 26 25.7 25.8 25.7 25.6 25.7 25.4 25.5 25.2 25.3 25.2Z" class="d"/><path d="M16.8 23.6C16.8 23.6 16.7 23.6 16.7 23.5 15.6 22.7 15.6 22.6 15.6 22.6 15.5 22.3 16.4 21.5 16.5 21.4 16.6 21.3 17 21.3 17.2 21.5 17.3 21.6 17.2 21.7 17.1 21.8 17 21.9 16.9 21.9 16.8 21.8 16.8 21.8 16.7 21.8 16.7 21.9 16.6 21.9 16.2 22.3 16.1 22.5 16.3 22.6 16.6 22.9 17 23.2 17.1 23.2 17.1 23.4 17 23.5 17 23.5 16.9 23.6 16.8 23.6L16.8 23.6ZM16.8 21.8L16.8 21.8 16.8 21.8Z" class="d"/><path d="M16.7 21.7C16.6 21.7 16.6 21.7 16.5 21.7 16.5 21.6 16.4 21.5 16.5 21.4L17.3 20.6C17.3 20.5 17.4 20.5 17.4 20.5 17.5 20.5 17.5 20.5 17.6 20.5 17.6 20.4 17.6 20.4 17.6 20.4 17.6 20.3 17.6 20.2 17.6 20.2L18 19.8C18.1 19.8 18.2 19.7 18.3 19.8L18.6 20 18.7 19.9C18.8 19.8 19 19.8 19 19.9 19.1 20 19.1 20.1 19 20.2L18.8 20.4C18.7 20.5 18.6 20.5 18.5 20.5L18.2 20.3 18 20.4C18 20.5 18 20.6 18 20.7 17.9 20.9 17.7 20.9 17.6 20.9L16.9 21.7C16.8 21.7 16.8 21.7 16.7 21.7L16.7 21.7Z" class="d"/><path d="M31.6 31.6L0.4 31.6C0.3 31.6 0.1 31.5 0.1 31.3 0.1 31.2 0.3 31.1 0.4 31.1L31.6 31.1C31.7 31.1 31.9 31.2 31.9 31.3 31.9 31.5 31.7 31.6 31.6 31.6Z" class="d"/></svg>