<?xml version="1.0" encoding="UTF-8"?>
<svg width="32px" height="32px" viewBox="0 0 32 32" version="1.1" xmlns="http://www.w3.org/2000/svg" xmlns:xlink="http://www.w3.org/1999/xlink">
    <!-- Generator: Sketch 41.1 (35376) - http://www.bohemiancoding.com/sketch -->
    <title>Artboard 2</title>
    <desc>Created with Sketch.</desc>
    <defs></defs>
    <g id="Page-1" stroke="none" stroke-width="1" fill="none" fill-rule="evenodd">
        <g id="Artboard-2">
            <g id="bike">
                <g id="Page-1">
                    <g id="Artboard">
                        <g id="1479231263_game_sport_cycling_bicycle_exercise_bikers_cyclists">
                            <g id="g5">
                                <g id="g4594">
                                    <ellipse id="ellipse15" fill="#485665" transform="translate(16.544926, 17.487599) rotate(-56.957142) translate(-16.544926, -17.487599) " cx="16.5449261" cy="17.4875986" rx="8.00617014" ry="7.99769801"></ellipse>
                                    <ellipse id="ellipse23" fill="#7F8893" transform="translate(11.869165, 11.335802) rotate(-56.957142) translate(-11.869165, -11.335802) " cx="11.8691647" cy="11.3358023" rx="8.00617014" ry="7.99769801"></ellipse>
                                    <polygon id="polygon35" fill="#F6F7F8" points="14.5647837 24.2817229 14.6971997 25.9536813 14.2946566 26.5515642 13.1823685 26.6626753 12.9599108 26.313469 12.3560973 21.6891297 10.5022844 20.5145265 11.7946569 19.2446852 11.6251651 17.6468023 14.2628769 16.0595007 14.1516481 15.7261674 16.2173271 14.1706118 17.170717 15.2023578 17.5044034 16.4404531 15.8200803 18.1706118 15.009699 19.0118817 14.7713515 20.9166436 14.7872414 22.8055324"></polygon>
                                    <polygon id="polygon43" fill="#30384C" points="10.5340641 22.1124114 9.75016507 21.4245801 9.63364 21.1706118 10.6505892 20.5462725 12.3560973 21.2341039 11.4662668 22.1547388"></polygon>
                                    <polygon id="polygon51" fill="#F6F7F8" points="18.32008 5.48807162 18.0658427 4.02775425 19.6654203 3.54098175 21.0425383 3.39283363 21.9111817 3.5515638 21.7946576 4.96955317 21.1272847 6.59918273 20.788301 6.77907707 20.19508 6.32405079 19.6972 6.46161676 19.3476237 7.05420952"></polygon>
                                    <path d="M18.2777078,3.26584949 L18.0764373,4.11241025 C18.0764373,4.11241025 18.1717763,4.36637852 18.5531322,4.31346828 C18.9344881,4.26055859 19.2734698,3.82669597 19.5488942,3.71029394 C19.8243186,3.59389166 20.0255892,3.53039959 20.1633003,3.69971159 C20.3010136,3.86902384 20.3539783,4.03833584 20.3539783,4.03833584 L20.5870305,4.13357421 C20.5870305,4.13357421 20.5446542,3.77378576 20.6823695,3.75262156 C20.8200807,3.73145738 21.4344868,3.66796556 21.4344868,3.66796556 L20.7035546,3.17061115 L20.2798264,2.7261667 L19.3370292,2.58860048 L18.510758,3.03304494 L18.2777078,3.26584925 L18.2777078,3.26584949 Z" id="path59" fill="#485665"></path>
                                    <path d="M20.3221986,2.91664315 C20.3221986,2.91664315 19.9196576,2.86373294 19.601861,2.927225 C19.2840644,2.99071704 19.0298271,3.16002932 18.8603342,3.29759553 C18.6908434,3.43516149 18.2141485,3.54098169 18.1823688,3.54098169 C18.1505892,3.54098169 18.012878,2.757913 18.012878,2.757913 L17.7109712,2.23410347 L18.1505892,1.83727807 L18.1717773,1.3505055 L19.2522858,1.61505585 L19.9408437,2.28172251 L20.2798275,2.72616697 L20.3221986,2.91664315 Z" id="path67" fill="#30384C"></path>
                                    <path d="M11.8794024,17.9642626 C11.8794024,17.9642626 14.3899956,16.5356912 14.3899956,16.408707 C14.3899956,16.2817229 14.2628769,16.0595007 14.2628769,16.0595007 C14.2628769,16.0595007 14.7077922,15.2499769 15.1527075,14.9642626 C15.5976227,14.6785483 16.2173271,14.1706118 16.2173271,14.1706118 L13.3730465,11.9166436 L14.1357583,11.1864848 L16.9747417,9.37166934 L17.3772847,9.20235783 C17.3772847,9.20235783 17.8698695,8.58331021 18.2830051,8.50394514 C18.6961407,8.42458007 19.7130898,8.24997689 19.7130898,8.24997689 L19.4429627,7.04362717 L18.9980475,5.99600814 C18.9980475,5.99600814 19.1887254,5.82140496 18.950378,5.40870655 C18.7120305,4.99600797 18.6517803,4.53569052 17.9986427,4.44045242 C17.3455051,4.34521432 14.6230468,4.88489687 14.6230468,4.88489687 L11.8264366,6.04891835 L9.81372439,7.6785478 L8.60609727,8.82140545 L7.27274932,10.7251093 L7.1866061,12.1441564 L8.0340634,13.6468023 L11.8794024,17.9642626 Z" id="path75" fill="#485665"></path>
                                    <path d="M18.1082169,1.42457966 C18.1082169,1.42457966 19.00864,1.51981775 19.3582163,1.83727807 C19.7077925,2.15473839 19.887878,2.31346855 20.1315207,2.69442093 C20.3751654,3.07537332 20.4493173,3.29759553 20.6399953,3.40341546 C20.8306732,3.50923566 21.8582169,3.95368011 21.9853356,4.00659007 C22.1124542,4.05950028 22.3560969,4.15473814 22.4302508,4.09124607 C22.5044027,4.02775425 22.2395729,2.57801864 22.2395729,2.57801864 L20.9895715,1.49865366 L19.6230461,1.24468541 L18.012878,1.18648437 L18.1082169,1.42457966 L18.1082169,1.42457966 Z" id="path83" fill="#485665"></path>
                                    <path d="M19.6336407,1.59389181 C19.9832169,1.91135213 20.1633003,2.07008218 20.4069451,2.45103457 C20.6505898,2.83198696 20.7247417,3.05420917 20.9154197,3.16002937 C21.1060976,3.26584955 22.1336393,3.71029399 22.260758,3.76320396 C22.3878766,3.81611393 22.4408434,3.82669603 22.5149953,3.76320396 C22.5891492,3.69971189 22.1124542,2.37696066 22.1124542,2.37696066 L20.8624529,1.29759558 L19.8984705,1.0012992 L18.2883003,0.943098159 L18.3836393,1.1811934 C18.3836393,1.1811934 19.2840644,1.27643149 19.6336407,1.59389181 Z" id="path91" fill="#3D3D3D"></path>
                                    <path d="M19.2628773,2.96955317 C19.2946569,3.0012992 19.2522858,3.06479127 19.3899959,3.21293934 C19.5277071,3.36108765 19.6336407,3.42457972 19.6654203,3.54098175 C19.6972,3.65738378 19.8243186,6.26055873 19.8243186,6.26055873 L20.19508,6.32405079 C20.19508,6.32405079 20.1527088,4.78965882 20.0891485,4.52510872 C20.0255892,4.26055862 20.0467773,3.51981779 20.0573688,3.44574365 C20.0679603,3.37166948 20.2162671,3.14944727 20.2374542,3.06479127 C20.2586373,2.98013527 20.1315207,2.69442098 20.1315207,2.69442098 L19.2628773,2.96955317 L19.2628773,2.96955317 Z" id="path99" fill="#30384C"></path>
                                    <path d="M17.8010129,8.33463262 L19.5806739,7.97484445 L21.8688095,10.5780185 L23.3730461,11.6362199 L24.728979,12.990717 L25.3433851,13.2446852 L25.6797212,13.4245801 L26.5457169,13.7261674 L27.0541915,14.7420404 L26.8794034,15.2975959 C26.8794034,15.2975959 26.4980475,15.6944213 26.2755898,15.7261674 C26.0531322,15.7579134 25.6082169,15.5515642 25.6082169,15.5515642 L24.8057805,14.6626753 L22.9228356,13.1071198 L20.5976231,11.7632041 L18.6325814,9.44045307 L17.8010129,8.33463262 Z" id="path107" fill="#F6F7F8"></path>
                                    <path d="M7.41965679,10.6203469 C7.41965679,10.6203469 7.58914864,11.6150562 8.50016578,12.8214055 C9.41118289,14.0277547 12.1866065,17.3081773 12.2713519,17.4351614 C12.3560973,17.5621455 14.0933861,16.6097646 14.0933861,16.6097646 C14.0933861,16.6097646 11.5721993,12.5039451 10.7035549,11.6150562 C9.83491154,10.7261674 8.58491119,9.20235783 8.47897863,9.01188165 C8.37304713,8.82140545 7.41965679,10.6203469 7.41965679,10.6203469 Z" id="path115" fill="#35404C"></path>
                                    <path d="M9.81372439,21.1071198 C9.81372439,21.1071198 9.9726227,21.4457448 10.1738942,21.6468023 C10.3751658,21.8478598 10.8836403,22.0595007 11.0743183,22.070082 C11.2649963,22.0806674 11.4662668,22.1547388 11.4662668,22.1547388 L12.292538,23.5303995 L12.2395722,24.2605582 L11.2226231,23.8161138 L9.49592778,22.7790781 L9.25228407,22.313469 L9.53830102,21.4351614 L9.81372439,21.1071198 Z" id="path123" fill="#485665"></path>
                                    <path d="M12.981098,26.4298718 C12.981098,26.4298718 13.4471993,26.4827804 13.7649959,26.3663797 C14.0827925,26.2499769 14.6971997,25.9536813 14.6971997,25.9536813 L15.1103353,26.4933638 L14.4853346,27.2446853 L13.192962,27.4880721 L13.0022841,26.9589709 L12.9810959,26.4298718 L12.981098,26.4298718 Z" id="path131" fill="#30384C"></path>
                                    <path d="M6.89016136,31.5142416 C3.61040125,31.5142416 0.94239939,28.8490631 0.94239939,25.5727731 C0.94239939,22.2964836 3.61040125,19.6313051 6.89016136,19.6313051 C10.169922,19.6313051 12.8379237,22.2964836 12.8379237,25.5727731 C12.8379237,28.8490631 10.169922,31.5142416 6.89016136,31.5142416 Z M6.89016136,20.0856701 C3.86116266,20.0856701 1.39724576,22.5469796 1.39724576,25.5727731 C1.39724576,28.5985671 3.8611626,31.0598766 6.89016136,31.0598766 C9.91916068,31.0598766 12.3830775,28.5985671 12.3830775,25.5727731 C12.3830775,22.5469796 9.91916068,20.0856701 6.89016136,20.0856701 Z" id="path139" fill="#231F20"></path>
                                    <path d="M6.89016136,29.837158 C4.53648043,29.837158 2.62125928,27.9239639 2.62125928,25.5727731 C2.62125928,23.2215827 4.53648043,21.3083886 6.89016136,21.3083886 C9.24384287,21.3083886 11.1585675,23.2215827 11.1585675,25.5727731 C11.1585675,27.9239639 9.24384287,29.837158 6.89016136,29.837158 Z M6.89016136,21.7627535 C4.78724179,21.7627535 3.07610565,23.4720787 3.07610565,25.5727731 C3.07610565,27.6734679 4.78724179,29.3827932 6.89016136,29.3827932 C8.99308152,29.3827932 10.7037207,27.6734679 10.7037207,25.5727731 C10.7037207,23.4720787 8.99308152,21.7627535 6.89016136,21.7627535 L6.89016136,21.7627535 Z" id="path147" fill="#231F20"></path>
                                    <path d="M25.2374536,29.837158 C22.8837725,29.837158 20.9685512,27.9239639 20.9685512,25.5727731 C20.9685512,23.2215827 22.8837725,21.3083886 25.2374536,21.3083886 C27.5911346,21.3083886 29.5063561,23.2215827 29.5063561,25.5727731 C29.5063561,27.9239639 27.5911346,29.837158 25.2374536,29.837158 Z M25.2374536,21.7627535 C23.1345339,21.7627535 21.423398,23.4720787 21.423398,25.5727731 C21.423398,27.6734679 23.1345339,29.3827932 25.2374536,29.3827932 C27.3403732,29.3827932 29.0515097,27.6734679 29.0515097,25.5727731 C29.0515097,23.4720787 27.3403732,21.7627535 25.2374536,21.7627535 Z" id="path155" fill="#231F20"></path>
                                    <path d="M13.0022841,26.9589709 C13.0022841,26.9589709 13.1717759,27.202358 13.5425383,27.1811932 C13.9133007,27.1600325 14.4217752,27.0330463 14.6124532,26.8637328 C14.8031312,26.6944213 15.0255888,26.5462725 15.0255888,26.5462725 L16.1272834,27.0647924 L17.0912678,27.4457448 L18.0552502,27.6256377 L18.0022834,28.1547387 L17.0700807,28.4192884 L15.4281319,28.5991832 L13.9980471,28.5145264 L13.0658434,28.6203479 L12.8433858,27.6150563 L13.0022841,26.9589709 Z" id="path163" fill="#363636"></path>
                                    <path d="M25.279661,31.5142416 C21.9999009,31.5142416 19.3318987,28.8490631 19.3318987,25.5727731 C19.3318987,22.2964836 21.9999009,19.6313051 25.279661,19.6313051 C28.5594213,19.6313051 31.2274235,22.2964836 31.2274235,25.5727731 C31.2274235,28.8490631 28.5594213,31.5142416 25.279661,31.5142416 Z M25.279661,20.0856701 C22.2506622,20.0856701 19.7867454,22.5469796 19.7867454,25.5727731 C19.7867454,28.5985671 22.2506622,31.0598766 25.279661,31.0598766 C28.3086598,31.0598766 30.7725765,28.5985671 30.7725765,25.5727731 C30.7725765,22.5469796 28.3086598,20.0856701 25.279661,20.0856701 Z" id="path171" fill="#231F20"></path>
                                    <path d="M13.3518603,28.8664239 C12.9779531,28.8664239 12.8299788,28.7860667 12.7157708,28.4899363 C12.636818,28.2840827 12.66562,27.8391425 12.7152741,27.2334877 L12.733152,27.0107693 C12.7664215,26.5628526 12.7768503,25.439837 12.704352,25.0187058 C12.626889,24.5722773 12.3751346,23.2300155 12.1372834,22.3912259 C11.9168119,21.6119599 12.1685647,20.3123566 12.3771207,19.4026342 L12.388541,19.3530291 C12.473949,18.978525 12.3666919,18.7900333 12.2882363,18.6526324 C12.1546625,18.471581 9.32279677,15.3644389 7.45375558,13.3222761 C7.04012323,12.9100739 6.80872762,12.3520381 6.80872762,11.7572962 C6.80872762,11.2984665 6.89860458,10.9120579 7.07637185,10.6099743 C9.25029795,6.73249576 13.3324946,4.29648407 17.7692332,4.21513489 C17.7806541,4.06731742 17.8173995,3.86741689 17.9147246,3.63725817 C18.0388636,3.3445994 18.0150288,3.0941034 17.8461995,2.9125558 C17.607852,2.65561133 17.4986093,2.31682164 17.4941403,2.30243672 C17.4742793,2.23894466 17.48272,2.16999624 17.5179725,2.11344863 C17.5487607,2.06434133 17.5974217,2.02912325 17.6530361,2.01424229 L17.5974242,1.92594865 C17.5537275,1.85600818 17.5517414,1.76771454 17.5914659,1.69529387 C17.6316868,1.62287324 17.70766,1.57823035 17.7905851,1.57823035 L17.9038,1.57823035 L17.7970407,1.25828988 C17.7746932,1.19132561 17.785122,1.11741684 17.8248491,1.05888513 C17.8645763,1.00035332 17.9291261,0.963646983 18.0001341,0.959678731 C18.2340125,0.945789714 20.3116076,0.839639059 20.9556425,1.21166293 C21.3340188,1.43090895 22.246691,2.01573039 22.5446256,2.71662324 C22.7606276,3.22505581 22.7859522,4.05739702 22.5913036,4.25184127 C22.490502,4.35303178 22.273507,4.44529367 22.0738905,4.44231745 C21.4273732,6.61047214 21.3345171,6.71017448 21.2942958,6.75382552 C21.1939915,6.87832941 21.0614108,7.04598807 20.8305115,7.05888507 C20.6443025,7.06830731 20.4501486,6.97455948 20.2435809,6.76771403 C20.0747515,6.59906338 19.9789158,6.55590858 19.9421708,6.54499607 C19.9327386,6.55144686 19.9233014,6.55739479 19.9133708,6.56285511 L19.238053,6.91206145 C19.1263275,6.97009727 18.9897746,6.92644621 18.9311805,6.81483938 C18.87358,6.703232 18.9172788,6.56583111 19.0285061,6.50829155 L19.6740303,6.17495821 C19.716732,6.13775696 19.7857559,6.09757714 19.8850671,6.08864862 C20.0961039,6.06682259 20.3066444,6.188351 20.5653507,6.44628776 C20.6959452,6.57674414 20.7977393,6.60154565 20.8041944,6.60551417 C20.8315046,6.60353321 20.8801676,6.54251783 20.9089681,6.50630755 C20.9278376,6.48250058 20.944719,6.461665 20.9606098,6.44430376 C21.0177141,6.33368838 21.389139,5.15263696 21.7039564,4.09013695 C21.7228259,4.02565307 21.7695019,3.97307368 21.8310751,3.946288 C21.8931446,3.91851048 21.9636558,3.92099021 22.0237391,3.95125055 L22.1190781,3.99886959 C22.1280171,3.99390704 22.2029963,3.9686118 22.2476861,3.94430609 C22.2834349,3.79251612 22.2938627,3.29053196 22.1255297,2.8942026 C21.9562036,2.49539312 21.4338252,2.01374629 20.7272246,1.60551213 C20.3741724,1.40114702 19.171511,1.36989704 18.323888,1.39965897 L18.435613,1.73348836 C18.4584537,1.80293282 18.4470334,1.87882565 18.4043317,1.93834946 C18.36163,1.99737722 18.2926061,2.0325955 18.2196125,2.0325955 L18.2012414,2.0325955 L18.222099,2.06582979 C18.2623193,2.13080996 18.2677803,2.21166314 18.2355075,2.28160361 C18.2037278,2.35104808 18.1386786,2.39965918 18.0627054,2.41106789 L18.0423461,2.41404439 C18.0795868,2.47753646 18.1252712,2.54450072 18.179892,2.60303248 C18.4708747,2.91652456 18.5269859,3.35799279 18.3338251,3.81483805 C18.1898236,4.15412353 18.2230926,4.40362747 18.2235893,4.40610763 C18.2330215,4.47108781 18.2136588,4.53854812 18.1704578,4.58815127 C18.1272578,4.63775431 18.064691,4.66751634 17.9986488,4.66751634 C13.6383802,4.66751634 9.60434932,7.03110755 7.47113982,10.8361676 C7.33260035,11.0717826 7.26357847,11.3803144 7.26357847,11.7572988 C7.26357847,12.2305128 7.44780136,12.6744615 7.78248084,13.0082905 C9.58001779,14.9715845 12.5961064,18.2751548 12.6805214,18.4224762 C12.7793363,18.5950954 12.9566073,18.9070994 12.8324678,19.4537265 L12.8210475,19.504322 C12.7068395,20.0003535 12.3607391,21.5097783 12.5752519,22.2672188 C12.8180683,23.1253537 13.0742917,24.488449 13.152251,24.9413257 C13.2401419,25.4507505 13.2163071,26.6461872 13.1870103,27.0445003 L13.1691324,27.270691 C13.1443036,27.571782 13.0926629,28.1977741 13.1408307,28.3272385 C13.1482798,28.3470785 13.166651,28.3942028 13.1750917,28.4056117 C13.1909815,28.4095737 13.2858237,28.4204941 13.5827653,28.4041386 C13.8002571,28.3917399 13.9616383,28.3495751 14.1170607,28.3089006 C14.343491,28.2508648 14.5565139,28.1943173 14.8594137,28.2483851 C15.1424515,28.2989806 16.1082553,28.4557261 16.6485095,28.3446151 C17.1783359,28.235488 17.7940666,28.0127696 17.8794746,27.9631664 C17.9043034,27.9467957 17.9127441,27.9408426 17.9127441,27.8585036 C17.9102526,27.8153494 17.824357,27.6982858 17.7364661,27.6943173 C17.6788656,27.6903553 17.5850159,27.6938216 17.4777598,27.6977711 C17.082997,27.7106677 16.7661934,27.7136442 16.5779983,27.6332871 C16.4856385,27.5940998 16.3207814,27.5003504 16.1330831,27.3927116 C15.8733837,27.2434061 15.5501246,27.05789 15.3649092,26.9939022 C14.9761046,26.8604698 14.6652598,26.551938 14.554031,26.1893389 C14.4616712,25.8907276 14.3037659,24.7245567 14.4189675,23.8242596 C14.5411204,22.8624538 14.6146112,21.6258469 14.5644588,21.3738626 C14.5038786,21.072771 14.4343605,19.8535253 14.6429149,19.3803109 C14.6831353,19.289537 14.7248465,19.2032274 14.764571,19.1208863 C14.8852346,18.8733663 14.9800773,18.6779302 14.945318,18.4998547 C14.8921864,18.2265412 13.8265748,15.6719787 13.4690536,15.0028318 C13.3230659,14.7295182 13.1502639,14.3530301 12.9834207,13.988447 C12.75997,13.5013435 12.5285744,12.9973755 12.3801034,12.7806095 C12.310089,12.6779312 12.2375917,12.5653318 12.1626115,12.4487644 C11.9535608,12.1233676 11.7162065,11.7543198 11.4858039,11.5534268 C11.3914585,11.4705895 11.3820237,11.3272366 11.464453,11.2324942 C11.5478749,11.1382486 11.6913797,11.1288239 11.7857256,11.211166 C12.0642944,11.4547175 12.320021,11.8520391 12.5454583,12.2032295 C12.6179556,12.3158288 12.68797,12.4249559 12.755502,12.524162 C12.9263175,12.7731703 13.1547339,13.271682 13.3970536,13.7989638 C13.5629037,14.1615629 13.729747,14.525154 13.8702731,14.788547 C14.1980007,15.4021384 15.3192268,18.041026 15.3922209,18.4125542 C15.4557802,18.739935 15.3192268,19.0216808 15.1737354,19.3197958 C15.1364948,19.3971769 15.0967692,19.4780302 15.0590307,19.5638436 C14.9115532,19.8986651 14.949788,20.9815025 15.0103697,21.284578 C15.0853498,21.6590817 14.975112,23.057891 14.8698441,23.8818001 C14.7650703,24.7047167 14.9075831,25.7925145 14.9890178,26.055907 C15.0575429,26.2791213 15.2631171,26.478526 15.5128854,26.5643398 C15.7393158,26.6422166 16.0690295,26.8317008 16.3600122,26.9983675 C16.5278485,27.0950938 16.6743329,27.1804108 16.7567612,27.2156293 C16.86799,27.2627504 17.2548085,27.2498541 17.4633624,27.243901 C17.5865083,27.2394311 17.6927719,27.2364597 17.7598066,27.239939 C18.1019348,27.2568024 18.3675929,27.5861695 18.3675929,27.8584903 C18.3675929,28.0836892 18.2936058,28.2334907 18.1282524,28.3436095 C17.9822642,28.440832 17.2558015,28.6838872 16.7398783,28.7900382 C16.1594027,28.9090861 15.2631171,28.7816065 14.7789741,28.6957923 C14.5758822,28.6600792 14.4313839,28.6968081 14.231768,28.7488675 C14.0629387,28.7930123 13.8712676,28.8426175 13.6085886,28.8574983 C13.5127529,28.8629538 13.4278417,28.8664279 13.3518685,28.8664279 L13.3518603,28.8664239 Z M19.9957956,6.49043252 C19.9952993,6.49043252 19.9952993,6.49092876 19.9952993,6.49092876 C19.9952993,6.49092876 19.9952993,6.49043252 19.9957956,6.49043252 Z" id="path179" fill="#231F20"></path>
                                    <path d="M24.728979,12.990717 L24.0907381,13.8848975 L24.948789,14.6388658 L25.6479415,15.2737864 C25.6479415,15.2737864 25.8147848,15.2420404 25.7988949,15.1071198 C25.7830051,14.9721991 26.0531322,15.0356912 26.0849119,14.9880721 C26.1166915,14.9404531 26.4027085,14.7737864 26.4265432,14.7182309 C26.4503754,14.6626753 26.72845,14.5912467 26.7363949,14.5277547 C26.7443424,14.4642626 26.6648907,13.892834 26.6648907,13.892834 L26.3073695,13.5833102 L25.6797212,13.4245801 L24.728979,12.990717 Z" id="path187" fill="#485665"></path>
                                    <path d="M24.7409429,12.990717 L24.102702,13.8848975 L24.9607529,14.6388658 L25.6599054,15.2737864 C25.6599054,15.2737864 26.0610771,15.1229928 26.0451873,14.9880721 C26.0372398,14.9206116 25.6926431,14.6993813 25.4810983,14.408707 C25.2293902,14.062847 25.1059631,13.6329316 25.3291092,13.2680295 L25.3433871,13.2446847 L24.7409449,12.9907164 L24.7409429,12.990717 Z" id="path195" fill="#30384C"></path>
                                    <path d="M15.2164325,18.9110669 C15.1543631,18.9110669 15.0927898,18.8857717 15.0476032,18.8361661 C14.9631888,18.742912 14.970637,18.5995591 15.0639913,18.5152335 C15.5953076,18.0355708 17.0154609,16.7414242 17.2026629,16.5172175 C17.347658,16.3436069 17.3695061,15.6908297 16.9712673,15.1456909 C16.6365878,14.6878537 14.0495251,12.7692028 13.0807417,12.0688061 C13.0241342,12.0276378 12.9893754,11.962655 12.9868926,11.8927147 C12.984401,11.8227743 13.014701,11.7553138 13.0683278,11.7106712 C13.1418181,11.6486669 14.8832444,10.195294 15.6136798,9.7870598 C16.3222671,9.39122641 17.8640775,8.461663 17.8794705,8.45223873 C17.9872234,8.38725841 18.1267559,8.42198096 18.1918051,8.52912355 C18.2568542,8.63676241 18.2220949,8.77614731 18.1148388,8.84112762 C18.0994473,8.85054983 16.5511798,9.7840838 15.8361375,10.1838852 C15.290918,10.4879528 14.0857737,11.4621592 13.5852441,11.8733694 C14.4254185,12.4854725 16.9528951,14.3495599 17.33872,14.8778337 C17.7920764,15.4988658 17.8918844,16.4006502 17.5522392,16.8078923 C17.3104163,17.0975751 15.5670039,18.6739637 15.3688773,18.8525354 C15.3256773,18.8917227 15.2710554,18.9110669 15.2164341,18.9110669 L15.2164325,18.9110669 Z" id="path203" fill="#231F20"></path>
                                    <polygon id="polygon211" fill="#383838" points="15.0255888 26.5462725 21.9959281 19.361088 22.165419 19.5938916 23.0976237 22.5145265 25.0467756 25.1811931 23.3094868 20.8425702 22.6315214 18.345215 22.1018597 16.6732566 21.5298258 15.0647914 21.1696569 15.6785483 20.8094881 16.5039451 17.2077919 17.0118817 15.1209278 17.2817229 14.8666905 17.5674372 15.1527074 17.9483896 20.5234712 17.376961 21.1113949 17.8690245 21.0955051 18.5991832 19.6654203 20.5039451 16.9959288 23.361088 15.5764366 24.8425702 14.6230468 25.731459"></polygon>
                                    <path d="M26.5136058,15.7191035 C26.4212459,15.6342822 26.4147909,15.490433 26.4997041,15.3976752 C26.5021956,15.3951863 26.609443,15.2781313 26.6973339,15.1610677 C26.728122,15.0990639 26.7529483,14.7786276 26.7320932,14.4547185 C26.7201746,14.2989648 26.3244202,13.7518415 26.1521144,13.6536274 C26.0438652,13.5921194 25.6426468,13.5385478 25.3327951,13.5246593 C25.2225593,13.5196815 25.1336759,13.4368615 25.1182824,13.3307109 C25.0696213,13.2945001 24.981729,13.237953 24.8749697,13.1799172 C24.7870788,13.2434093 24.6544981,13.2310085 24.575049,13.158589 C24.5229105,13.1104721 23.2914487,11.9820018 22.9279687,11.5757516 C22.7338148,11.3589857 22.0411173,10.8366644 21.4849732,10.4170215 C20.9784853,10.0350771 20.6879993,9.81434259 20.5981224,9.71464024 C20.4397203,9.53854934 19.4029092,8.18884673 19.1928654,7.46712024 C19.0861056,7.09906438 18.8020747,6.1218819 18.4932161,5.83418362 C18.28069,5.63626717 17.7692358,5.55094959 17.5899786,5.53458031 C17.4648461,5.52366983 17.3724868,5.41305245 17.3839076,5.28805283 C17.3948297,5.16305269 17.5184744,5.06533429 17.6302,5.08219938 C17.7121315,5.08914286 18.4390915,5.16206069 18.8040609,5.50184228 C19.1556237,5.82971938 19.408868,6.57922338 19.6298358,7.34013614 C19.80661,7.947775 20.7604966,9.21513652 20.9362778,9.41057269 C21.0013265,9.48249752 21.4040347,9.78606883 21.7590731,10.0544223 C22.3609005,10.508291 23.0431697,11.0226763 23.2671171,11.2726761 C23.5576031,11.5970809 24.475241,12.4477755 24.7816168,12.7305133 C24.87199,12.7141425 24.9802396,12.7205933 25.0909717,12.7801183 C25.331802,12.910079 25.4524656,13.0043251 25.512549,13.0802179 C25.7558617,13.0985697 26.1799219,13.1461902 26.3775517,13.2587891 C26.6422163,13.410079 27.1636016,14.0812099 27.1859463,14.425952 C27.201338,14.6590867 27.219216,15.224067 27.0618075,15.4338885 C26.9595167,15.5693049 26.8353771,15.705218 26.8353771,15.705218 C26.790189,15.7538276 26.7291141,15.7786306 26.6675409,15.7786306 C26.6124207,15.7786276 26.5573025,15.7587876 26.5136058,15.7191035 Z" id="path219" fill="#231F20"></path>
                                    <polygon id="polygon227" fill="#485665" points="19.2522847 17.4986535 19.7183851 16.6203479 18.4683858 16.8319868 17.7692332 17.7843678"></polygon>
                                    <polygon id="polygon235" fill="#6A738A" points="17.8613485 17.731459 18.6060969 16.8531515 16.6088159 17.0647924 15.4916912 18.0171733"></polygon>
                                    <polygon id="polygon243" fill="#969696" points="20.2151266 20.9572541 20.0052847 19.9855162 19.1856334 20.9517379 19.2649798 22.1300942"></polygon>
                                    <polygon id="polygon251" fill="#BFBFBF" points="19.3013215 22.0303507 19.3046175 20.8793112 17.9133725 22.3263848 17.6730115 23.773695"></polygon>
                                    <path d="M16.635758,23.1917765 L15.9260129,22.5780185 L16.2967763,21.7420404 L17.1654197,21.0013003 L17.5467756,20.6626753 L18.0022834,20.0912467 L18.6378766,20.2605582 L18.9344881,20.7473321 L18.5955044,21.1706118 C18.5955044,21.1706118 18.2988949,21.1706118 18.2353356,21.3081773 C18.1717763,21.4457448 18.3094875,21.8266971 18.3094875,21.8266971 C18.3094875,21.8266971 17.6103349,22.6944213 17.5679627,22.7367487 C17.5255864,22.7790801 16.635758,23.1917765 16.635758,23.1917765 Z" id="path259" fill="#485665"></path>
                                    <path d="M14.7551312,17.5881503 C14.6434056,17.5881503 14.5460805,17.5058088 14.5301907,17.3922179 C14.5133093,17.2677135 14.6002051,17.1531302 14.7243446,17.1357694 C16.3222656,16.9155312 20.5216498,16.3321981 20.7629764,16.2816025 C20.9382614,16.2444013 21.0271452,16.1322982 21.0271452,15.9482702 C21.0271452,15.7930123 20.8508673,15.2925161 20.7262315,14.9864645 C20.678562,14.8703934 20.7346722,14.7374568 20.8508673,14.690334 C20.9670619,14.6427149 21.1001388,14.698273 21.147312,14.8148378 C21.2034227,14.9517425 21.4819915,15.6491632 21.4819915,15.9482702 C21.4819915,16.3470786 21.2421543,16.6451942 20.8563293,16.726047 C20.5504503,16.790531 15.0217824,17.5534278 14.7869108,17.5861663 C14.7759888,17.5876394 14.76556,17.5881473 14.7551312,17.5881473 L14.7551312,17.5881503 Z" id="path267" fill="#231F20"></path>
                                    <path d="M15.264102,25.3818011 C15.2084876,25.3818011 15.1523769,25.3614634 15.1081834,25.3202931 C15.0168166,25.2344798 15.0123476,25.0906306 15.0982529,24.9988648 C15.1369834,24.9576965 18.9922544,20.8550151 20.1586671,19.722079 C21.0539596,18.8515429 20.9864281,18.488448 20.9208822,18.1367614 C20.9054907,18.0514438 20.8905924,17.9686065 20.8846331,17.8847771 C20.8702331,17.6774359 20.7778732,17.6437059 20.5539263,17.6114636 L20.4829183,17.6005531 L20.482422,17.6005531 C20.2604607,17.6005531 17.1808132,18.0182116 15.168763,18.3004536 C15.0461134,18.3163266 14.9289263,18.2315053 14.9115466,18.1070014 C14.8941669,17.9824975 14.9810647,17.8674179 15.1052037,17.8500571 C18.5865664,17.3624579 20.420352,17.1318029 20.5643535,17.1531322 L20.6189749,17.1615639 C20.8046876,17.1883474 21.2972724,17.2592823 21.3384863,17.8530321 C21.3429608,17.9204927 21.3558659,17.9859688 21.3682778,18.0539251 C21.4656029,18.5757506 21.4651066,19.0861669 20.4754681,20.0474768 C19.3170003,21.1739647 15.4686817,25.2687065 15.4299502,25.3103736 C15.3852603,25.3579926 15.3246802,25.3818022 15.2641,25.3818022 L15.264102,25.3818011 Z" id="path275" fill="#231F20"></path>
                                    <path d="M24.1743247,17.2280315 C23.9846398,17.2280315 23.8475902,17.2017407 23.8128309,17.1942994 C23.6901812,17.1680086 23.6117256,17.046978 23.6380427,16.9244582 C23.6643614,16.8019383 23.7830378,16.7220775 23.9081698,16.749855 C23.9359783,16.755808 24.5884534,16.8897361 25.0363478,16.4522362 C25.3332893,16.1620587 25.5274432,15.6263441 25.3233578,15.266721 C25.1997151,15.049955 24.9593815,14.9611657 24.7269929,14.8758481 C24.2522841,14.7007487 23.8063758,14.748864 23.5173797,14.8197963 L21.1532708,15.4378519 C21.0301244,15.469598 20.9074747,15.3971764 20.8756951,15.2756495 C20.8439154,15.1541222 20.9164137,15.030114 21.0380693,14.998368 L23.4056541,14.3793204 C23.9131356,14.2553122 24.424093,14.279618 24.8844014,14.4492607 C25.1495632,14.546979 25.5125464,14.6809077 25.7186175,15.042019 C26.0463451,15.6184076 25.7757217,16.3659266 25.3541444,16.777633 C24.9708024,17.1521366 24.4965903,17.22803 24.1743247,17.22803 L24.1743247,17.2280315 Z" id="path283" fill="#231F20"></path>
                                    <polygon id="polygon291" fill="#393939" points="10.7671142 17.4880721 11.2914786 17.4563261 11.4948334 18.2278217 10.7512244 19.5039451 7.03300458 25.3531515 12.6103346 26.5356912 12.3719871 27.1388659 9.20991083 26.7499769 6.4768605 25.7182309 6.45302576 24.829342"></polygon>
                                    <path d="M12.345339,21.0802138 C12.2495032,21.0802138 12.160123,21.019202 12.1288402,20.9229719 L10.9326339,17.240928 C10.8934051,17.1218804 10.9584542,16.993408 11.0781247,16.954718 C11.1972985,16.9145402 11.325907,16.9800132 11.3646385,17.1000549 L12.5618378,20.7830908 C12.5596514,20.9026347 12.5350259,21.0306108 12.4153534,21.0693013 C12.3920144,21.0767426 12.3686754,21.0802118 12.345339,21.0802118 L12.345339,21.0802138 Z" id="path299" fill="#231F20"></path>
                                    <path d="M12.4168432,27.395194 L8.09480933,26.7285272 C7.66181169,26.6620592 6.22874728,26.4145392 5.970041,26.0266423 C5.70537595,25.6303131 6.0529661,25.0514438 6.09318747,24.986464 L10.9743446,16.8525354 C11.0190344,16.7781303 11.0999734,16.7374558 11.1913402,16.7434082 C11.2787342,16.75184 11.3532176,16.8093806 11.3835074,16.8917217 L11.7916778,18.0132495 C11.81551,18.0792218 11.8075676,18.1521382 11.7703269,18.2116622 L7.26506321,25.4031304 L12.7103093,26.2796185 C12.8344488,26.2994585 12.9188637,26.4160274 12.8985049,26.540035 C12.8786439,26.6640432 12.7594686,26.7478725 12.637812,26.728031 L6.85391374,25.7969798 C6.77843729,25.7850738 6.71438118,25.7359675 6.68309831,25.6665234 C6.65131864,25.5970789 6.65677966,25.5167218 6.69749831,25.4522377 L11.325907,18.0643408 L11.1188429,17.4958882 L6.48149475,25.224063 C6.37920439,25.3887457 6.2779066,25.6690037 6.34841779,25.774658 C6.46163271,25.9110669 7.3107456,26.1481702 8.16432746,26.2791228 L12.4863614,26.9457895 L12.4168432,27.395194 Z" id="path307" fill="#231F20"></path>
                                    <path d="M12.3299459,24.6253526 C12.3299459,24.6253526 11.7196768,24.3044201 11.4465705,24.1442017 C11.1531054,23.9720787 9.75678644,23.1833884 9.44693475,23.0653328 C8.97371577,22.8852734 8.87142492,22.2027337 8.87142492,22.0435073 C8.87142492,21.9180114 8.97321898,21.8163251 9.09884781,21.8163251 C9.22447713,21.8163251 9.32627119,21.9180114 9.32627119,22.0435073 C9.32627119,22.1655314 9.42657595,22.5712853 9.6088122,22.6407294 C9.97129915,22.7786265 11.4445844,23.6159279 11.676973,23.7523368 C11.944121,23.9090829 12.5409827,24.223071 12.541479,24.2235667 L12.3299459,24.6253526 Z" id="path315" fill="#231F20"></path>
                                    <path d="M16.1370497,27.3818012 C16.1271192,27.3818012 16.1171886,27.3813049 16.1072581,27.3798202 C15.9826224,27.3639471 15.894732,27.2498595 15.9111181,27.1253557 C15.9210487,27.0464869 15.9265097,26.9666255 15.9265097,26.8847802 C15.9265097,26.0430146 15.3579517,25.3064071 14.5440944,25.0931134 C14.4224378,25.0613674 14.3499405,24.9368635 14.3817202,24.8158319 C14.4134998,24.694304 14.5356527,24.6218834 14.6592954,24.6536295 C15.6732654,24.9195027 16.3813559,25.8366654 16.3813559,26.8847802 C16.3813559,26.9864665 16.3748983,27.0861694 16.3619881,27.1838872 C16.3475881,27.2984705 16.2492695,27.3818042 16.1370476,27.3818042 L16.1370497,27.3818012 Z" id="path323" fill="#231F20"></path>
                                    <path d="M25.1952461,15.1437069 C25.1341697,15.1437069 25.0730932,15.1194022 25.0279066,15.0707901 C24.8367319,14.8639446 24.4921214,14.5048178 24.3803958,14.4214847 C24.3297466,14.3832879 24.2115665,14.3029328 24.0665719,14.2047187 C23.6102358,13.8942029 23.2214312,13.6263457 23.0848783,13.4899368 C22.9751388,13.3872584 22.103681,12.8927147 21.5271781,12.5658296 C21.0544559,12.2974766 20.6462856,12.0663258 20.4734836,11.9537265 C19.9853683,11.6362662 19.0483646,10.4919213 18.6550915,9.94975848 C18.2116656,9.33765538 17.3670217,8.240929 17.3665254,8.24043276 L17.7270258,7.963647 C17.7270258,7.963647 18.5771317,9.06731783 19.0235368,9.68289321 C19.4739141,10.3039248 20.337427,11.3232701 20.7217625,11.5727741 C20.8831437,11.6779327 21.3052173,11.9170204 21.7516219,12.1704924 C22.8221993,12.7776356 23.2884664,13.0504528 23.4066471,13.1685084 C23.5238347,13.2855721 24.0238676,13.6258499 24.3227953,13.8287269 C24.4757348,13.9328935 24.6003705,14.0177148 24.6535025,14.0578931 C24.8347458,14.1928137 25.3089578,14.7047187 25.3625861,14.7622583 C25.4474973,14.8545204 25.4420353,14.9983695 25.3496759,15.0836871 C25.3059776,15.1238649 25.2503647,15.1437069 25.1952466,15.1437069 L25.1952461,15.1437069 Z" id="path331" fill="#231F20"></path>
                                    <path d="M20.7459288,2.28172251 C20.6602183,2.16789968 20.5342946,2.04229831 20.3433858,1.93251617 C20.4860958,1.95490093 20.7152276,2.01164124 20.9366068,2.17590232 C21.1838536,2.35935731 21.4416578,2.69193712 21.3576873,2.82934156 C21.3232076,2.88576203 21.2317636,2.90819683 21.1590644,2.89283363 C20.9711505,2.85312214 20.9651393,2.5728355 20.7459288,2.28172251 Z" id="path339" fill="#485665"></path>
                                    <path id="path347" fill="#546187"></path>
                                    <path id="path355" fill="#546187"></path>
                                    <polygon id="polygon363" fill="#485665" points="23.2141478 20.2817229 22.3666915 20.8108241 22.3455044 20.2817229 23.0022847 19.5621455"></polygon>
                                    <polygon id="polygon371" fill="#6A738A" points="23.7649966 23.5991832 22.6209288 21.361088 22.4461407 20.5991832 23.0022847 20.1388658 23.7332169 22.0118817 24.6071576 23.9960086"></polygon>
                                    <path d="M9.52787322,21.5673168 C9.4643139,21.5673168 9.40075458,21.5405333 9.35556797,21.488448 C9.27363593,21.3937057 9.28406373,21.2498565 9.37940016,21.1680112 L11.6883913,19.1784279 C11.7822405,19.0960869 11.926242,19.1069994 12.0091671,19.2022349 C12.0910991,19.2969773 12.0806713,19.4408264 11.9853349,19.5226718 L9.67634424,21.512255 C9.63364255,21.5494562 9.58050847,21.5673143 9.52787322,21.5673143 L9.52787322,21.5673168 Z" id="path379" fill="#231F20"></path>
                                    <path d="M11.4664325,22.3818011 C11.4093288,22.3818011 11.3527214,22.3604729 11.3085273,22.3183091 C11.2181541,22.2310075 11.2156712,22.0871583 11.302568,21.9968802 L12.1923985,21.0762453 C12.2802888,20.9859678 12.3424173,20.9844795 12.4322942,21.0702923 C12.522668,21.1575939 12.5251503,21.301443 12.4382536,21.3917206 L11.6302961,22.3123556 C11.5856063,22.3584863 11.5260191,22.3818001 11.4664325,22.3818011 L11.4664325,22.3818011 Z" id="path387" fill="#231F20"></path>
                                    <path d="M15.8520258,26.0008488 C15.7954183,26.0008488 15.7388108,25.9800132 15.6946173,25.9378524 C15.6037473,25.8510471 15.6007681,25.707198 15.6876664,25.6164241 L21.8315688,19.2037257 C21.8891693,19.1442017 21.9760671,19.1213846 22.0540264,19.1412257 C22.1344686,19.1625539 22.1965381,19.2255512 22.2164007,19.3059083 C22.2218617,19.3277343 22.7660897,21.487456 23.294923,22.4011464 C23.4885802,22.735968 23.8336875,23.2002535 24.1956776,23.6566029 C24.0670692,23.3927137 23.9404473,23.1228724 23.8272324,22.8654319 C23.3033642,21.6764439 21.99295,17.4487655 21.9373356,17.2692018 C21.8891678,17.1218804 21.4670958,15.7771393 21.8315688,15.0702938 C21.9343559,14.8703934 22.0962339,14.7315042 22.298829,14.6680122 C22.4050925,14.6347779 22.6210946,14.5807106 22.8246832,14.5301156 C22.9711676,14.4939048 23.1111969,14.4591827 23.1931285,14.4358695 C23.3152819,14.4011469 23.4399176,14.4720802 23.4741802,14.5926156 C23.5084412,14.7136472 23.437931,14.8391431 23.317268,14.8733694 C23.23186,14.8976742 23.0868654,14.9333892 22.9344222,14.971584 C22.7412614,15.019203 22.5361834,15.0697981 22.4348856,15.1015441 C22.3474915,15.1288254 22.2839322,15.1853735 22.2357664,15.2786276 C21.9999019,15.7364648 22.2536444,16.771682 22.3713263,17.1318009 C22.3857263,17.1789222 23.7304036,21.517218 24.2433471,22.6819002 C24.7577805,23.8495589 25.5453202,25.2682098 25.5532651,25.2820988 C25.6093758,25.3837851 25.5800769,25.5112655 25.485733,25.5782298 C25.3913871,25.6451937 25.2607931,25.6298169 25.1838263,25.5435073 C25.1133141,25.4641422 23.4563027,23.5896381 22.9006554,22.6283286 C22.4785819,21.8986662 22.0664393,20.4973765 21.8792373,19.8113646 L16.0163866,25.9309084 C15.9716968,25.977537 15.9121092,26.0008488 15.8520258,26.0008488 L15.8520258,26.0008488 Z" id="path395" fill="#231F20"></path>
                                    <ellipse id="circle403" fill="#30384C" cx="6.81584323" cy="25.5938916" rx="1.16860602" ry="1.1673694"></ellipse>
                                    <path d="M6.81567797,27.0152335 C6.03111745,27.0152335 5.39304136,26.3778326 5.39304136,25.5941023 C5.39304136,24.8103726 6.03111745,24.1724754 6.81567797,24.1724754 C7.60023848,24.1724754 8.23881085,24.8103726 8.23881085,25.5941023 C8.23881085,26.3778326 7.60023848,27.0152335 6.81567797,27.0152335 Z M6.81567797,24.6804124 C6.31167238,24.6804124 5.90151593,25.0901343 5.90151593,25.5941029 C5.90151593,26.0975751 6.31167238,26.507297 6.81567797,26.507297 C7.32018034,26.507297 7.73033627,26.0975751 7.73033627,25.5941029 C7.73033627,25.0901343 7.32018034,24.6804124 6.81567797,24.6804124 Z" id="path409" fill="#231F20"></path>
                                    <path d="M17.9254839,20.329342 C17.9254839,20.329342 18.2750602,20.4721991 18.4339585,20.6785483 C18.5928568,20.8848975 18.6961407,21.0436277 18.6961407,21.0436277 L18.9344881,20.7473321 L18.6378766,20.2605582 L18.100272,20.1150562 L17.9254839,20.329342 Z" id="path417" fill="#30384C"></path>
                                    <ellipse id="circle425" fill="#30384C" cx="25.2731225" cy="25.5938916" rx="0.652558883" ry="0.651868342"></ellipse>
                                    <path d="M25.2732059,26.4998568 C24.7731725,26.4998568 24.3664925,26.0936066 24.3664925,25.5941029 C24.3664925,25.0945986 24.7731725,24.6878527 25.2732059,24.6878527 C25.7732388,24.6878527 26.1799193,25.0945986 26.1799193,25.5941029 C26.1799193,26.0936066 25.7732388,26.4998568 25.2732059,26.4998568 Z M25.2732059,25.1957892 C25.0537275,25.1957892 24.8749671,25.3743604 24.8749671,25.5941029 C24.8749671,25.8133486 25.0537275,25.9919202 25.2732059,25.9919202 C25.4926839,25.9919202 25.6714447,25.8133486 25.6714447,25.5941029 C25.6714447,25.3743604 25.4926839,25.1957892 25.2732059,25.1957892 Z" id="path431" fill="#231F20"></path>
                                    <path d="M16.8262712,23.5673168 C16.7786017,23.5673168 16.7309322,23.5524343 16.6902146,23.5221765 C15.6191409,22.7220775 15.5992783,22.6432081 15.5784227,22.5593788 C15.503443,22.2632478 16.3798661,21.483486 16.459812,21.4433077 C16.6499932,21.3485653 17.0134732,21.280609 17.1783303,21.4998552 C17.2533105,21.6005496 17.2329517,21.7429105 17.132649,21.8183076 C17.0457517,21.8822954 16.9270742,21.8763434 16.8481219,21.8088853 C16.808893,21.8039076 16.7309342,21.8163266 16.6629059,21.8500536 C16.5690568,21.9075931 16.2294115,22.2716805 16.079948,22.466621 C16.2552324,22.6179109 16.6326161,22.9115617 16.9623298,23.1580891 C17.0631308,23.2334862 17.0834897,23.3758471 17.0085095,23.4760457 C16.9638197,23.5360655 16.8952946,23.5673153 16.8262732,23.5673153 L16.8262712,23.5673168 Z M16.8138573,21.772674 L16.8143535,21.772674 L16.8138573,21.772674 Z" id="path439" fill="#231F20"></path>
                                    <path d="M16.6991525,21.7468805 C16.6430414,21.7468805 16.5869307,21.7265427 16.5427371,21.6848767 C16.4513703,21.5985671 16.4473981,21.454718 16.5337981,21.3634479 L17.2860822,20.5697971 C17.3248127,20.5291215 17.3779452,20.5038248 17.4340559,20.4993605 C17.4822237,20.4953986 17.5413125,20.484478 17.5800441,20.4730697 C17.5785695,20.448765 17.575061,20.4130499 17.5686237,20.3852724 C17.5512441,20.3059073 17.5770644,20.222078 17.6371488,20.1670182 L18.0075802,19.8282286 C18.0790844,19.7622562 18.1858442,19.7498555 18.2717485,19.797473 L18.6094076,19.9849732 L18.7221263,19.8872549 C18.8169685,19.8049138 18.9604737,19.81533 19.0433988,19.9110618 C19.1253303,20.0058037 19.1149031,20.1491571 19.0200598,20.2314982 L18.7866781,20.4328874 C18.7141809,20.4943954 18.6108969,20.5062999 18.5269788,20.4591782 L18.1937886,20.2741582 L18.0324075,20.4214796 C18.0383668,20.5117572 18.0309329,20.6263406 17.9782829,20.7205867 C17.9008198,20.8604678 17.7220595,20.9194956 17.5591885,20.9428089 L16.8645049,21.6759436 C16.8198151,21.7230649 16.7592349,21.7468764 16.6991515,21.7468764 L16.6991525,21.7468805 Z" id="path447" fill="#231F20"></path>
                                    <path id="path455" fill="#231F20"></path>
                                    <path id="path463" fill="#231F20"></path>
                                    <path d="M31.6038134,31.5727732 L0.396186441,31.5727732 C0.255660746,31.5727732 0.141949153,31.4591821 0.141949153,31.3188049 C0.141949153,31.1784279 0.255660746,31.0648366 0.396186441,31.0648366 L31.6038134,31.0648366 C31.7443393,31.0648366 31.8580507,31.1784279 31.8580507,31.3188049 C31.8580507,31.4591821 31.7443393,31.5727732 31.6038134,31.5727732 Z" id="path471" fill="#231F20"></path>
                                </g>
                            </g>
                        </g>
                    </g>
                </g>
            </g>
        </g>
    </g>
</svg>