<svg width="413" height="370" viewBox="0 0 413 370" xmlns="http://www.w3.org/2000/svg"><title>cssom-tree</title><g fill="none" fill-rule="evenodd"><path fill="#D8D8D8" d="M127 20h153v52H127z"/><path d="M168.96 42.71c.642-.94 1.433-1.674 2.374-2.2.94-.525 1.998-.794 3.17-.805.942 0 1.797.136 2.566.407.77.27 1.425.694 1.967 1.27.542.575.96 1.303 1.254 2.183.294.88.44 1.923.44 3.13V58h-3.07V46.66c0-1.47-.352-2.567-1.055-3.286-.703-.72-1.707-1.074-3.013-1.062-.985 0-1.88.24-2.68.722a5.772 5.772 0 0 0-1.952 1.917V58h-3.07V32.5h3.07v10.21zm24.603-7.023v4.35h6.84v2.374h-6.84v9.763c0 .697.09 1.273.266 1.726.176.453.42.816.73 1.087.31.27.666.462 1.07.573.404.11.833.166 1.287.166.332 0 .675-.02 1.03-.06.353-.037.7-.084 1.037-.14a22.9 22.9 0 0 0 .946-.174c.293-.06.534-.113.722-.158l.432 2.175c-.255.154-.564.29-.93.406a10.47 10.47 0 0 1-1.195.3 14.09 14.09 0 0 1-1.37.19c-.482.044-.96.066-1.437.066-.797 0-1.54-.113-2.233-.34a4.628 4.628 0 0 1-1.8-1.08c-.51-.492-.91-1.128-1.204-1.91-.294-.78-.44-1.722-.44-2.83v-9.76h-4.715v-2.375h4.716v-4.35h3.087zm14.543 4.35l.083 1.693a4.046 4.046 0 0 1 1.435-1.477c.593-.354 1.31-.537 2.15-.548 1.65 0 2.75.642 3.304 1.926a4.1 4.1 0 0 1 1.402-1.385c.58-.35 1.287-.53 2.117-.54 1.316 0 2.328.404 3.037 1.212.708.808 1.062 2.03 1.062 3.67V58h-2.923V44.553c0-1.505-.69-2.253-2.075-2.24-.365 0-.68.048-.946.148-.266.1-.487.236-.664.408-.177.17-.316.37-.415.597-.1.227-.166.462-.2.706V58h-2.92V44.536c0-.72-.162-1.273-.483-1.66-.32-.387-.83-.576-1.527-.564-.642 0-1.14.127-1.494.38a2.223 2.223 0 0 0-.78 1.014V58h-2.922V40.037h2.756zM227.58 32.5h9.18v22.844h5.86V58h-15.04v-2.656h6.11v-20.17h-6.11V32.5z" fill="#525252"/><path fill="#D8D8D8" d="M127 112h153v52H127z"/><path d="M181.112 141.218c0 1.284-.155 2.482-.465 3.594-.31 1.112-.763 2.078-1.36 2.897a6.436 6.436 0 0 1-2.217 1.925c-.88.465-1.89.697-3.03.697-1.15 0-2.15-.205-2.997-.614a6.093 6.093 0 0 1-2.166-1.76l-.15 2.042h-2.822v-25.5h3.072v9.463a5.89 5.89 0 0 1 2.125-1.677c.83-.387 1.798-.58 2.905-.58 1.15 0 2.17.226 3.055.68a6.318 6.318 0 0 1 2.224 1.892c.598.808 1.052 1.774 1.36 2.897.31 1.124.466 2.355.466 3.694v.348zm-3.07-.35c0-.873-.087-1.706-.258-2.497-.172-.79-.446-1.488-.822-2.09a4.22 4.22 0 0 0-1.478-1.437c-.608-.354-1.355-.53-2.24-.53-.532 0-1.02.068-1.462.206a4.16 4.16 0 0 0-1.187.58c-.348.25-.658.542-.93.88-.27.338-.5.706-.688 1.104v7.853c.2.398.434.766.705 1.104.27.338.584.634.938.89.354.253.753.45 1.195.588.443.138.93.208 1.46.208.843 0 1.565-.175 2.168-.523a4.265 4.265 0 0 0 1.477-1.42c.382-.597.664-1.29.847-2.075.183-.786.274-1.616.274-2.49v-.35zm7.387-.015c0-1.295.187-2.5.563-3.61.376-1.114.916-2.08 1.62-2.898a7.538 7.538 0 0 1 2.564-1.934c1.007-.47 2.14-.705 3.403-.705 1.273 0 2.416.235 3.428.706a7.517 7.517 0 0 1 2.574 1.935c.702.82 1.242 1.784 1.618 2.897.376 1.112.565 2.316.565 3.61v.366c0 1.295-.19 2.496-.565 3.602-.376 1.107-.916 2.07-1.618 2.89a7.446 7.446 0 0 1-2.565 1.925c-1.008.465-2.142.697-3.404.697-1.273 0-2.415-.232-3.428-.697a7.426 7.426 0 0 1-2.573-1.926c-.703-.82-1.243-1.783-1.62-2.89-.375-1.106-.563-2.307-.563-3.602v-.365zm3.07.365c0 .885.105 1.73.315 2.532a6.55 6.55 0 0 0 .955 2.116c.426.61.96 1.09 1.602 1.445.642.355 1.39.532 2.24.532.842 0 1.58-.177 2.218-.53a4.737 4.737 0 0 0 1.593-1.446 6.55 6.55 0 0 0 .955-2.116 9.95 9.95 0 0 0 .315-2.532v-.365c0-.875-.108-1.713-.323-2.516a6.682 6.682 0 0 0-.963-2.116 4.82 4.82 0 0 0-1.594-1.452c-.636-.36-1.38-.54-2.233-.54-.852 0-1.594.18-2.225.54-.63.36-1.16.844-1.585 1.453a6.55 6.55 0 0 0-.955 2.117 9.882 9.882 0 0 0-.315 2.516v.365zm17.614-.35c0-1.338.17-2.57.507-3.693.338-1.123.82-2.09 1.445-2.897a6.708 6.708 0 0 1 2.266-1.892c.886-.454 1.877-.68 2.973-.68 1.073 0 2.01.18 2.814.54.802.358 1.497.88 2.083 1.567V124.5h3.07V150h-2.82l-.134-1.893a5.874 5.874 0 0 1-2.14 1.66c-.83.377-1.8.565-2.906.565-1.085 0-2.067-.232-2.947-.697a6.752 6.752 0 0 1-2.25-1.926c-.62-.82-1.1-1.786-1.444-2.898-.344-1.112-.516-2.31-.516-3.594v-.35zm3.072.35c0 .874.094 1.704.282 2.49.188.786.478 1.478.87 2.075.394.598.895 1.07 1.504 1.42.61.348 1.34.523 2.19.523.52 0 .992-.06 1.412-.183a4.158 4.158 0 0 0 2.06-1.336c.265-.316.497-.667.696-1.055v-8.334a5.197 5.197 0 0 0-1.61-1.8c-.675-.47-1.516-.706-2.524-.706-.863 0-1.602.177-2.216.53a4.41 4.41 0 0 0-1.51 1.437 6.592 6.592 0 0 0-.872 2.09 10.77 10.77 0 0 0-.282 2.5v.348zm24.52 2.407l.797 2.175 5.478-13.763h3.438l-9.114 20.735c-.21.465-.48.958-.805 1.478a7.493 7.493 0 0 1-1.188 1.444 6.315 6.315 0 0 1-1.627 1.113c-.62.298-1.334.448-2.142.448a5.2 5.2 0 0 1-.48-.025 8.702 8.702 0 0 1-1.03-.158c-.156-.033-.283-.06-.383-.083l.498-2.508c.078 0 .183.006.316.017l.415.032a11.85 11.85 0 0 0 .73.033c.42 0 .805-.116 1.153-.348.35-.233.66-.51.93-.83.27-.32.503-.653.697-.996.194-.342.346-.625.457-.846l1.228-2.39-7.736-17.117h3.435l4.93 11.588z" fill="#525252"/><path fill="#D8D8D8" d="M14 204h153v52H14z"/><path d="M62.308 232.87c0-1.34.168-2.57.506-3.695.338-1.123.82-2.09 1.444-2.897a6.708 6.708 0 0 1 2.266-1.892c.886-.454 1.876-.68 2.972-.68 1.074 0 2.012.18 2.814.54.802.358 1.497.88 2.084 1.567V216.5h3.07V242h-2.82l-.134-1.893a5.874 5.874 0 0 1-2.142 1.66c-.83.377-1.798.565-2.905.565-1.085 0-2.067-.232-2.947-.697a6.752 6.752 0 0 1-2.25-1.926c-.62-.82-1.1-1.786-1.444-2.898-.343-1.112-.514-2.31-.514-3.594v-.35zm3.07.348c0 .874.095 1.704.283 2.49.19.786.48 1.478.873 2.075.393.598.893 1.07 1.502 1.42.61.348 1.34.523 2.192.523.52 0 .99-.06 1.41-.183a4.158 4.158 0 0 0 2.06-1.336c.265-.316.497-.667.697-1.055v-8.334a5.197 5.197 0 0 0-1.61-1.8c-.676-.47-1.517-.706-2.524-.706-.864 0-1.602.177-2.217.53a4.41 4.41 0 0 0-1.51 1.437 6.592 6.592 0 0 0-.872 2.09 10.77 10.77 0 0 0-.28 2.5v.348zm18.395-9.18h9.18v15.306h5.86V242h-15.04v-2.656h6.11V226.71h-6.11v-2.673zm5.71-4.716c0-.51.154-.938.458-1.286.305-.35.767-.523 1.387-.523.61 0 1.068.174 1.378.523.31.348.465.777.465 1.286 0 .498-.155.913-.465 1.245-.31.332-.77.498-1.378.498-.62 0-1.082-.166-1.386-.498-.303-.332-.456-.747-.456-1.245zm21.25 18.262l.284 1.112.298-1.112 5.03-13.547h3.138L112.163 242h-2.342l-7.386-17.963h3.154l5.146 13.547z" fill="#525252"/><path fill="#D8D8D8" d="M14 296h153v52H14z"/><path d="M98.046 325.218c0 1.284-.155 2.482-.465 3.594-.31 1.112-.763 2.078-1.36 2.897a6.436 6.436 0 0 1-2.217 1.925c-.88.465-1.884.697-3.013.697-1.095 0-2.06-.177-2.897-.53a6.01 6.01 0 0 1-2.15-1.53v8.634h-3.07v-24.87h2.805l.15 1.96a5.99 5.99 0 0 1 2.166-1.702c.846-.392 1.83-.59 2.946-.59 1.15 0 2.17.228 3.055.682a6.318 6.318 0 0 1 2.225 1.892c.597.808 1.05 1.774 1.36 2.897.31 1.124.466 2.355.466 3.694v.348zm-3.07-.35c0-.873-.098-1.706-.292-2.497a6.5 6.5 0 0 0-.896-2.09 4.536 4.536 0 0 0-1.536-1.437c-.62-.354-1.36-.53-2.225-.53-.985 0-1.812.228-2.482.687a5.123 5.123 0 0 0-1.602 1.77v8.648c.4.708.93 1.287 1.594 1.735.664.448 1.505.672 2.524.672.853 0 1.59-.18 2.21-.54a4.51 4.51 0 0 0 1.526-1.452 6.71 6.71 0 0 0 .888-2.108c.194-.797.29-1.633.29-2.507v-.35z" fill="#525252"/><path fill="#D8D8D8" d="M243 204h153v52H243z"/><path d="M327.046 233.218c0 1.284-.155 2.482-.465 3.594-.31 1.112-.763 2.078-1.36 2.897a6.436 6.436 0 0 1-2.217 1.925c-.88.465-1.884.697-3.013.697-1.095 0-2.06-.177-2.897-.53a6.01 6.01 0 0 1-2.15-1.53v8.634h-3.07v-24.87h2.805l.15 1.96a5.99 5.99 0 0 1 2.166-1.702c.846-.392 1.83-.59 2.946-.59 1.15 0 2.17.228 3.055.682a6.318 6.318 0 0 1 2.225 1.892c.597.808 1.05 1.774 1.36 2.897.31 1.124.466 2.355.466 3.694v.348zm-3.07-.35c0-.873-.098-1.706-.292-2.497a6.5 6.5 0 0 0-.896-2.09 4.536 4.536 0 0 0-1.536-1.437c-.62-.354-1.36-.53-2.225-.53-.985 0-1.812.228-2.482.687a5.123 5.123 0 0 0-1.602 1.77v8.648c.4.708.93 1.287 1.594 1.735.664.448 1.505.672 2.524.672.853 0 1.59-.18 2.21-.54a4.51 4.51 0 0 0 1.526-1.452 6.71 6.71 0 0 0 .888-2.108c.194-.797.29-1.633.29-2.507v-.35z" fill="#525252"/><path d="M204 107.5V76.436M91 291.5v-31.064M168 198l25.5-28.5M239 198l-25.5-28.5" stroke="#979797" stroke-width="2" stroke-linecap="square"/></g></svg>