<?xml version="1.0" encoding="UTF-8" standalone="no"?>
<svg width="413px" height="370px" viewBox="0 0 413 370" version="1.1" xmlns="http://www.w3.org/2000/svg" xmlns:xlink="http://www.w3.org/1999/xlink" xmlns:sketch="http://www.bohemiancoding.com/sketch/ns">
    <!-- Generator: Sketch 3.5.1 (25234) - http://www.bohemiancoding.com/sketch -->
    <title>cssom-tree</title>
    <desc>Created with Sketch.</desc>
    <defs></defs>
    <g id="Page-1" stroke="none" stroke-width="1" fill="none" fill-rule="evenodd" sketch:type="MSPage">
        <g id="cssom-tree" sketch:type="MSArtboardGroup">
            <g id="html" sketch:type="MSLayerGroup" transform="translate(127.000000, 20.000000)">
                <rect id="Rectangle-1" fill="#D8D8D8" sketch:type="MSShapeGroup" x="0" y="0" width="153" height="52"></rect>
                <path d="M41.9599609,22.7099609 C42.6018912,21.769201 43.3932245,21.0359727 44.3339844,20.5102539 C45.2747443,19.9845351 46.3316999,19.7161459 47.5048828,19.7050781 C48.4456427,19.7050781 49.3006146,19.8406562 50.0698242,20.1118164 C50.8390338,20.3829766 51.494789,20.8063122 52.0371094,21.3818359 C52.5794298,21.9573596 52.9972316,22.6850542 53.2905273,23.5649414 C53.5838231,24.4448286 53.7304688,25.4879497 53.7304688,26.6943359 L53.7304688,38 L50.6591797,38 L50.6591797,26.6611328 C50.6591797,25.1891202 50.3077835,24.0934281 49.6049805,23.3740234 C48.9021775,22.6546188 47.897793,22.3004557 46.5917969,22.3115234 C45.6067659,22.3115234 44.7130574,22.5522437 43.9106445,23.0336914 C43.1082317,23.5151391 42.4580103,24.1542929 41.9599609,24.9511719 L41.9599609,38 L38.8886719,38 L38.8886719,12.5 L41.9599609,12.5 L41.9599609,22.7099609 Z M66.5634766,15.6875 L66.5634766,20.0371094 L73.4033203,20.0371094 L73.4033203,22.4111328 L66.5634766,22.4111328 L66.5634766,32.1728516 C66.5634766,32.8701207 66.6520173,33.4456358 66.8291016,33.8994141 C67.0061858,34.3531924 67.2496729,34.7156562 67.5595703,34.9868164 C67.8694677,35.2579766 68.2263977,35.4488927 68.6303711,35.5595703 C69.0343445,35.6702479 69.4632139,35.7255859 69.9169922,35.7255859 C70.2490251,35.7255859 70.5921206,35.7062176 70.9462891,35.6674805 C71.3004575,35.6287433 71.6463199,35.581706 71.9838867,35.5263672 C72.3214535,35.4710284 72.63688,35.4129235 72.9301758,35.3520508 C73.2234715,35.2911781 73.4641918,35.238607 73.6523438,35.1943359 L74.0839844,37.3691406 C73.8294258,37.5240893 73.5195331,37.6596674 73.1542969,37.7758789 C72.7890607,37.8920904 72.3906272,37.9916988 71.9589844,38.074707 C71.5273416,38.1577153 71.0708032,38.2213539 70.5893555,38.265625 C70.1079077,38.3098961 69.6292342,38.3320312 69.1533203,38.3320312 C68.3564413,38.3320312 67.6121454,38.2185884 66.9204102,37.9916992 C66.2286749,37.7648101 65.6282578,37.4051131 65.1191406,36.9125977 C64.6100235,36.4200822 64.2088231,35.7836953 63.9155273,35.003418 C63.6222316,34.2231406 63.4755859,33.2796279 63.4755859,32.1728516 L63.4755859,22.4111328 L58.7607422,22.4111328 L58.7607422,20.0371094 L63.4755859,20.0371094 L63.4755859,15.6875 L66.5634766,15.6875 Z M81.1064453,20.0371094 L81.1894531,21.7304688 C81.5546893,21.0996062 82.0333629,20.6070981 82.6254883,20.2529297 C83.2176136,19.8987612 83.9342406,19.7161459 84.7753906,19.7050781 C86.4244874,19.7050781 87.5257134,20.3469988 88.0791016,21.6308594 C88.43327,21.0553357 88.900876,20.5932635 89.4819336,20.2446289 C90.0629912,19.8959944 90.7685505,19.7161459 91.5986328,19.7050781 C92.9156967,19.7050781 93.9283819,20.1090454 94.6367188,20.9169922 C95.3450556,21.7249389 95.6992188,22.9479085 95.6992188,24.5859375 L95.6992188,38 L92.7773438,38 L92.7773438,24.5527344 C92.7773438,23.0475185 92.0856189,22.3004557 90.7021484,22.3115234 C90.3369122,22.3115234 90.0214857,22.3613276 89.7558594,22.4609375 C89.490233,22.5605474 89.2688811,22.6961254 89.0917969,22.8676758 C88.9147127,23.0392261 88.7763677,23.2384429 88.6767578,23.465332 C88.5771479,23.6922212 88.5107424,23.9274076 88.4775391,24.1708984 L88.4775391,38 L85.5556641,38 L85.5556641,24.5361328 C85.5556641,23.8167282 85.3951839,23.2633483 85.0742188,22.8759766 C84.7532536,22.4886048 84.2441441,22.3004557 83.546875,22.3115234 C82.9049447,22.3115234 82.4069028,22.4388008 82.0527344,22.6933594 C81.6985659,22.9479179 81.4384774,23.2854797 81.2724609,23.7060547 L81.2724609,38 L78.3505859,38 L78.3505859,20.0371094 L81.1064453,20.0371094 Z M100.580078,12.5 L109.760742,12.5 L109.760742,35.34375 L115.621094,35.34375 L115.621094,38 L100.580078,38 L100.580078,35.34375 L106.689453,35.34375 L106.689453,15.1728516 L100.580078,15.1728516 L100.580078,12.5 Z" fill="#525252" sketch:type="MSShapeGroup"></path>
            </g>
            <g id="body" sketch:type="MSLayerGroup" transform="translate(127.000000, 112.000000)">
                <rect id="Rectangle-1" fill="#D8D8D8" sketch:type="MSShapeGroup" x="0" y="0" width="153" height="52"></rect>
                <path d="M54.1123047,29.2177734 C54.1123047,30.501634 53.9573583,31.6997015 53.6474609,32.8120117 C53.3375636,33.924322 52.8837921,34.8899699 52.2861328,35.7089844 C51.6884736,36.5279989 50.9497114,37.1699196 50.0698242,37.6347656 C49.189937,38.0996117 48.1800187,38.3320312 47.0400391,38.3320312 C45.8889916,38.3320312 44.890141,38.1272807 44.043457,37.7177734 C43.1967731,37.3082662 42.4746124,36.7216835 41.8769531,35.9580078 L41.7275391,38 L38.9052734,38 L38.9052734,12.5 L41.9765625,12.5 L41.9765625,21.9628906 C42.563154,21.2324182 43.2714802,20.6735045 44.1015625,20.2861328 C44.9316448,19.8987611 45.9000596,19.7050781 47.0068359,19.7050781 C48.1578834,19.7050781 49.1761023,19.9319639 50.0615234,20.3857422 C50.9469445,20.8395205 51.6884736,21.4703736 52.2861328,22.2783203 C52.8837921,23.0862671 53.3375636,24.051915 53.6474609,25.175293 C53.9573583,26.298671 54.1123047,27.5299412 54.1123047,28.8691406 L54.1123047,29.2177734 Z M51.0410156,28.8691406 C51.0410156,27.9947873 50.9552417,27.1619506 50.7836914,26.3706055 C50.6121411,25.5792604 50.338218,24.8820017 49.9619141,24.2788086 C49.5856101,23.6756155 49.093102,23.1969419 48.484375,22.8427734 C47.875648,22.488605 47.1285852,22.3115234 46.2431641,22.3115234 C45.7119114,22.3115234 45.2249371,22.3806959 44.7822266,22.519043 C44.339516,22.65739 43.9438494,22.851073 43.5952148,23.1000977 C43.2465803,23.3491223 42.9366876,23.6424137 42.6655273,23.9799805 C42.3943671,24.3175473 42.1647145,24.6855449 41.9765625,25.0839844 L41.9765625,32.9365234 C42.1757822,33.3349629 42.4109687,33.7029606 42.6821289,34.0405273 C42.9532891,34.3780941 43.2659487,34.6741524 43.6201172,34.9287109 C43.9742856,35.1832695 44.3727191,35.3797194 44.8154297,35.5180664 C45.2581402,35.6564135 45.7451145,35.7255859 46.2763672,35.7255859 C47.1175172,35.7255859 47.839678,35.5512713 48.4428711,35.2026367 C49.0460642,34.8540022 49.5385723,34.3808624 49.9204102,33.7832031 C50.302248,33.1855439 50.5844717,32.493819 50.7670898,31.7080078 C50.9497079,30.9221966 51.0410156,30.0921268 51.0410156,29.2177734 L51.0410156,28.8691406 Z M58.4287109,28.8525391 C58.4287109,27.5576107 58.6168601,26.3540095 58.9931641,25.2416992 C59.369468,24.129389 59.9090134,23.1637411 60.6118164,22.3447266 C61.3146194,21.5257121 62.1695913,20.8810245 63.1767578,20.4106445 C64.1839243,19.9402646 65.3183531,19.7050781 66.5800781,19.7050781 C67.8528709,19.7050781 68.9956004,19.9402646 70.0083008,20.4106445 C71.0210012,20.8810245 71.87874,21.5257121 72.581543,22.3447266 C73.284346,23.1637411 73.8238913,24.129389 74.2001953,25.2416992 C74.5764993,26.3540095 74.7646484,27.5576107 74.7646484,28.8525391 L74.7646484,29.2177734 C74.7646484,30.5127018 74.5764993,31.7135361 74.2001953,32.8203125 C73.8238913,33.9270889 73.284346,34.8899699 72.581543,35.7089844 C71.87874,36.5279989 71.0237681,37.1699196 70.0166016,37.6347656 C69.0094351,38.0996117 67.8750063,38.3320312 66.6132812,38.3320312 C65.3404884,38.3320312 64.197759,38.0996117 63.1850586,37.6347656 C62.1723582,37.1699196 61.3146194,36.5279989 60.6118164,35.7089844 C59.9090134,34.8899699 59.369468,33.9270889 58.9931641,32.8203125 C58.6168601,31.7135361 58.4287109,30.5127018 58.4287109,29.2177734 L58.4287109,28.8525391 Z M61.5,29.2177734 C61.5,30.1031945 61.6051422,30.9470989 61.8154297,31.7495117 C62.0257172,32.5519246 62.3439106,33.2574839 62.7700195,33.8662109 C63.1961284,34.4749379 63.73014,34.9563784 64.3720703,35.3105469 C65.0140006,35.6647153 65.7610634,35.8417969 66.6132812,35.8417969 C67.4544313,35.8417969 68.1931934,35.6647153 68.8295898,35.3105469 C69.4659863,34.9563784 69.9972309,34.4749379 70.4233398,33.8662109 C70.8494487,33.2574839 71.1676422,32.5519246 71.3779297,31.7495117 C71.5882172,30.9470989 71.6933594,30.1031945 71.6933594,29.2177734 L71.6933594,28.8525391 C71.6933594,27.9781857 71.5854503,27.1398152 71.3696289,26.3374023 C71.1538075,25.5349895 70.8328472,24.8294301 70.4067383,24.2207031 C69.9806294,23.6119761 69.4493847,23.1277687 68.8129883,22.7680664 C68.1765919,22.4083641 67.4322959,22.2285156 66.5800781,22.2285156 C65.7278603,22.2285156 64.9863313,22.4083641 64.3554688,22.7680664 C63.7246062,23.1277687 63.1961284,23.6119761 62.7700195,24.2207031 C62.3439106,24.8294301 62.0257172,25.5349895 61.8154297,26.3374023 C61.6051422,27.1398152 61.5,27.9781857 61.5,28.8525391 L61.5,29.2177734 Z M79.1142578,28.8691406 C79.1142578,27.5299412 79.2830387,26.298671 79.6206055,25.175293 C79.9581723,24.051915 80.4396128,23.0862671 81.0649414,22.2783203 C81.6902701,21.4703736 82.4456336,20.8395205 83.3310547,20.3857422 C84.2164758,19.9319639 85.2070258,19.7050781 86.3027344,19.7050781 C87.3763075,19.7050781 88.3142864,19.8849266 89.1166992,20.2446289 C89.9191121,20.6043312 90.6136038,21.1272752 91.2001953,21.8134766 L91.2001953,12.5 L94.2714844,12.5 L94.2714844,38 L91.4492188,38 L91.3164062,36.1074219 C90.718747,36.8378943 90.004887,37.3912742 89.1748047,37.7675781 C88.3447224,38.1438821 87.3763076,38.3320312 86.2695312,38.3320312 C85.1848904,38.3320312 84.2026411,38.0996117 83.3227539,37.6347656 C82.4428667,37.1699196 81.693037,36.5279989 81.0732422,35.7089844 C80.4534474,34.8899699 79.9720069,33.924322 79.6289062,32.8120117 C79.2858056,31.6997015 79.1142578,30.501634 79.1142578,29.2177734 L79.1142578,28.8691406 Z M82.1855469,29.2177734 C82.1855469,30.0921268 82.2796215,30.9221966 82.4677734,31.7080078 C82.6559254,32.493819 82.9464499,33.1855439 83.3393555,33.7832031 C83.7322611,34.3808624 84.2330699,34.8540022 84.8417969,35.2026367 C85.4505239,35.5512713 86.1809853,35.7255859 87.0332031,35.7255859 C87.553388,35.7255859 88.0237609,35.6647142 88.4443359,35.5429688 C88.864911,35.4212233 89.2467431,35.2469087 89.5898438,35.0200195 C89.9329444,34.7931304 90.2373034,34.5219742 90.5029297,34.206543 C90.768556,33.8911117 91.0009756,33.5397155 91.2001953,33.1523438 L91.2001953,24.8183594 C90.8017558,24.087887 90.2649773,23.4874698 89.5898438,23.0170898 C88.9147102,22.5467099 88.0735727,22.3115234 87.0664062,22.3115234 C86.2031207,22.3115234 85.4643585,22.488605 84.8500977,22.8427734 C84.2358368,23.1969419 83.7322611,23.6756155 83.3393555,24.2788086 C82.9464499,24.8820017 82.6559254,25.5792604 82.4677734,26.3706055 C82.2796215,27.1619506 82.1855469,27.9947873 82.1855469,28.8691406 L82.1855469,29.2177734 Z M106.706055,31.625 L107.50293,33.7998047 L112.981445,20.0371094 L116.417969,20.0371094 L107.303711,40.7724609 C107.093423,41.237307 106.825034,41.7298151 106.498535,42.25 C106.172036,42.7701849 105.77637,43.2516254 105.311523,43.6943359 C104.846677,44.1370465 104.304365,44.507811 103.68457,44.8066406 C103.064776,45.1054702 102.350915,45.2548828 101.542969,45.2548828 C101.399088,45.2548828 101.238608,45.2465821 101.061523,45.2299805 C100.884439,45.2133788 100.707358,45.1912436 100.530273,45.1635742 C100.353189,45.1359048 100.187175,45.1054689 100.032227,45.0722656 C99.8772779,45.0390623 99.7500005,45.0113933 99.6503906,44.9892578 L100.148438,42.4824219 C100.225912,42.4824219 100.331054,42.4879557 100.463867,42.4990234 C100.59668,42.5100912 100.735025,42.5211588 100.878906,42.5322266 C101.022787,42.5432943 101.161132,42.551595 101.293945,42.5571289 C101.426758,42.5626628 101.531901,42.5654297 101.609375,42.5654297 C102.02995,42.5654297 102.414549,42.4492199 102.763184,42.2167969 C103.111818,41.9843738 103.421711,41.7076839 103.692871,41.3867188 C103.964031,41.0657536 104.196451,40.7337257 104.390137,40.390625 C104.583823,40.0475243 104.736002,39.7653006 104.84668,39.5439453 L106.075195,37.1533203 L98.3388672,20.0371094 L101.775391,20.0371094 L106.706055,31.625 Z" fill="#525252" sketch:type="MSShapeGroup"></path>
            </g>
            <g id="div" sketch:type="MSLayerGroup" transform="translate(14.000000, 204.000000)">
                <rect id="Rectangle-1" fill="#D8D8D8" sketch:type="MSShapeGroup" x="0" y="0" width="153" height="52"></rect>
                <path d="M48.3076172,28.8691406 C48.3076172,27.5299412 48.4763981,26.298671 48.8139648,25.175293 C49.1515316,24.051915 49.6329721,23.0862671 50.2583008,22.2783203 C50.8836294,21.4703736 51.638993,20.8395205 52.5244141,20.3857422 C53.4098352,19.9319639 54.4003851,19.7050781 55.4960938,19.7050781 C56.5696668,19.7050781 57.5076457,19.8849266 58.3100586,20.2446289 C59.1124715,20.6043312 59.8069632,21.1272752 60.3935547,21.8134766 L60.3935547,12.5 L63.4648438,12.5 L63.4648438,38 L60.6425781,38 L60.5097656,36.1074219 C59.9121064,36.8378943 59.1982463,37.3912742 58.3681641,37.7675781 C57.5380818,38.1438821 56.569667,38.3320312 55.4628906,38.3320312 C54.3782498,38.3320312 53.3960005,38.0996117 52.5161133,37.6347656 C51.6362261,37.1699196 50.8863963,36.5279989 50.2666016,35.7089844 C49.6468068,34.8899699 49.1653663,33.924322 48.8222656,32.8120117 C48.479165,31.6997015 48.3076172,30.501634 48.3076172,29.2177734 L48.3076172,28.8691406 Z M51.3789062,29.2177734 C51.3789062,30.0921268 51.4729808,30.9221966 51.6611328,31.7080078 C51.8492848,32.493819 52.1398092,33.1855439 52.5327148,33.7832031 C52.9256205,34.3808624 53.4264292,34.8540022 54.0351562,35.2026367 C54.6438833,35.5512713 55.3743447,35.7255859 56.2265625,35.7255859 C56.7467474,35.7255859 57.2171203,35.6647142 57.6376953,35.5429688 C58.0582703,35.4212233 58.4401025,35.2469087 58.7832031,35.0200195 C59.1263038,34.7931304 59.4306627,34.5219742 59.6962891,34.206543 C59.9619154,33.8911117 60.1943349,33.5397155 60.3935547,33.1523438 L60.3935547,24.8183594 C59.9951152,24.087887 59.4583367,23.4874698 58.7832031,23.0170898 C58.1080695,22.5467099 57.2669321,22.3115234 56.2597656,22.3115234 C55.3964801,22.3115234 54.6577179,22.488605 54.043457,22.8427734 C53.4291961,23.1969419 52.9256205,23.6756155 52.5327148,24.2788086 C52.1398092,24.8820017 51.8492848,25.5792604 51.6611328,26.3706055 C51.4729808,27.1619506 51.3789062,27.9947873 51.3789062,28.8691406 L51.3789062,29.2177734 Z M69.7734375,20.0371094 L78.9541016,20.0371094 L78.9541016,35.34375 L84.8144531,35.34375 L84.8144531,38 L69.7734375,38 L69.7734375,35.34375 L75.8828125,35.34375 L75.8828125,22.7099609 L69.7734375,22.7099609 L69.7734375,20.0371094 Z M75.484375,15.3222656 C75.484375,14.8131485 75.6365545,14.3842791 75.940918,14.0356445 C76.2452815,13.68701 76.7073537,13.5126953 77.3271484,13.5126953 C77.9358754,13.5126953 78.3951807,13.68701 78.7050781,14.0356445 C79.0149755,14.3842791 79.1699219,14.8131485 79.1699219,15.3222656 C79.1699219,15.820315 79.0149755,16.2353499 78.7050781,16.5673828 C78.3951807,16.8994157 77.9358754,17.0654297 77.3271484,17.0654297 C76.7073537,17.0654297 76.2452815,16.8994157 75.940918,16.5673828 C75.6365545,16.2353499 75.484375,15.820315 75.484375,15.3222656 L75.484375,15.3222656 Z M96.734375,33.5839844 L97.0166016,34.6962891 L97.3154297,33.5839844 L102.345703,20.0371094 L105.483398,20.0371094 L98.1621094,38 L95.8212891,38 L88.4335938,20.0371094 L91.5878906,20.0371094 L96.734375,33.5839844 Z" fill="#525252" sketch:type="MSShapeGroup"></path>
            </g>
            <g id="p" sketch:type="MSLayerGroup" transform="translate(14.000000, 296.000000)">
                <rect id="Rectangle-1" fill="#D8D8D8" sketch:type="MSShapeGroup" x="0" y="0" width="153" height="52"></rect>
                <path d="M84.0458984,29.2177734 C84.0458984,30.501634 83.8909521,31.6997015 83.5810547,32.8120117 C83.2711573,33.924322 82.8173858,34.8899699 82.2197266,35.7089844 C81.6220673,36.5279989 80.8833052,37.1699196 80.003418,37.6347656 C79.1235308,38.0996117 78.1191463,38.3320312 76.9902344,38.3320312 C75.8945258,38.3320312 74.9288779,38.1549497 74.0932617,37.8007812 C73.2576456,37.4466128 72.5410186,36.9375033 71.9433594,36.2734375 L71.9433594,44.90625 L68.8720703,44.90625 L68.8720703,20.0371094 L71.6777344,20.0371094 L71.8271484,21.9960938 C72.4248077,21.2545536 73.1469684,20.6873392 73.9936523,20.2944336 C74.8403363,19.901528 75.8225856,19.7050781 76.9404297,19.7050781 C78.0914771,19.7050781 79.1096961,19.9319639 79.9951172,20.3857422 C80.8805383,20.8395205 81.6220673,21.4703736 82.2197266,22.2783203 C82.8173858,23.0862671 83.2711573,24.051915 83.5810547,25.175293 C83.8909521,26.298671 84.0458984,27.5299412 84.0458984,28.8691406 L84.0458984,29.2177734 Z M80.9746094,28.8691406 C80.9746094,27.9947873 80.8777679,27.1619506 80.684082,26.3706055 C80.4903962,25.5792604 80.191571,24.8820017 79.7875977,24.2788086 C79.3836243,23.6756155 78.8717479,23.1969419 78.2519531,22.8427734 C77.6321584,22.488605 76.8906293,22.3115234 76.0273438,22.3115234 C75.0423128,22.3115234 74.2150099,22.5411761 73.5454102,23.0004883 C72.8758105,23.4598005 72.3417989,24.04915 71.9433594,24.7685547 L71.9433594,33.4179688 C72.3417989,34.1263056 72.8730436,34.7045876 73.5371094,35.152832 C74.2011752,35.6010765 75.0423126,35.8251953 76.0605469,35.8251953 C76.9127647,35.8251953 77.6487599,35.6453469 78.2685547,35.2856445 C78.8883495,34.9259422 79.3974589,34.4417348 79.7958984,33.8330078 C80.1943379,33.2242808 80.4903962,32.5214884 80.684082,31.7246094 C80.8777679,30.9277304 80.9746094,30.0921268 80.9746094,29.2177734 L80.9746094,28.8691406 Z" fill="#525252" sketch:type="MSShapeGroup"></path>
            </g>
            <g id="p-copy" sketch:type="MSLayerGroup" transform="translate(243.000000, 204.000000)">
                <rect id="Rectangle-1" fill="#D8D8D8" sketch:type="MSShapeGroup" x="0" y="0" width="153" height="52"></rect>
                <path d="M84.0458984,29.2177734 C84.0458984,30.501634 83.8909521,31.6997015 83.5810547,32.8120117 C83.2711573,33.924322 82.8173858,34.8899699 82.2197266,35.7089844 C81.6220673,36.5279989 80.8833052,37.1699196 80.003418,37.6347656 C79.1235308,38.0996117 78.1191463,38.3320312 76.9902344,38.3320312 C75.8945258,38.3320312 74.9288779,38.1549497 74.0932617,37.8007812 C73.2576456,37.4466128 72.5410186,36.9375033 71.9433594,36.2734375 L71.9433594,44.90625 L68.8720703,44.90625 L68.8720703,20.0371094 L71.6777344,20.0371094 L71.8271484,21.9960938 C72.4248077,21.2545536 73.1469684,20.6873392 73.9936523,20.2944336 C74.8403363,19.901528 75.8225856,19.7050781 76.9404297,19.7050781 C78.0914771,19.7050781 79.1096961,19.9319639 79.9951172,20.3857422 C80.8805383,20.8395205 81.6220673,21.4703736 82.2197266,22.2783203 C82.8173858,23.0862671 83.2711573,24.051915 83.5810547,25.175293 C83.8909521,26.298671 84.0458984,27.5299412 84.0458984,28.8691406 L84.0458984,29.2177734 Z M80.9746094,28.8691406 C80.9746094,27.9947873 80.8777679,27.1619506 80.684082,26.3706055 C80.4903962,25.5792604 80.191571,24.8820017 79.7875977,24.2788086 C79.3836243,23.6756155 78.8717479,23.1969419 78.2519531,22.8427734 C77.6321584,22.488605 76.8906293,22.3115234 76.0273438,22.3115234 C75.0423128,22.3115234 74.2150099,22.5411761 73.5454102,23.0004883 C72.8758105,23.4598005 72.3417989,24.04915 71.9433594,24.7685547 L71.9433594,33.4179688 C72.3417989,34.1263056 72.8730436,34.7045876 73.5371094,35.152832 C74.2011752,35.6010765 75.0423126,35.8251953 76.0605469,35.8251953 C76.9127647,35.8251953 77.6487599,35.6453469 78.2685547,35.2856445 C78.8883495,34.9259422 79.3974589,34.4417348 79.7958984,33.8330078 C80.1943379,33.2242808 80.4903962,32.5214884 80.684082,31.7246094 C80.8777679,30.9277304 80.9746094,30.0921268 80.9746094,29.2177734 L80.9746094,28.8691406 Z" id="p" fill="#525252" sketch:type="MSShapeGroup"></path>
            </g>
            <path d="M204,107.5 L204,76.4355509" id="Line" stroke="#979797" stroke-width="2" stroke-linecap="square" sketch:type="MSShapeGroup"></path>
            <path d="M91,291.5 L91,260.435551" id="Line-Copy" stroke="#979797" stroke-width="2" stroke-linecap="square" sketch:type="MSShapeGroup"></path>
            <path d="M168,198 L193.5,169.5" id="Line" stroke="#979797" stroke-width="2" stroke-linecap="square" sketch:type="MSShapeGroup"></path>
            <path d="M213,198 L238.5,169.5" id="Line-Copy-2" stroke="#979797" stroke-width="2" stroke-linecap="square" sketch:type="MSShapeGroup" transform="translate(226.000000, 183.500000) scale(-1, 1) translate(-226.000000, -183.500000) "></path>
        </g>
    </g>
</svg>