<?xml version="1.0" encoding="UTF-8" standalone="no"?>
<svg width="580px" height="414px" viewBox="0 0 580 414" version="1.1" xmlns="http://www.w3.org/2000/svg" xmlns:xlink="http://www.w3.org/1999/xlink" xmlns:sketch="http://www.bohemiancoding.com/sketch/ns">
    <!-- Generator: Sketch 3.5.1 (25234) - http://www.bohemiancoding.com/sketch -->
    <title>dom-tree</title>
    <desc>Created with Sketch.</desc>
    <defs></defs>
    <g id="Page-1" stroke="none" stroke-width="1" fill="none" fill-rule="evenodd" sketch:type="MSPage">
        <g id="dom-tree" sketch:type="MSArtboardGroup">
            <g id="html" sketch:type="MSLayerGroup" transform="translate(214.000000, 32.000000)">
                <rect id="Rectangle-1" fill="#D8D8D8" sketch:type="MSShapeGroup" x="0" y="0" width="153" height="52"></rect>
                <path d="M21.7402344,26.9931641 L20.8603516,27.2753906 L21.7402344,27.5742188 L31.9003906,31.4921875 L31.9003906,34.7460938 L17.8222656,28.4541016 L17.8222656,26.0302734 L31.9003906,19.7548828 L31.9003906,23.0087891 L21.7402344,26.9931641 Z M41.3632812,22.7099609 C42.0052115,21.769201 42.7965448,21.0359727 43.7373047,20.5102539 C44.6780646,19.9845351 45.7350202,19.7161459 46.9082031,19.7050781 C47.848963,19.7050781 48.703935,19.8406562 49.4731445,20.1118164 C50.2423541,20.3829766 50.8981093,20.8063122 51.4404297,21.3818359 C51.9827501,21.9573596 52.4005519,22.6850542 52.6938477,23.5649414 C52.9871434,24.4448286 53.1337891,25.4879497 53.1337891,26.6943359 L53.1337891,38 L50.0625,38 L50.0625,26.6611328 C50.0625,25.1891202 49.7111038,24.0934281 49.0083008,23.3740234 C48.3054978,22.6546188 47.3011133,22.3004557 45.9951172,22.3115234 C45.0100862,22.3115234 44.1163777,22.5522437 43.3139648,23.0336914 C42.511552,23.5151391 41.8613306,24.1542929 41.3632812,24.9511719 L41.3632812,38 L38.2919922,38 L38.2919922,12.5 L41.3632812,12.5 L41.3632812,22.7099609 Z M65.9667969,15.6875 L65.9667969,20.0371094 L72.8066406,20.0371094 L72.8066406,22.4111328 L65.9667969,22.4111328 L65.9667969,32.1728516 C65.9667969,32.8701207 66.0553377,33.4456358 66.2324219,33.8994141 C66.4095061,34.3531924 66.6529932,34.7156562 66.9628906,34.9868164 C67.272788,35.2579766 67.629718,35.4488927 68.0336914,35.5595703 C68.4376648,35.6702479 68.8665342,35.7255859 69.3203125,35.7255859 C69.6523454,35.7255859 69.9954409,35.7062176 70.3496094,35.6674805 C70.7037778,35.6287433 71.0496402,35.581706 71.387207,35.5263672 C71.7247738,35.4710284 72.0402004,35.4129235 72.3334961,35.3520508 C72.6267918,35.2911781 72.8675121,35.238607 73.0556641,35.1943359 L73.4873047,37.3691406 C73.2327461,37.5240893 72.9228534,37.6596674 72.5576172,37.7758789 C72.192381,37.8920904 71.7939475,37.9916988 71.3623047,38.074707 C70.9306619,38.1577153 70.4741235,38.2213539 69.9926758,38.265625 C69.5112281,38.3098961 69.0325545,38.3320312 68.5566406,38.3320312 C67.7597616,38.3320312 67.0154657,38.2185884 66.3237305,37.9916992 C65.6319952,37.7648101 65.0315781,37.4051131 64.5224609,36.9125977 C64.0133438,36.4200822 63.6121434,35.7836953 63.3188477,35.003418 C63.0255519,34.2231406 62.8789062,33.2796279 62.8789062,32.1728516 L62.8789062,22.4111328 L58.1640625,22.4111328 L58.1640625,20.0371094 L62.8789062,20.0371094 L62.8789062,15.6875 L65.9667969,15.6875 Z M80.5097656,20.0371094 L80.5927734,21.7304688 C80.9580096,21.0996062 81.4366832,20.6070981 82.0288086,20.2529297 C82.620934,19.8987612 83.3375609,19.7161459 84.1787109,19.7050781 C85.8278077,19.7050781 86.9290337,20.3469988 87.4824219,21.6308594 C87.8365903,21.0553357 88.3041963,20.5932635 88.8852539,20.2446289 C89.4663115,19.8959944 90.1718708,19.7161459 91.0019531,19.7050781 C92.319017,19.7050781 93.3317022,20.1090454 94.0400391,20.9169922 C94.7483759,21.7249389 95.1025391,22.9479085 95.1025391,24.5859375 L95.1025391,38 L92.1806641,38 L92.1806641,24.5527344 C92.1806641,23.0475185 91.4889392,22.3004557 90.1054688,22.3115234 C89.7402325,22.3115234 89.424806,22.3613276 89.1591797,22.4609375 C88.8935534,22.5605474 88.6722014,22.6961254 88.4951172,22.8676758 C88.318033,23.0392261 88.179688,23.2384429 88.0800781,23.465332 C87.9804683,23.6922212 87.9140627,23.9274076 87.8808594,24.1708984 L87.8808594,38 L84.9589844,38 L84.9589844,24.5361328 C84.9589844,23.8167282 84.7985042,23.2633483 84.4775391,22.8759766 C84.1565739,22.4886048 83.6474644,22.3004557 82.9501953,22.3115234 C82.308265,22.3115234 81.8102231,22.4388008 81.4560547,22.6933594 C81.1018862,22.9479179 80.8417977,23.2854797 80.6757812,23.7060547 L80.6757812,38 L77.7539062,38 L77.7539062,20.0371094 L80.5097656,20.0371094 Z M99.9833984,12.5 L109.164062,12.5 L109.164062,35.34375 L115.024414,35.34375 L115.024414,38 L99.9833984,38 L99.9833984,35.34375 L106.092773,35.34375 L106.092773,15.1728516 L99.9833984,15.1728516 L99.9833984,12.5 Z M119.97168,22.9091797 L119.97168,19.7382812 L134.630859,26.0136719 L134.630859,28.4375 L119.97168,34.7294922 L119.97168,31.5419922 L130.712891,27.4912109 L131.708984,27.2089844 L130.712891,26.8935547 L119.97168,22.9091797 Z" id="&lt;html&gt;" fill="#525252" sketch:type="MSShapeGroup"></path>
            </g>
            <g id="body" sketch:type="MSLayerGroup" transform="translate(332.000000, 128.000000)">
                <rect id="Rectangle-1" fill="#D8D8D8" sketch:type="MSShapeGroup" x="0" y="0" width="153" height="52"></rect>
                <path d="M21.7402344,26.9931641 L20.8603516,27.2753906 L21.7402344,27.5742188 L31.9003906,31.4921875 L31.9003906,34.7460938 L17.8222656,28.4541016 L17.8222656,26.0302734 L31.9003906,19.7548828 L31.9003906,23.0087891 L21.7402344,26.9931641 Z M53.515625,29.2177734 C53.515625,30.501634 53.3606786,31.6997015 53.0507812,32.8120117 C52.7408839,33.924322 52.2871124,34.8899699 51.6894531,35.7089844 C51.0917939,36.5279989 50.3530317,37.1699196 49.4731445,37.6347656 C48.5932573,38.0996117 47.583339,38.3320312 46.4433594,38.3320312 C45.292312,38.3320312 44.2934613,38.1272807 43.4467773,37.7177734 C42.6000934,37.3082662 41.8779327,36.7216835 41.2802734,35.9580078 L41.1308594,38 L38.3085938,38 L38.3085938,12.5 L41.3798828,12.5 L41.3798828,21.9628906 C41.9664743,21.2324182 42.6748005,20.6735045 43.5048828,20.2861328 C44.3349651,19.8987611 45.3033799,19.7050781 46.4101562,19.7050781 C47.5612037,19.7050781 48.5794227,19.9319639 49.4648438,20.3857422 C50.3502648,20.8395205 51.0917939,21.4703736 51.6894531,22.2783203 C52.2871124,23.0862671 52.7408839,24.051915 53.0507812,25.175293 C53.3606786,26.298671 53.515625,27.5299412 53.515625,28.8691406 L53.515625,29.2177734 Z M50.4443359,28.8691406 C50.4443359,27.9947873 50.3585621,27.1619506 50.1870117,26.3706055 C50.0154614,25.5792604 49.7415383,24.8820017 49.3652344,24.2788086 C48.9889304,23.6756155 48.4964223,23.1969419 47.8876953,22.8427734 C47.2789683,22.488605 46.5319055,22.3115234 45.6464844,22.3115234 C45.1152317,22.3115234 44.6282574,22.3806959 44.1855469,22.519043 C43.7428363,22.65739 43.3471697,22.851073 42.9985352,23.1000977 C42.6499006,23.3491223 42.3400079,23.6424137 42.0688477,23.9799805 C41.7976874,24.3175473 41.5680348,24.6855449 41.3798828,25.0839844 L41.3798828,32.9365234 C41.5791026,33.3349629 41.814289,33.7029606 42.0854492,34.0405273 C42.3566094,34.3780941 42.6692691,34.6741524 43.0234375,34.9287109 C43.3776059,35.1832695 43.7760395,35.3797194 44.21875,35.5180664 C44.6614605,35.6564135 45.1484348,35.7255859 45.6796875,35.7255859 C46.5208375,35.7255859 47.2429983,35.5512713 47.8461914,35.2026367 C48.4493845,34.8540022 48.9418926,34.3808624 49.3237305,33.7832031 C49.7055683,33.1855439 49.9877921,32.493819 50.1704102,31.7080078 C50.3530283,30.9221966 50.4443359,30.0921268 50.4443359,29.2177734 L50.4443359,28.8691406 Z M57.8320312,28.8525391 C57.8320312,27.5576107 58.0201804,26.3540095 58.3964844,25.2416992 C58.7727883,24.129389 59.3123337,23.1637411 60.0151367,22.3447266 C60.7179397,21.5257121 61.5729116,20.8810245 62.5800781,20.4106445 C63.5872446,19.9402646 64.7216734,19.7050781 65.9833984,19.7050781 C67.2561913,19.7050781 68.3989207,19.9402646 69.4116211,20.4106445 C70.4243215,20.8810245 71.2820603,21.5257121 71.9848633,22.3447266 C72.6876663,23.1637411 73.2272117,24.129389 73.6035156,25.2416992 C73.9798196,26.3540095 74.1679688,27.5576107 74.1679688,28.8525391 L74.1679688,29.2177734 C74.1679688,30.5127018 73.9798196,31.7135361 73.6035156,32.8203125 C73.2272117,33.9270889 72.6876663,34.8899699 71.9848633,35.7089844 C71.2820603,36.5279989 70.4270884,37.1699196 69.4199219,37.6347656 C68.4127554,38.0996117 67.2783266,38.3320312 66.0166016,38.3320312 C64.7438087,38.3320312 63.6010793,38.0996117 62.5883789,37.6347656 C61.5756785,37.1699196 60.7179397,36.5279989 60.0151367,35.7089844 C59.3123337,34.8899699 58.7727883,33.9270889 58.3964844,32.8203125 C58.0201804,31.7135361 57.8320312,30.5127018 57.8320312,29.2177734 L57.8320312,28.8525391 Z M60.9033203,29.2177734 C60.9033203,30.1031945 61.0084625,30.9470989 61.21875,31.7495117 C61.4290375,32.5519246 61.7472309,33.2574839 62.1733398,33.8662109 C62.5994487,34.4749379 63.1334603,34.9563784 63.7753906,35.3105469 C64.4173209,35.6647153 65.1643838,35.8417969 66.0166016,35.8417969 C66.8577516,35.8417969 67.5965137,35.6647153 68.2329102,35.3105469 C68.8693066,34.9563784 69.4005513,34.4749379 69.8266602,33.8662109 C70.2527691,33.2574839 70.5709625,32.5519246 70.78125,31.7495117 C70.9915375,30.9470989 71.0966797,30.1031945 71.0966797,29.2177734 L71.0966797,28.8525391 C71.0966797,27.9781857 70.9887706,27.1398152 70.7729492,26.3374023 C70.5571278,25.5349895 70.2361675,24.8294301 69.8100586,24.2207031 C69.3839497,23.6119761 68.852705,23.1277687 68.2163086,22.7680664 C67.5799122,22.4083641 66.8356162,22.2285156 65.9833984,22.2285156 C65.1311806,22.2285156 64.3896516,22.4083641 63.7587891,22.7680664 C63.1279265,23.1277687 62.5994487,23.6119761 62.1733398,24.2207031 C61.7472309,24.8294301 61.4290375,25.5349895 61.21875,26.3374023 C61.0084625,27.1398152 60.9033203,27.9781857 60.9033203,28.8525391 L60.9033203,29.2177734 Z M78.5175781,28.8691406 C78.5175781,27.5299412 78.686359,26.298671 79.0239258,25.175293 C79.3614926,24.051915 79.8429331,23.0862671 80.4682617,22.2783203 C81.0935904,21.4703736 81.8489539,20.8395205 82.734375,20.3857422 C83.6197961,19.9319639 84.6103461,19.7050781 85.7060547,19.7050781 C86.7796278,19.7050781 87.7176067,19.8849266 88.5200195,20.2446289 C89.3224324,20.6043312 90.0169242,21.1272752 90.6035156,21.8134766 L90.6035156,12.5 L93.6748047,12.5 L93.6748047,38 L90.8525391,38 L90.7197266,36.1074219 C90.1220673,36.8378943 89.4082073,37.3912742 88.578125,37.7675781 C87.7480427,38.1438821 86.7796279,38.3320312 85.6728516,38.3320312 C84.5882107,38.3320312 83.6059614,38.0996117 82.7260742,37.6347656 C81.846187,37.1699196 81.0963573,36.5279989 80.4765625,35.7089844 C79.8567677,34.8899699 79.3753272,33.924322 79.0322266,32.8120117 C78.6891259,31.6997015 78.5175781,30.501634 78.5175781,29.2177734 L78.5175781,28.8691406 Z M81.5888672,29.2177734 C81.5888672,30.0921268 81.6829418,30.9221966 81.8710938,31.7080078 C82.0592457,32.493819 82.3497702,33.1855439 82.7426758,33.7832031 C83.1355814,34.3808624 83.6363902,34.8540022 84.2451172,35.2026367 C84.8538442,35.5512713 85.5843056,35.7255859 86.4365234,35.7255859 C86.9567083,35.7255859 87.4270812,35.6647142 87.8476562,35.5429688 C88.2682313,35.4212233 88.6500634,35.2469087 88.9931641,35.0200195 C89.3362647,34.7931304 89.6406237,34.5219742 89.90625,34.206543 C90.1718763,33.8911117 90.4042959,33.5397155 90.6035156,33.1523438 L90.6035156,24.8183594 C90.2050761,24.087887 89.6682976,23.4874698 88.9931641,23.0170898 C88.3180305,22.5467099 87.4768931,22.3115234 86.4697266,22.3115234 C85.606441,22.3115234 84.8676789,22.488605 84.253418,22.8427734 C83.6391571,23.1969419 83.1355814,23.6756155 82.7426758,24.2788086 C82.3497702,24.8820017 82.0592457,25.5792604 81.8710938,26.3706055 C81.6829418,27.1619506 81.5888672,27.9947873 81.5888672,28.8691406 L81.5888672,29.2177734 Z M106.109375,31.625 L106.90625,33.7998047 L112.384766,20.0371094 L115.821289,20.0371094 L106.707031,40.7724609 C106.496744,41.237307 106.228354,41.7298151 105.901855,42.25 C105.575356,42.7701849 105.17969,43.2516254 104.714844,43.6943359 C104.249998,44.1370465 103.707685,44.507811 103.087891,44.8066406 C102.468096,45.1054702 101.754236,45.2548828 100.946289,45.2548828 C100.802408,45.2548828 100.641928,45.2465821 100.464844,45.2299805 C100.28776,45.2133788 100.110678,45.1912436 99.9335938,45.1635742 C99.7565095,45.1359048 99.5904956,45.1054689 99.4355469,45.0722656 C99.2805982,45.0390623 99.1533208,45.0113933 99.0537109,44.9892578 L99.5517578,42.4824219 C99.6292322,42.4824219 99.7343743,42.4879557 99.8671875,42.4990234 C100.000001,42.5100912 100.138346,42.5211588 100.282227,42.5322266 C100.426107,42.5432943 100.564452,42.551595 100.697266,42.5571289 C100.830079,42.5626628 100.935221,42.5654297 101.012695,42.5654297 C101.43327,42.5654297 101.817869,42.4492199 102.166504,42.2167969 C102.515138,41.9843738 102.825031,41.7076839 103.096191,41.3867188 C103.367352,41.0657536 103.599771,40.7337257 103.793457,40.390625 C103.987143,40.0475243 104.139322,39.7653006 104.25,39.5439453 L105.478516,37.1533203 L97.7421875,20.0371094 L101.178711,20.0371094 L106.109375,31.625 Z M119.97168,22.9091797 L119.97168,19.7382812 L134.630859,26.0136719 L134.630859,28.4375 L119.97168,34.7294922 L119.97168,31.5419922 L130.712891,27.4912109 L131.708984,27.2089844 L130.712891,26.8935547 L119.97168,22.9091797 Z" id="&lt;body&gt;" fill="#525252" sketch:type="MSShapeGroup"></path>
            </g>
            <g id="h1" sketch:type="MSLayerGroup" transform="translate(332.000000, 224.000000)">
                <rect id="Rectangle-1" fill="#D8D8D8" sketch:type="MSShapeGroup" x="0" y="0" width="153" height="52"></rect>
                <path d="M42.7402344,26.9931641 L41.8603516,27.2753906 L42.7402344,27.5742188 L52.9003906,31.4921875 L52.9003906,34.7460938 L38.8222656,28.4541016 L38.8222656,26.0302734 L52.9003906,19.7548828 L52.9003906,23.0087891 L42.7402344,26.9931641 Z M62.3632812,22.7099609 C63.0052115,21.769201 63.7965448,21.0359727 64.7373047,20.5102539 C65.6780646,19.9845351 66.7350202,19.7161459 67.9082031,19.7050781 C68.848963,19.7050781 69.703935,19.8406562 70.4731445,20.1118164 C71.2423541,20.3829766 71.8981093,20.8063122 72.4404297,21.3818359 C72.9827501,21.9573596 73.4005519,22.6850542 73.6938477,23.5649414 C73.9871434,24.4448286 74.1337891,25.4879497 74.1337891,26.6943359 L74.1337891,38 L71.0625,38 L71.0625,26.6611328 C71.0625,25.1891202 70.7111038,24.0934281 70.0083008,23.3740234 C69.3054978,22.6546188 68.3011133,22.3004557 66.9951172,22.3115234 C66.0100862,22.3115234 65.1163777,22.5522437 64.3139648,23.0336914 C63.511552,23.5151391 62.8613306,24.1542929 62.3632812,24.9511719 L62.3632812,38 L59.2919922,38 L59.2919922,12.5 L62.3632812,12.5 L62.3632812,22.7099609 Z M89.65625,38 L86.5849609,38 L86.5849609,17.7460938 L80.2597656,20.1533203 L80.2597656,17.3476562 L89.4072266,13.828125 L89.65625,13.828125 L89.65625,38 Z M100.165039,22.9091797 L100.165039,19.7382812 L114.824219,26.0136719 L114.824219,28.4375 L100.165039,34.7294922 L100.165039,31.5419922 L110.90625,27.4912109 L111.902344,27.2089844 L110.90625,26.8935547 L100.165039,22.9091797 Z" id="&lt;h1&gt;" fill="#525252" sketch:type="MSShapeGroup"></path>
            </g>
            <g id="head" sketch:type="MSLayerGroup" transform="translate(95.000000, 128.000000)">
                <rect id="Rectangle-1" fill="#D8D8D8" sketch:type="MSShapeGroup" x="0" y="0" width="153" height="52"></rect>
                <path d="M21.7402344,26.9931641 L20.8603516,27.2753906 L21.7402344,27.5742188 L31.9003906,31.4921875 L31.9003906,34.7460938 L17.8222656,28.4541016 L17.8222656,26.0302734 L31.9003906,19.7548828 L31.9003906,23.0087891 L21.7402344,26.9931641 Z M41.3632812,22.7099609 C42.0052115,21.769201 42.7965448,21.0359727 43.7373047,20.5102539 C44.6780646,19.9845351 45.7350202,19.7161459 46.9082031,19.7050781 C47.848963,19.7050781 48.703935,19.8406562 49.4731445,20.1118164 C50.2423541,20.3829766 50.8981093,20.8063122 51.4404297,21.3818359 C51.9827501,21.9573596 52.4005519,22.6850542 52.6938477,23.5649414 C52.9871434,24.4448286 53.1337891,25.4879497 53.1337891,26.6943359 L53.1337891,38 L50.0625,38 L50.0625,26.6611328 C50.0625,25.1891202 49.7111038,24.0934281 49.0083008,23.3740234 C48.3054978,22.6546188 47.3011133,22.3004557 45.9951172,22.3115234 C45.0100862,22.3115234 44.1163777,22.5522437 43.3139648,23.0336914 C42.511552,23.5151391 41.8613306,24.1542929 41.3632812,24.9511719 L41.3632812,38 L38.2919922,38 L38.2919922,12.5 L41.3632812,12.5 L41.3632812,22.7099609 Z M66.6308594,38.3320312 C65.3691343,38.3320312 64.2098035,38.1162131 63.152832,37.6845703 C62.0958606,37.2529275 61.1910845,36.6497435 60.4384766,35.875 C59.6858686,35.1002565 59.099286,34.1816459 58.6787109,33.1191406 C58.2581359,32.0566353 58.0478516,30.9000714 58.0478516,29.6494141 L58.0478516,28.9521484 C58.0478516,27.5022714 58.2802711,26.2045956 58.7451172,25.059082 C59.2099633,23.9135685 59.8269818,22.9451537 60.5961914,22.1538086 C61.365401,21.3624635 62.2397412,20.7565125 63.2192383,20.3359375 C64.1987354,19.9153625 65.2031199,19.7050781 66.2324219,19.7050781 C67.5273502,19.7050781 68.6590121,19.929197 69.6274414,20.3774414 C70.5958707,20.8256858 71.4010385,21.4454713 72.0429688,22.2368164 C72.684899,23.0281615 73.1635726,23.9606066 73.4790039,25.0341797 C73.7944352,26.1077528 73.9521484,27.2698505 73.9521484,28.5205078 L73.9521484,29.8984375 L61.1191406,29.8984375 C61.1523439,30.717452 61.3100572,31.48665 61.5922852,32.2060547 C61.8745131,32.9254593 62.261879,33.5535455 62.7543945,34.090332 C63.24691,34.6271186 63.8362596,35.0504542 64.5224609,35.3603516 C65.2086623,35.6702489 65.9667927,35.8251953 66.796875,35.8251953 C67.8925836,35.8251953 68.8665322,35.6038434 69.71875,35.1611328 C70.5709678,34.7184223 71.2792941,34.1318396 71.84375,33.4013672 L73.7197266,34.8623047 C73.4208969,35.316083 73.0473655,35.7504862 72.5991211,36.1655273 C72.1508767,36.5805685 71.6334665,36.9485661 71.046875,37.2695312 C70.4602835,37.5904964 69.7962277,37.847818 69.0546875,38.0415039 C68.3131473,38.2351898 67.5052127,38.3320312 66.6308594,38.3320312 L66.6308594,38.3320312 Z M66.2324219,22.2285156 C65.6126271,22.2285156 65.0260444,22.3419585 64.4726562,22.5688477 C63.9192681,22.7957368 63.4212262,23.1277647 62.9785156,23.5649414 C62.5358051,24.0021181 62.1622737,24.5388966 61.8579102,25.175293 C61.5535467,25.8116894 61.3404954,26.5449177 61.21875,27.375 L70.8808594,27.375 L70.8808594,27.1425781 C70.8476561,26.5449189 70.7342132,25.9528024 70.5405273,25.3662109 C70.3468415,24.7796195 70.0618508,24.2539086 69.6855469,23.7890625 C69.3092429,23.3242164 68.8361031,22.9479181 68.2661133,22.6601562 C67.6961235,22.3723944 67.0182331,22.2285156 66.2324219,22.2285156 L66.2324219,22.2285156 Z M90.9023438,38 C90.7805983,37.767577 90.6837569,37.4770525 90.6118164,37.128418 C90.5398759,36.7797834 90.4873049,36.4173196 90.4541016,36.0410156 C90.1442042,36.350913 89.7983418,36.6442043 89.4165039,36.9208984 C89.0346661,37.1975925 88.6140973,37.4410797 88.1547852,37.6513672 C87.695473,37.8616547 87.2057318,38.0276687 86.6855469,38.1494141 C86.165362,38.2711595 85.6119821,38.3320312 85.0253906,38.3320312 C84.0735629,38.3320312 83.2130572,38.1936863 82.4438477,37.9169922 C81.6746381,37.6402981 81.0216498,37.2667667 80.4848633,36.7963867 C79.9480767,36.3260068 79.5330418,35.7670931 79.2397461,35.1196289 C78.9464504,34.4721647 78.7998047,33.7721392 78.7998047,33.0195312 C78.7998047,32.0345003 78.9962545,31.1712277 79.3891602,30.4296875 C79.7820658,29.6881473 80.3382125,29.0711288 81.0576172,28.5786133 C81.7770218,28.0860978 82.6430613,27.7181002 83.6557617,27.4746094 C84.6684621,27.2311186 85.800124,27.109375 87.0507812,27.109375 L90.4042969,27.109375 L90.4042969,25.6982422 C90.4042969,25.1559218 90.3046885,24.6689475 90.1054688,24.2373047 C89.906249,23.8056619 89.6240253,23.4376643 89.2587891,23.1333008 C88.8935529,22.8289373 88.4480821,22.5937508 87.9223633,22.4277344 C87.3966445,22.2617179 86.8072949,22.1787109 86.1542969,22.1787109 C85.5455699,22.1787109 85.0004907,22.2561841 84.519043,22.4111328 C84.0375952,22.5660815 83.630861,22.7708321 83.2988281,23.0253906 C82.9667952,23.2799492 82.7094736,23.5815412 82.5268555,23.9301758 C82.3442374,24.2788103 82.2529297,24.6412742 82.2529297,25.0175781 L79.1650391,25.0175781 C79.1761068,24.3645801 79.3448877,23.7226594 79.6713867,23.0917969 C79.9978857,22.4609343 80.4682586,21.89372 81.0825195,21.3901367 C81.6967804,20.8865535 82.4438433,20.4798193 83.3237305,20.1699219 C84.2036177,19.8600245 85.2024684,19.7050781 86.3203125,19.7050781 C87.3385468,19.7050781 88.2848264,19.8295886 89.1591797,20.0786133 C90.033533,20.327638 90.7888966,20.7039363 91.425293,21.2075195 C92.0616894,21.7111028 92.5624982,22.3391889 92.9277344,23.0917969 C93.2929706,23.8444048 93.4755859,24.7242788 93.4755859,25.7314453 L93.4755859,34.0820312 C93.4755859,34.6796905 93.5309239,35.3133105 93.6416016,35.9829102 C93.7522792,36.6525099 93.9072256,37.2363256 94.1064453,37.734375 L94.1064453,38 L90.9023438,38 Z M85.4736328,35.6591797 C86.0712921,35.6591797 86.6302057,35.5817065 87.1503906,35.4267578 C87.6705755,35.2718091 88.1437153,35.0670586 88.5698242,34.8125 C88.9959331,34.5579414 89.3639307,34.267417 89.6738281,33.940918 C89.9837255,33.6144189 90.2272127,33.2740903 90.4042969,32.9199219 L90.4042969,29.2841797 L87.5488281,29.2841797 C85.7558504,29.2841797 84.3613331,29.549802 83.3652344,30.0810547 C82.3691356,30.6123073 81.8710938,31.447911 81.8710938,32.5878906 C81.8710938,33.0306012 81.9458,33.4401023 82.0952148,33.8164062 C82.2446297,34.1927102 82.4687485,34.5164374 82.7675781,34.7875977 C83.0664077,35.0587579 83.4427061,35.2718091 83.8964844,35.4267578 C84.3502627,35.5817065 84.8759736,35.6591797 85.4736328,35.6591797 L85.4736328,35.6591797 Z M98.9208984,28.8691406 C98.9208984,27.5299412 99.0896793,26.298671 99.4272461,25.175293 C99.7648129,24.051915 100.246253,23.0862671 100.871582,22.2783203 C101.496911,21.4703736 102.252274,20.8395205 103.137695,20.3857422 C104.023116,19.9319639 105.013666,19.7050781 106.109375,19.7050781 C107.182948,19.7050781 108.120927,19.8849266 108.92334,20.2446289 C109.725753,20.6043312 110.420244,21.1272752 111.006836,21.8134766 L111.006836,12.5 L114.078125,12.5 L114.078125,38 L111.255859,38 L111.123047,36.1074219 C110.525388,36.8378943 109.811528,37.3912742 108.981445,37.7675781 C108.151363,38.1438821 107.182948,38.3320312 106.076172,38.3320312 C104.991531,38.3320312 104.009282,38.0996117 103.129395,37.6347656 C102.249507,37.1699196 101.499678,36.5279989 100.879883,35.7089844 C100.260088,34.8899699 99.7786475,33.924322 99.4355469,32.8120117 C99.0924462,31.6997015 98.9208984,30.501634 98.9208984,29.2177734 L98.9208984,28.8691406 Z M101.992188,29.2177734 C101.992188,30.0921268 102.086262,30.9221966 102.274414,31.7080078 C102.462566,32.493819 102.75309,33.1855439 103.145996,33.7832031 C103.538902,34.3808624 104.03971,34.8540022 104.648438,35.2026367 C105.257165,35.5512713 105.987626,35.7255859 106.839844,35.7255859 C107.360029,35.7255859 107.830402,35.6647142 108.250977,35.5429688 C108.671552,35.4212233 109.053384,35.2469087 109.396484,35.0200195 C109.739585,34.7931304 110.043944,34.5219742 110.30957,34.206543 C110.575197,33.8911117 110.807616,33.5397155 111.006836,33.1523438 L111.006836,24.8183594 C110.608396,24.087887 110.071618,23.4874698 109.396484,23.0170898 C108.721351,22.5467099 107.880213,22.3115234 106.873047,22.3115234 C106.009761,22.3115234 105.270999,22.488605 104.656738,22.8427734 C104.042477,23.1969419 103.538902,23.6756155 103.145996,24.2788086 C102.75309,24.8820017 102.462566,25.5792604 102.274414,26.3706055 C102.086262,27.1619506 101.992188,27.9947873 101.992188,28.8691406 L101.992188,29.2177734 Z M119.97168,22.9091797 L119.97168,19.7382812 L134.630859,26.0136719 L134.630859,28.4375 L119.97168,34.7294922 L119.97168,31.5419922 L130.712891,27.4912109 L131.708984,27.2089844 L130.712891,26.8935547 L119.97168,22.9091797 Z" id="&lt;head&gt;" fill="#525252" sketch:type="MSShapeGroup"></path>
            </g>
            <g id="title" sketch:type="MSLayerGroup" transform="translate(80.000000, 224.000000)">
                <rect id="Rectangle-1" fill="#D8D8D8" sketch:type="MSShapeGroup" x="0" y="0" width="183" height="52"></rect>
                <path d="M26.7402344,26.9931641 L25.8603516,27.2753906 L26.7402344,27.5742188 L36.9003906,31.4921875 L36.9003906,34.7460938 L22.8222656,28.4541016 L22.8222656,26.0302734 L36.9003906,19.7548828 L36.9003906,23.0087891 L26.7402344,26.9931641 Z M50.5634766,15.6875 L50.5634766,20.0371094 L57.4033203,20.0371094 L57.4033203,22.4111328 L50.5634766,22.4111328 L50.5634766,32.1728516 C50.5634766,32.8701207 50.6520173,33.4456358 50.8291016,33.8994141 C51.0061858,34.3531924 51.2496729,34.7156562 51.5595703,34.9868164 C51.8694677,35.2579766 52.2263977,35.4488927 52.6303711,35.5595703 C53.0343445,35.6702479 53.4632139,35.7255859 53.9169922,35.7255859 C54.2490251,35.7255859 54.5921206,35.7062176 54.9462891,35.6674805 C55.3004575,35.6287433 55.6463199,35.581706 55.9838867,35.5263672 C56.3214535,35.4710284 56.63688,35.4129235 56.9301758,35.3520508 C57.2234715,35.2911781 57.4641918,35.238607 57.6523438,35.1943359 L58.0839844,37.3691406 C57.8294258,37.5240893 57.5195331,37.6596674 57.1542969,37.7758789 C56.7890607,37.8920904 56.3906272,37.9916988 55.9589844,38.074707 C55.5273416,38.1577153 55.0708032,38.2213539 54.5893555,38.265625 C54.1079077,38.3098961 53.6292342,38.3320312 53.1533203,38.3320312 C52.3564413,38.3320312 51.6121454,38.2185884 50.9204102,37.9916992 C50.2286749,37.7648101 49.6282578,37.4051131 49.1191406,36.9125977 C48.6100235,36.4200822 48.2088231,35.7836953 47.9155273,35.003418 C47.6222316,34.2231406 47.4755859,33.2796279 47.4755859,32.1728516 L47.4755859,22.4111328 L42.7607422,22.4111328 L42.7607422,20.0371094 L47.4755859,20.0371094 L47.4755859,15.6875 L50.5634766,15.6875 Z M64.1767578,20.0371094 L73.3574219,20.0371094 L73.3574219,35.34375 L79.2177734,35.34375 L79.2177734,38 L64.1767578,38 L64.1767578,35.34375 L70.2861328,35.34375 L70.2861328,22.7099609 L64.1767578,22.7099609 L64.1767578,20.0371094 Z M69.8876953,15.3222656 C69.8876953,14.8131485 70.0398748,14.3842791 70.3442383,14.0356445 C70.6486018,13.68701 71.110674,13.5126953 71.7304688,13.5126953 C72.3391958,13.5126953 72.7985011,13.68701 73.1083984,14.0356445 C73.4182958,14.3842791 73.5732422,14.8131485 73.5732422,15.3222656 C73.5732422,15.820315 73.4182958,16.2353499 73.1083984,16.5673828 C72.7985011,16.8994157 72.3391958,17.0654297 71.7304688,17.0654297 C71.110674,17.0654297 70.6486018,16.8994157 70.3442383,16.5673828 C70.0398748,16.2353499 69.8876953,15.820315 69.8876953,15.3222656 L69.8876953,15.3222656 Z M91.3701172,15.6875 L91.3701172,20.0371094 L98.2099609,20.0371094 L98.2099609,22.4111328 L91.3701172,22.4111328 L91.3701172,32.1728516 C91.3701172,32.8701207 91.458658,33.4456358 91.6357422,33.8994141 C91.8128264,34.3531924 92.0563136,34.7156562 92.3662109,34.9868164 C92.6761083,35.2579766 93.0330383,35.4488927 93.4370117,35.5595703 C93.8409851,35.6702479 94.2698545,35.7255859 94.7236328,35.7255859 C95.0556657,35.7255859 95.3987613,35.7062176 95.7529297,35.6674805 C96.1070981,35.6287433 96.4529606,35.581706 96.7905273,35.5263672 C97.1280941,35.4710284 97.4435207,35.4129235 97.7368164,35.3520508 C98.0301121,35.2911781 98.2708324,35.238607 98.4589844,35.1943359 L98.890625,37.3691406 C98.6360664,37.5240893 98.3261737,37.6596674 97.9609375,37.7758789 C97.5957013,37.8920904 97.1972678,37.9916988 96.765625,38.074707 C96.3339822,38.1577153 95.8774438,38.2213539 95.3959961,38.265625 C94.9145484,38.3098961 94.4358748,38.3320312 93.9599609,38.3320312 C93.163082,38.3320312 92.418786,38.2185884 91.7270508,37.9916992 C91.0353156,37.7648101 90.4348984,37.4051131 89.9257812,36.9125977 C89.4166641,36.4200822 89.0154637,35.7836953 88.722168,35.003418 C88.4288722,34.2231406 88.2822266,33.2796279 88.2822266,32.1728516 L88.2822266,22.4111328 L83.5673828,22.4111328 L83.5673828,20.0371094 L88.2822266,20.0371094 L88.2822266,15.6875 L91.3701172,15.6875 Z M104.983398,12.5 L114.164062,12.5 L114.164062,35.34375 L120.024414,35.34375 L120.024414,38 L104.983398,38 L104.983398,35.34375 L111.092773,35.34375 L111.092773,15.1728516 L104.983398,15.1728516 L104.983398,12.5 Z M132.84082,38.3320312 C131.579095,38.3320312 130.419764,38.1162131 129.362793,37.6845703 C128.305822,37.2529275 127.401045,36.6497435 126.648438,35.875 C125.89583,35.1002565 125.309247,34.1816459 124.888672,33.1191406 C124.468097,32.0566353 124.257812,30.9000714 124.257812,29.6494141 L124.257812,28.9521484 C124.257812,27.5022714 124.490232,26.2045956 124.955078,25.059082 C125.419924,23.9135685 126.036943,22.9451537 126.806152,22.1538086 C127.575362,21.3624635 128.449702,20.7565125 129.429199,20.3359375 C130.408696,19.9153625 131.413081,19.7050781 132.442383,19.7050781 C133.737311,19.7050781 134.868973,19.929197 135.837402,20.3774414 C136.805832,20.8256858 137.610999,21.4454713 138.25293,22.2368164 C138.89486,23.0281615 139.373534,23.9606066 139.688965,25.0341797 C140.004396,26.1077528 140.162109,27.2698505 140.162109,28.5205078 L140.162109,29.8984375 L127.329102,29.8984375 C127.362305,30.717452 127.520018,31.48665 127.802246,32.2060547 C128.084474,32.9254593 128.47184,33.5535455 128.964355,34.090332 C129.456871,34.6271186 130.046221,35.0504542 130.732422,35.3603516 C131.418623,35.6702489 132.176754,35.8251953 133.006836,35.8251953 C134.102545,35.8251953 135.076493,35.6038434 135.928711,35.1611328 C136.780929,34.7184223 137.489255,34.1318396 138.053711,33.4013672 L139.929688,34.8623047 C139.630858,35.316083 139.257326,35.7504862 138.809082,36.1655273 C138.360838,36.5805685 137.843427,36.9485661 137.256836,37.2695312 C136.670244,37.5904964 136.006189,37.847818 135.264648,38.0415039 C134.523108,38.2351898 133.715174,38.3320312 132.84082,38.3320312 L132.84082,38.3320312 Z M132.442383,22.2285156 C131.822588,22.2285156 131.236005,22.3419585 130.682617,22.5688477 C130.129229,22.7957368 129.631187,23.1277647 129.188477,23.5649414 C128.745766,24.0021181 128.372235,24.5388966 128.067871,25.175293 C127.763508,25.8116894 127.550456,26.5449177 127.428711,27.375 L137.09082,27.375 L137.09082,27.1425781 C137.057617,26.5449189 136.944174,25.9528024 136.750488,25.3662109 C136.556802,24.7796195 136.271812,24.2539086 135.895508,23.7890625 C135.519204,23.3242164 135.046064,22.9479181 134.476074,22.6601562 C133.906084,22.3723944 133.228194,22.2285156 132.442383,22.2285156 L132.442383,22.2285156 Z M145.375,22.9091797 L145.375,19.7382812 L160.03418,26.0136719 L160.03418,28.4375 L145.375,34.7294922 L145.375,31.5419922 L156.116211,27.4912109 L157.112305,27.2089844 L156.116211,26.8935547 L145.375,22.9091797 Z" id="&lt;title&gt;" fill="#525252" sketch:type="MSShapeGroup"></path>
            </g>
            <g id="hi" sketch:type="MSLayerGroup" transform="translate(349.000000, 320.000000)">
                <ellipse id="Oval-1" fill="#D8D8D8" sketch:type="MSShapeGroup" cx="59.5" cy="30" rx="59.5" ry="30"></ellipse>
                <path d="M44.9599609,26.7099609 C45.6018912,25.769201 46.3932245,25.0359727 47.3339844,24.5102539 C48.2747443,23.9845351 49.3316999,23.7161459 50.5048828,23.7050781 C51.4456427,23.7050781 52.3006146,23.8406562 53.0698242,24.1118164 C53.8390338,24.3829766 54.494789,24.8063122 55.0371094,25.3818359 C55.5794298,25.9573596 55.9972316,26.6850542 56.2905273,27.5649414 C56.5838231,28.4448286 56.7304688,29.4879497 56.7304688,30.6943359 L56.7304688,42 L53.6591797,42 L53.6591797,30.6611328 C53.6591797,29.1891202 53.3077835,28.0934281 52.6049805,27.3740234 C51.9021775,26.6546188 50.897793,26.3004557 49.5917969,26.3115234 C48.6067659,26.3115234 47.7130574,26.5522437 46.9106445,27.0336914 C46.1082317,27.5151391 45.4580103,28.1542929 44.9599609,28.9511719 L44.9599609,42 L41.8886719,42 L41.8886719,16.5 L44.9599609,16.5 L44.9599609,26.7099609 Z M62.7734375,24.0371094 L71.9541016,24.0371094 L71.9541016,39.34375 L77.8144531,39.34375 L77.8144531,42 L62.7734375,42 L62.7734375,39.34375 L68.8828125,39.34375 L68.8828125,26.7099609 L62.7734375,26.7099609 L62.7734375,24.0371094 Z M68.484375,19.3222656 C68.484375,18.8131485 68.6365545,18.3842791 68.940918,18.0356445 C69.2452815,17.68701 69.7073537,17.5126953 70.3271484,17.5126953 C70.9358754,17.5126953 71.3951807,17.68701 71.7050781,18.0356445 C72.0149755,18.3842791 72.1699219,18.8131485 72.1699219,19.3222656 C72.1699219,19.820315 72.0149755,20.2353499 71.7050781,20.5673828 C71.3951807,20.8994157 70.9358754,21.0654297 70.3271484,21.0654297 C69.7073537,21.0654297 69.2452815,20.8994157 68.940918,20.5673828 C68.6365545,20.2353499 68.484375,19.820315 68.484375,19.3222656 L68.484375,19.3222656 Z" fill="#525252" sketch:type="MSShapeGroup"></path>
            </g>
            <g id="awesome" sketch:type="MSLayerGroup" transform="translate(71.000000, 320.000000)">
                <ellipse id="Oval-1" fill="#D8D8D8" sketch:type="MSShapeGroup" cx="102.5" cy="30" rx="102.5" ry="30"></ellipse>
                <path d="M45.6923828,42 C45.5706374,41.767577 45.4737959,41.4770525 45.4018555,41.128418 C45.329915,40.7797834 45.2773439,40.4173196 45.2441406,40.0410156 C44.9342432,40.350913 44.5883808,40.6442043 44.206543,40.9208984 C43.8247051,41.1975925 43.4041364,41.4410797 42.9448242,41.6513672 C42.485512,41.8616547 41.9957708,42.0276687 41.4755859,42.1494141 C40.955401,42.2711595 40.4020212,42.3320312 39.8154297,42.3320312 C38.863602,42.3320312 38.0030963,42.1936863 37.2338867,41.9169922 C36.4646771,41.6402981 35.8116889,41.2667667 35.2749023,40.7963867 C34.7381158,40.3260068 34.3230809,39.7670931 34.0297852,39.1196289 C33.7364894,38.4721647 33.5898438,37.7721392 33.5898438,37.0195312 C33.5898438,36.0345003 33.7862936,35.1712277 34.1791992,34.4296875 C34.5721048,33.6881473 35.1282516,33.0711288 35.8476562,32.5786133 C36.5670609,32.0860978 37.4331004,31.7181002 38.4458008,31.4746094 C39.4585012,31.2311186 40.590163,31.109375 41.8408203,31.109375 L45.1943359,31.109375 L45.1943359,29.6982422 C45.1943359,29.1559218 45.0947276,28.6689475 44.8955078,28.2373047 C44.6962881,27.8056619 44.4140643,27.4376643 44.0488281,27.1333008 C43.6835919,26.8289373 43.2381211,26.5937508 42.7124023,26.4277344 C42.1866836,26.2617179 41.597334,26.1787109 40.9443359,26.1787109 C40.3356089,26.1787109 39.7905298,26.2561841 39.309082,26.4111328 C38.8276343,26.5660815 38.4209001,26.7708321 38.0888672,27.0253906 C37.7568343,27.2799492 37.4995126,27.5815412 37.3168945,27.9301758 C37.1342764,28.2788103 37.0429688,28.6412742 37.0429688,29.0175781 L33.9550781,29.0175781 C33.9661459,28.3645801 34.1349268,27.7226594 34.4614258,27.0917969 C34.7879248,26.4609343 35.2582977,25.89372 35.8725586,25.3901367 C36.4868195,24.8865535 37.2338823,24.4798193 38.1137695,24.1699219 C38.9936567,23.8600245 39.9925074,23.7050781 41.1103516,23.7050781 C42.1285858,23.7050781 43.0748654,23.8295886 43.9492188,24.0786133 C44.8235721,24.327638 45.5789356,24.7039363 46.215332,25.2075195 C46.8517284,25.7111028 47.3525372,26.3391889 47.7177734,27.0917969 C48.0830096,27.8444048 48.265625,28.7242788 48.265625,29.7314453 L48.265625,38.0820312 C48.265625,38.6796905 48.320963,39.3133105 48.4316406,39.9829102 C48.5423183,40.6525099 48.6972646,41.2363256 48.8964844,41.734375 L48.8964844,42 L45.6923828,42 Z M40.2636719,39.6591797 C40.8613311,39.6591797 41.4202448,39.5817065 41.9404297,39.4267578 C42.4606146,39.2718091 42.9337544,39.0670586 43.3598633,38.8125 C43.7859722,38.5579414 44.1539698,38.267417 44.4638672,37.940918 C44.7737646,37.6144189 45.0172517,37.2740903 45.1943359,36.9199219 L45.1943359,33.2841797 L42.3388672,33.2841797 C40.5458895,33.2841797 39.1513722,33.549802 38.1552734,34.0810547 C37.1591747,34.6123073 36.6611328,35.447911 36.6611328,36.5878906 C36.6611328,37.0306012 36.7358391,37.4401023 36.8852539,37.8164062 C37.0346687,38.1927102 37.2587876,38.5164374 37.5576172,38.7875977 C37.8564468,39.0587579 38.2327451,39.2718091 38.6865234,39.4267578 C39.1403017,39.5817065 39.6660126,39.6591797 40.2636719,39.6591797 L40.2636719,39.6591797 Z M57.0146484,35.4921875 L57.3798828,38.0654297 L57.828125,35.4921875 L60.7001953,24.0371094 L62.6757812,24.0371094 L65.53125,35.4921875 L66.0126953,38.3144531 L66.4609375,35.4921875 L68.453125,24.0371094 L71.1757812,24.0371094 L67.3574219,42 L64.9335938,42 L62.1279297,30.9931641 L61.6630859,28.2041016 L61.2148438,30.9931641 L58.4423828,42 L56.0185547,42 L52.2001953,24.0371094 L54.9228516,24.0371094 L57.0146484,35.4921875 Z M82.6308594,42.3320312 C81.3691343,42.3320312 80.2098035,42.1162131 79.152832,41.6845703 C78.0958606,41.2529275 77.1910845,40.6497435 76.4384766,39.875 C75.6858686,39.1002565 75.099286,38.1816459 74.6787109,37.1191406 C74.2581359,36.0566353 74.0478516,34.9000714 74.0478516,33.6494141 L74.0478516,32.9521484 C74.0478516,31.5022714 74.2802711,30.2045956 74.7451172,29.059082 C75.2099633,27.9135685 75.8269818,26.9451537 76.5961914,26.1538086 C77.365401,25.3624635 78.2397412,24.7565125 79.2192383,24.3359375 C80.1987354,23.9153625 81.2031199,23.7050781 82.2324219,23.7050781 C83.5273502,23.7050781 84.6590121,23.929197 85.6274414,24.3774414 C86.5958707,24.8256858 87.4010385,25.4454713 88.0429688,26.2368164 C88.684899,27.0281615 89.1635726,27.9606066 89.4790039,29.0341797 C89.7944352,30.1077528 89.9521484,31.2698505 89.9521484,32.5205078 L89.9521484,33.8984375 L77.1191406,33.8984375 C77.1523439,34.717452 77.3100572,35.48665 77.5922852,36.2060547 C77.8745131,36.9254593 78.261879,37.5535455 78.7543945,38.090332 C79.24691,38.6271186 79.8362596,39.0504542 80.5224609,39.3603516 C81.2086623,39.6702489 81.9667927,39.8251953 82.796875,39.8251953 C83.8925836,39.8251953 84.8665322,39.6038434 85.71875,39.1611328 C86.5709678,38.7184223 87.2792941,38.1318396 87.84375,37.4013672 L89.7197266,38.8623047 C89.4208969,39.316083 89.0473655,39.7504862 88.5991211,40.1655273 C88.1508767,40.5805685 87.6334665,40.9485661 87.046875,41.2695312 C86.4602835,41.5904964 85.7962277,41.847818 85.0546875,42.0415039 C84.3131473,42.2351898 83.5052127,42.3320312 82.6308594,42.3320312 L82.6308594,42.3320312 Z M82.2324219,26.2285156 C81.6126271,26.2285156 81.0260444,26.3419585 80.4726562,26.5688477 C79.9192681,26.7957368 79.4212262,27.1277647 78.9785156,27.5649414 C78.5358051,28.0021181 78.1622737,28.5388966 77.8579102,29.175293 C77.5535467,29.8116894 77.3404954,30.5449177 77.21875,31.375 L86.8808594,31.375 L86.8808594,31.1425781 C86.8476561,30.5449189 86.7342132,29.9528024 86.5405273,29.3662109 C86.3468415,28.7796195 86.0618508,28.2539086 85.6855469,27.7890625 C85.3092429,27.3242164 84.8361031,26.9479181 84.2661133,26.6601562 C83.6961235,26.3723944 83.0182331,26.2285156 82.2324219,26.2285156 L82.2324219,26.2285156 Z M107.035156,37.2353516 C107.035156,36.8701154 106.963217,36.5408543 106.819336,36.2475586 C106.675455,35.9542629 106.431968,35.6858736 106.088867,35.4423828 C105.745767,35.198892 105.291995,34.9747732 104.727539,34.7700195 C104.163083,34.5652659 103.460291,34.3798836 102.619141,34.2138672 C101.589839,34.0035797 100.65186,33.7490249 99.8051758,33.4501953 C98.9584919,33.1513657 98.2335642,32.7944357 97.6303711,32.3793945 C97.027178,31.9643534 96.559572,31.4773791 96.2275391,30.918457 C95.8955062,30.359535 95.7294922,29.7093136 95.7294922,28.9677734 C95.7294922,28.237301 95.90104,27.5538769 96.2441406,26.9174805 C96.5872413,26.2810841 97.0686818,25.7249373 97.6884766,25.2490234 C98.3082713,24.7731096 99.0470335,24.3968113 99.9047852,24.1201172 C100.762537,23.8434231 101.70605,23.7050781 102.735352,23.7050781 C103.842128,23.7050781 104.838212,23.8489569 105.723633,24.1367188 C106.609054,24.4244806 107.361651,24.8229141 107.981445,25.3320312 C108.60124,25.8411484 109.079914,26.4360318 109.41748,27.1166992 C109.755047,27.7973667 109.923828,28.530595 109.923828,29.3164062 L106.852539,29.3164062 C106.852539,28.9290345 106.752931,28.5499693 106.553711,28.1791992 C106.354491,27.8084291 106.077801,27.4791681 105.723633,27.1914062 C105.369464,26.9036444 104.940595,26.6712248 104.437012,26.4941406 C103.933428,26.3170564 103.366214,26.2285156 102.735352,26.2285156 C102.082354,26.2285156 101.509605,26.300455 101.01709,26.4443359 C100.524574,26.5882169 100.115073,26.7818998 99.7885742,27.0253906 C99.4620752,27.2688814 99.2158211,27.5511052 99.0498047,27.8720703 C98.8837882,28.1930355 98.8007812,28.5250634 98.8007812,28.8681641 C98.8007812,29.2223325 98.8671868,29.537759 99,29.8144531 C99.1328132,30.0911472 99.3624658,30.3401682 99.6889648,30.5615234 C100.015464,30.7828787 100.452634,30.9820955 101.000488,31.1591797 C101.548343,31.3362639 102.242834,31.5078117 103.083984,31.6738281 C104.190761,31.9062512 105.181311,32.1746404 106.055664,32.4790039 C106.930017,32.7833674 107.666013,33.1485981 108.263672,33.574707 C108.861331,34.0008159 109.31787,34.4960909 109.633301,35.0605469 C109.948732,35.6250028 110.106445,36.2779911 110.106445,37.0195312 C110.106445,37.8164102 109.926597,38.5413379 109.566895,39.1943359 C109.207192,39.847334 108.706383,40.4062477 108.064453,40.8710938 C107.422523,41.3359398 106.653325,41.6956367 105.756836,41.9501953 C104.860347,42.2047539 103.880865,42.3320312 102.818359,42.3320312 C101.600905,42.3320312 100.516281,42.1687842 99.5644531,41.8422852 C98.6126254,41.5157861 97.8074577,41.0841498 97.1489258,40.5473633 C96.4903938,40.0105767 95.9868181,39.3880244 95.6381836,38.6796875 C95.289549,37.9713506 95.1152344,37.2353554 95.1152344,36.4716797 L98.1865234,36.4716797 C98.2307945,37.1025422 98.3995754,37.6337869 98.6928711,38.0654297 C98.9861668,38.4970725 99.3513976,38.8457018 99.7885742,39.1113281 C100.225751,39.3769545 100.709958,39.5651036 101.241211,39.6757812 C101.772464,39.7864589 102.298174,39.8417969 102.818359,39.8417969 C104.113288,39.8417969 105.137041,39.6038435 105.889648,39.1279297 C106.642256,38.6520158 107.024088,38.0211628 107.035156,37.2353516 L107.035156,37.2353516 Z M114.638672,32.8525391 C114.638672,31.5576107 114.826821,30.3540095 115.203125,29.2416992 C115.579429,28.129389 116.118974,27.1637411 116.821777,26.3447266 C117.52458,25.5257121 118.379552,24.8810245 119.386719,24.4106445 C120.393885,23.9402646 121.528314,23.7050781 122.790039,23.7050781 C124.062832,23.7050781 125.205561,23.9402646 126.218262,24.4106445 C127.230962,24.8810245 128.088701,25.5257121 128.791504,26.3447266 C129.494307,27.1637411 130.033852,28.129389 130.410156,29.2416992 C130.78646,30.3540095 130.974609,31.5576107 130.974609,32.8525391 L130.974609,33.2177734 C130.974609,34.5127018 130.78646,35.7135361 130.410156,36.8203125 C130.033852,37.9270889 129.494307,38.8899699 128.791504,39.7089844 C128.088701,40.5279989 127.233729,41.1699196 126.226562,41.6347656 C125.219396,42.0996117 124.084967,42.3320312 122.823242,42.3320312 C121.550449,42.3320312 120.40772,42.0996117 119.39502,41.6347656 C118.382319,41.1699196 117.52458,40.5279989 116.821777,39.7089844 C116.118974,38.8899699 115.579429,37.9270889 115.203125,36.8203125 C114.826821,35.7135361 114.638672,34.5127018 114.638672,33.2177734 L114.638672,32.8525391 Z M117.709961,33.2177734 C117.709961,34.1031945 117.815103,34.9470989 118.025391,35.7495117 C118.235678,36.5519246 118.553872,37.2574839 118.97998,37.8662109 C119.406089,38.4749379 119.940101,38.9563784 120.582031,39.3105469 C121.223962,39.6647153 121.971024,39.8417969 122.823242,39.8417969 C123.664392,39.8417969 124.403154,39.6647153 125.039551,39.3105469 C125.675947,38.9563784 126.207192,38.4749379 126.633301,37.8662109 C127.05941,37.2574839 127.377603,36.5519246 127.587891,35.7495117 C127.798178,34.9470989 127.90332,34.1031945 127.90332,33.2177734 L127.90332,32.8525391 C127.90332,31.9781857 127.795411,31.1398152 127.57959,30.3374023 C127.363768,29.5349895 127.042808,28.8294301 126.616699,28.2207031 C126.19059,27.6119761 125.659346,27.1277687 125.022949,26.7680664 C124.386553,26.4083641 123.642257,26.2285156 122.790039,26.2285156 C121.937821,26.2285156 121.196292,26.4083641 120.56543,26.7680664 C119.934567,27.1277687 119.406089,27.6119761 118.97998,28.2207031 C118.553872,28.8294301 118.235678,29.5349895 118.025391,30.3374023 C117.815103,31.1398152 117.709961,31.9781857 117.709961,32.8525391 L117.709961,33.2177734 Z M137.316406,24.0371094 L137.399414,25.7304688 C137.76465,25.0996062 138.243324,24.6070981 138.835449,24.2529297 C139.427575,23.8987612 140.144202,23.7161459 140.985352,23.7050781 C142.634448,23.7050781 143.735674,24.3469988 144.289062,25.6308594 C144.643231,25.0553357 145.110837,24.5932635 145.691895,24.2446289 C146.272952,23.8959944 146.978511,23.7161459 147.808594,23.7050781 C149.125658,23.7050781 150.138343,24.1090454 150.84668,24.9169922 C151.555017,25.7249389 151.90918,26.9479085 151.90918,28.5859375 L151.90918,42 L148.987305,42 L148.987305,28.5527344 C148.987305,27.0475185 148.29558,26.3004557 146.912109,26.3115234 C146.546873,26.3115234 146.231447,26.3613276 145.96582,26.4609375 C145.700194,26.5605474 145.478842,26.6961254 145.301758,26.8676758 C145.124674,27.0392261 144.986329,27.2384429 144.886719,27.465332 C144.787109,27.6922212 144.720703,27.9274076 144.6875,28.1708984 L144.6875,42 L141.765625,42 L141.765625,28.5361328 C141.765625,27.8167282 141.605145,27.2633483 141.28418,26.8759766 C140.963215,26.4886048 140.454105,26.3004557 139.756836,26.3115234 C139.114906,26.3115234 138.616864,26.4388008 138.262695,26.6933594 C137.908527,26.9479179 137.648438,27.2854797 137.482422,27.7060547 L137.482422,42 L134.560547,42 L134.560547,24.0371094 L137.316406,24.0371094 Z M164.244141,42.3320312 C162.982416,42.3320312 161.823085,42.1162131 160.766113,41.6845703 C159.709142,41.2529275 158.804366,40.6497435 158.051758,39.875 C157.29915,39.1002565 156.712567,38.1816459 156.291992,37.1191406 C155.871417,36.0566353 155.661133,34.9000714 155.661133,33.6494141 L155.661133,32.9521484 C155.661133,31.5022714 155.893552,30.2045956 156.358398,29.059082 C156.823245,27.9135685 157.440263,26.9451537 158.209473,26.1538086 C158.978682,25.3624635 159.853022,24.7565125 160.83252,24.3359375 C161.812017,23.9153625 162.816401,23.7050781 163.845703,23.7050781 C165.140631,23.7050781 166.272293,23.929197 167.240723,24.3774414 C168.209152,24.8256858 169.01432,25.4454713 169.65625,26.2368164 C170.29818,27.0281615 170.776854,27.9606066 171.092285,29.0341797 C171.407716,30.1077528 171.56543,31.2698505 171.56543,32.5205078 L171.56543,33.8984375 L158.732422,33.8984375 C158.765625,34.717452 158.923338,35.48665 159.205566,36.2060547 C159.487794,36.9254593 159.87516,37.5535455 160.367676,38.090332 C160.860191,38.6271186 161.449541,39.0504542 162.135742,39.3603516 C162.821944,39.6702489 163.580074,39.8251953 164.410156,39.8251953 C165.505865,39.8251953 166.479813,39.6038434 167.332031,39.1611328 C168.184249,38.7184223 168.892575,38.1318396 169.457031,37.4013672 L171.333008,38.8623047 C171.034178,39.316083 170.660647,39.7504862 170.212402,40.1655273 C169.764158,40.5805685 169.246748,40.9485661 168.660156,41.2695312 C168.073565,41.5904964 167.409509,41.847818 166.667969,42.0415039 C165.926429,42.2351898 165.118494,42.3320312 164.244141,42.3320312 L164.244141,42.3320312 Z M163.845703,26.2285156 C163.225908,26.2285156 162.639326,26.3419585 162.085938,26.5688477 C161.532549,26.7957368 161.034507,27.1277647 160.591797,27.5649414 C160.149086,28.0021181 159.775555,28.5388966 159.471191,29.175293 C159.166828,29.8116894 158.953777,30.5449177 158.832031,31.375 L168.494141,31.375 L168.494141,31.1425781 C168.460937,30.5449189 168.347494,29.9528024 168.153809,29.3662109 C167.960123,28.7796195 167.675132,28.2539086 167.298828,27.7890625 C166.922524,27.3242164 166.449384,26.9479181 165.879395,26.6601562 C165.309405,26.3723944 164.631514,26.2285156 163.845703,26.2285156 L163.845703,26.2285156 Z" fill="#525252" sketch:type="MSShapeGroup"></path>
            </g>
            <path d="M250,122 L279.5,89.5" id="Line" stroke="#979797" stroke-width="2" stroke-linecap="square" sketch:type="MSShapeGroup"></path>
            <path d="M296,122 L325.5,89.5" id="Line-Copy" stroke="#979797" stroke-width="2" stroke-linecap="square" sketch:type="MSShapeGroup" transform="translate(311.000000, 105.500000) scale(1, -1) translate(-311.000000, -105.500000) "></path>
            <path d="M172,217.5 L172,186.5" id="Line" stroke="#979797" stroke-width="2" stroke-linecap="square" sketch:type="MSShapeGroup"></path>
            <path d="M412,217.5 L412,186.5" id="Line-Copy-2" stroke="#979797" stroke-width="2" stroke-linecap="square" sketch:type="MSShapeGroup"></path>
            <path d="M412,312.5 L412,281.5" id="Line-Copy-3" stroke="#979797" stroke-width="2" stroke-linecap="square" sketch:type="MSShapeGroup"></path>
            <path d="M172,312.5 L172,281.5" id="Line-Copy-4" stroke="#979797" stroke-width="2" stroke-linecap="square" sketch:type="MSShapeGroup"></path>
        </g>
    </g>
</svg>