<svg width="580" height="414" viewBox="0 0 580 414" xmlns="http://www.w3.org/2000/svg"><title>dom-tree</title><g fill="none" fill-rule="evenodd"><path fill="#D8D8D8" d="M214 32h153v52H214z"/><path d="M235.74 58.993l-.88.282.88.3 10.16 3.917v3.254l-14.078-6.292V58.03l14.078-6.275v3.254l-10.16 3.983zm19.623-4.283c.642-.94 1.434-1.674 2.374-2.2.94-.525 1.998-.794 3.17-.805.942 0 1.797.136 2.566.407.77.27 1.425.694 1.967 1.27.543.575.96 1.303 1.254 2.183.293.88.44 1.923.44 3.13V70h-3.072V58.66c0-1.47-.35-2.567-1.054-3.286-.703-.72-1.707-1.074-3.013-1.062-.985 0-1.88.24-2.68.722a5.772 5.772 0 0 0-1.952 1.917V70h-3.07V44.5h3.07v10.21zm24.604-7.023v4.35h6.84v2.374h-6.84v9.763c0 .697.088 1.273.265 1.726.178.453.42.816.73 1.087.31.27.668.462 1.072.573.404.11.833.166 1.286.166.332 0 .675-.02 1.03-.06.354-.037.7-.084 1.037-.14a22.9 22.9 0 0 0 .946-.174c.294-.06.535-.113.723-.158l.43 2.175c-.253.154-.563.29-.928.406a10.47 10.47 0 0 1-1.196.3 14.09 14.09 0 0 1-1.37.19c-.48.044-.96.066-1.435.066-.797 0-1.542-.113-2.233-.34a4.628 4.628 0 0 1-1.802-1.08c-.51-.492-.91-1.128-1.203-1.91-.294-.78-.44-1.722-.44-2.83v-9.76h-4.716v-2.375h4.715v-4.35h3.087zm14.543 4.35l.083 1.693a4.046 4.046 0 0 1 1.436-1.477c.59-.354 1.308-.537 2.15-.548 1.648 0 2.75.642 3.302 1.926a4.1 4.1 0 0 1 1.403-1.385c.58-.35 1.287-.53 2.117-.54 1.317 0 2.33.404 3.038 1.212.708.808 1.063 2.03 1.063 3.67V70h-2.922V56.553c0-1.505-.69-2.253-2.075-2.24-.365 0-.68.048-.946.148-.266.1-.488.236-.665.408-.177.17-.315.37-.415.597-.1.227-.166.462-.2.706V70h-2.92V56.536c0-.72-.16-1.273-.482-1.66-.32-.387-.83-.576-1.528-.564-.642 0-1.14.127-1.494.38a2.223 2.223 0 0 0-.78 1.014V70h-2.922V52.037h2.756zm19.473-7.537h9.18v22.844h5.86V70h-15.04v-2.656h6.11v-20.17h-6.11V44.5zm19.99 10.41v-3.172l14.658 6.276v2.423l-14.658 6.292V63.54l10.74-4.05.997-.283-.997-.316-10.74-3.985z" fill="#525252"/><path fill="#D8D8D8" d="M332 128h153v52H332z"/><path d="M353.74 154.993l-.88.282.88.3 10.16 3.917v3.254l-14.078-6.292v-2.424l14.078-6.275v3.254l-10.16 3.983zm31.776 2.225c0 1.284-.155 2.482-.465 3.594-.31 1.112-.763 2.078-1.36 2.897a6.436 6.436 0 0 1-2.217 1.925c-.88.465-1.89.697-3.03.697-1.15 0-2.15-.205-2.996-.614a6.093 6.093 0 0 1-2.167-1.76l-.15 2.042h-2.82v-25.5h3.07v9.463a5.89 5.89 0 0 1 2.125-1.677c.83-.387 1.798-.58 2.905-.58 1.15 0 2.17.226 3.055.68a6.318 6.318 0 0 1 2.224 1.892c.597.808 1.05 1.774 1.36 2.897.31 1.124.466 2.355.466 3.694v.348zm-3.072-.35c0-.873-.085-1.706-.257-2.497-.172-.79-.445-1.488-.822-2.09a4.22 4.22 0 0 0-1.477-1.437c-.61-.354-1.356-.53-2.242-.53-.53 0-1.018.068-1.46.206a4.16 4.16 0 0 0-1.187.58c-.35.25-.66.542-.93.88-.272.338-.502.706-.69 1.104v7.853c.2.398.434.766.705 1.104.272.338.584.634.938.89.355.253.753.45 1.196.588.44.138.928.208 1.46.208.84 0 1.563-.175 2.166-.523a4.265 4.265 0 0 0 1.478-1.42c.382-.597.664-1.29.846-2.075.183-.786.274-1.616.274-2.49v-.35zm7.388-.015c0-1.295.188-2.5.564-3.61.377-1.114.916-2.08 1.62-2.898a7.538 7.538 0 0 1 2.564-1.934c1.007-.47 2.142-.705 3.403-.705 1.273 0 2.416.235 3.43.706a7.517 7.517 0 0 1 2.572 1.935c.703.82 1.242 1.784 1.62 2.897.375 1.112.563 2.316.563 3.61v.366c0 1.295-.188 2.496-.564 3.602-.377 1.107-.916 2.07-1.62 2.89a7.446 7.446 0 0 1-2.564 1.925c-1.007.465-2.142.697-3.403.697-1.273 0-2.416-.232-3.43-.697a7.426 7.426 0 0 1-2.572-1.926c-.703-.82-1.242-1.783-1.62-2.89-.375-1.106-.563-2.307-.563-3.602v-.365zm3.07.365c0 .885.106 1.73.317 2.532a6.55 6.55 0 0 0 .953 2.116c.426.61.96 1.09 1.602 1.445.642.355 1.39.532 2.242.532.84 0 1.58-.177 2.216-.53a4.737 4.737 0 0 0 1.594-1.446 6.55 6.55 0 0 0 .954-2.116 9.95 9.95 0 0 0 .317-2.532v-.365c0-.875-.108-1.713-.324-2.516a6.682 6.682 0 0 0-.963-2.116 4.82 4.82 0 0 0-1.594-1.452c-.636-.36-1.38-.54-2.233-.54-.852 0-1.593.18-2.224.54-.632.36-1.16.844-1.587 1.453a6.55 6.55 0 0 0-.954 2.117 9.882 9.882 0 0 0-.317 2.516v.365zm17.616-.35c0-1.338.168-2.57.506-3.693.337-1.123.82-2.09 1.444-2.897a6.708 6.708 0 0 1 2.266-1.892c.886-.454 1.876-.68 2.972-.68 1.074 0 2.012.18 2.814.54.802.358 1.497.88 2.084 1.567V140.5h3.07V166h-2.82l-.134-1.893a5.874 5.874 0 0 1-2.142 1.66c-.83.377-1.798.565-2.905.565-1.085 0-2.067-.232-2.947-.697a6.752 6.752 0 0 1-2.25-1.926c-.62-.82-1.1-1.786-1.444-2.898-.343-1.112-.514-2.31-.514-3.594v-.35zm3.07.35c0 .874.095 1.704.283 2.49.19.786.48 1.478.873 2.075.393.598.893 1.07 1.502 1.42.61.348 1.34.523 2.192.523.52 0 .99-.06 1.41-.183a4.158 4.158 0 0 0 2.06-1.336c.265-.316.497-.667.697-1.055v-8.334a5.197 5.197 0 0 0-1.61-1.8c-.676-.47-1.517-.706-2.524-.706-.864 0-1.602.177-2.217.53a4.41 4.41 0 0 0-1.51 1.437 6.592 6.592 0 0 0-.872 2.09 10.77 10.77 0 0 0-.28 2.5v.348zm24.52 2.407l.798 2.175 5.48-13.763h3.435l-9.113 20.735c-.21.465-.48.958-.805 1.478a7.493 7.493 0 0 1-1.187 1.444 6.315 6.315 0 0 1-1.627 1.113c-.62.298-1.334.448-2.142.448a5.2 5.2 0 0 1-.48-.025 8.702 8.702 0 0 1-1.03-.158c-.155-.033-.283-.06-.382-.083l.498-2.508c.077 0 .182.006.315.017l.415.032a11.85 11.85 0 0 0 .73.033c.42 0 .806-.116 1.155-.348.348-.233.658-.51.93-.83.27-.32.503-.653.696-.996.194-.342.346-.625.457-.846l1.23-2.39-7.738-17.117h3.437l4.93 11.588zm13.864-8.716v-3.172l14.66 6.276v2.424l-14.66 6.29v-3.186l10.74-4.05.997-.283-.997-.316-10.74-3.985z" fill="#525252"/><path fill="#D8D8D8" d="M332 224h153v52H332z"/><path d="M374.74 250.993l-.88.282.88.3 10.16 3.917v3.254l-14.078-6.292v-2.424l14.078-6.275v3.254l-10.16 3.983zm19.623-4.283c.642-.94 1.434-1.674 2.374-2.2.94-.525 1.998-.794 3.17-.805.942 0 1.797.136 2.566.407.77.27 1.425.694 1.967 1.27.543.575.96 1.303 1.254 2.183.293.88.44 1.923.44 3.13V262h-3.072v-11.34c0-1.47-.35-2.567-1.054-3.286-.703-.72-1.707-1.074-3.013-1.062-.985 0-1.88.24-2.68.722a5.772 5.772 0 0 0-1.952 1.917V262h-3.07v-25.5h3.07v10.21zM421.656 262h-3.07v-20.254l-6.326 2.407v-2.805l9.147-3.52h.25V262zm10.51-15.09v-3.172l14.658 6.276v2.424l-14.66 6.29v-3.186l10.742-4.05.996-.283-.996-.316-10.74-3.985z" fill="#525252"/><path fill="#D8D8D8" d="M95 128h153v52H95z"/><path d="M116.74 154.993l-.88.282.88.3 10.16 3.917v3.254l-14.078-6.292v-2.424l14.078-6.275v3.254l-10.16 3.983zm19.623-4.283c.642-.94 1.434-1.674 2.374-2.2.94-.525 1.998-.794 3.17-.805.942 0 1.797.136 2.566.407.77.27 1.425.694 1.967 1.27.543.575.96 1.303 1.254 2.183.293.88.44 1.923.44 3.13V166h-3.07v-11.34c0-1.47-.353-2.567-1.056-3.286-.703-.72-1.707-1.074-3.013-1.062-.985 0-1.88.24-2.68.722a5.772 5.772 0 0 0-1.952 1.917V166h-3.07v-25.5h3.07v10.21zm25.268 15.622c-1.26 0-2.42-.216-3.477-.647a7.892 7.892 0 0 1-2.715-1.81 8.278 8.278 0 0 1-1.76-2.756c-.42-1.063-.63-2.22-.63-3.47v-.698c0-1.45.232-2.747.697-3.893.465-1.146 1.082-2.115 1.85-2.906a8.076 8.076 0 0 1 2.624-1.818c.98-.42 1.983-.63 3.012-.63 1.295 0 2.427.223 3.395.67a6.663 6.663 0 0 1 2.416 1.86c.642.792 1.12 1.725 1.436 2.798.314 1.074.472 2.236.472 3.487v1.378H156.12c.032.82.19 1.59.472 2.308.283.72.67 1.348 1.162 1.884a5.37 5.37 0 0 0 1.768 1.27c.687.31 1.445.465 2.275.465 1.096 0 2.07-.22 2.922-.664a6.338 6.338 0 0 0 2.124-1.76l1.876 1.462c-.3.454-.673.888-1.12 1.304a7.736 7.736 0 0 1-1.553 1.104c-.587.32-1.25.578-1.992.772-.742.193-1.55.29-2.424.29zm-.398-16.103c-.62 0-1.206.112-1.76.34a4.59 4.59 0 0 0-1.493.995 5.68 5.68 0 0 0-1.122 1.61c-.304.637-.518 1.37-.64 2.2h9.663v-.232a6.858 6.858 0 0 0-.34-1.777 4.95 4.95 0 0 0-.854-1.577 4.278 4.278 0 0 0-1.42-1.13c-.57-.288-1.248-.43-2.034-.43zm24.67 15.77a3.346 3.346 0 0 1-.29-.872 9.518 9.518 0 0 1-.158-1.087c-.31.31-.656.604-1.037.88-.382.278-.803.52-1.262.73-.46.212-.95.378-1.47.5a7.27 7.27 0 0 1-1.66.182c-.95 0-1.812-.138-2.58-.415-.77-.277-1.423-.65-1.96-1.12a4.886 4.886 0 0 1-1.245-1.677 5.03 5.03 0 0 1-.44-2.1c0-.985.196-1.85.59-2.59.392-.742.948-1.36 1.668-1.85.72-.494 1.585-.862 2.598-1.105 1.012-.244 2.144-.366 3.395-.366h3.354v-1.412c0-.542-.1-1.03-.3-1.46-.198-.432-.48-.8-.845-1.105a3.89 3.89 0 0 0-1.338-.705 5.858 5.858 0 0 0-1.768-.25c-.608 0-1.154.078-1.635.233-.482.156-.89.36-1.22.615a2.73 2.73 0 0 0-.773.905c-.183.35-.274.71-.274 1.088h-3.088a4.31 4.31 0 0 1 .506-1.926c.328-.63.798-1.198 1.413-1.702.614-.503 1.36-.91 2.24-1.22.88-.31 1.88-.465 2.997-.465 1.02 0 1.965.125 2.84.374.874.248 1.63.624 2.265 1.128a5.34 5.34 0 0 1 1.503 1.884c.365.752.548 1.632.548 2.64v8.35c0 .598.055 1.23.166 1.9.11.67.265 1.254.464 1.752V166h-3.204zm-5.428-2.34c.597 0 1.156-.078 1.676-.233.52-.155.994-.36 1.42-.614a5.154 5.154 0 0 0 1.104-.872 4.25 4.25 0 0 0 .73-1.02v-3.636h-2.855c-1.794 0-3.19.266-4.185.797-.996.532-1.494 1.368-1.494 2.508 0 .443.076.852.225 1.228.15.377.374.7.673.972.298.27.675.484 1.128.64.454.154.98.23 1.578.23zm13.447-6.79c0-1.34.17-2.57.507-3.695.338-1.123.82-2.09 1.445-2.897a6.708 6.708 0 0 1 2.266-1.892c.885-.454 1.876-.68 2.97-.68 1.075 0 2.013.18 2.815.54.803.358 1.497.88 2.084 1.567V140.5h3.07V166h-2.82l-.134-1.893a5.874 5.874 0 0 1-2.142 1.66c-.83.377-1.797.565-2.904.565-1.084 0-2.067-.232-2.947-.697a6.752 6.752 0 0 1-2.25-1.926c-.62-.82-1.1-1.786-1.444-2.898-.344-1.112-.515-2.31-.515-3.594v-.35zm3.072.348c0 .874.094 1.704.282 2.49.19.786.48 1.478.872 2.075.393.598.894 1.07 1.502 1.42.61.348 1.34.523 2.192.523.52 0 .99-.06 1.41-.183a4.158 4.158 0 0 0 2.06-1.336c.265-.316.498-.667.697-1.055v-8.334a5.197 5.197 0 0 0-1.61-1.8c-.676-.47-1.517-.706-2.524-.706-.863 0-1.602.177-2.216.53a4.41 4.41 0 0 0-1.51 1.437 6.592 6.592 0 0 0-.873 2.09 10.77 10.77 0 0 0-.282 2.5v.348zm17.98-6.31v-3.17l14.66 6.276v2.424l-14.66 6.29v-3.186l10.74-4.05.997-.283-.997-.316-10.74-3.985z" fill="#525252"/><path fill="#D8D8D8" d="M80 224h183v52H80z"/><path d="M106.74 250.993l-.88.282.88.3 10.16 3.917v3.254l-14.078-6.292v-2.424l14.078-6.275v3.254l-10.16 3.983zm23.823-11.305v4.35h6.84v2.373h-6.84v9.763c0 .697.09 1.273.266 1.726.176.453.42.816.73 1.087.31.27.666.462 1.07.573.404.11.833.166 1.287.166.332 0 .675-.02 1.03-.06.353-.037.7-.084 1.037-.14a22.9 22.9 0 0 0 .946-.174c.293-.06.534-.113.722-.158l.432 2.175c-.255.154-.564.29-.93.406a10.47 10.47 0 0 1-1.195.3 14.09 14.09 0 0 1-1.37.19c-.482.044-.96.066-1.437.066-.797 0-1.54-.113-2.233-.34a4.628 4.628 0 0 1-1.8-1.08c-.51-.492-.91-1.128-1.204-1.91-.294-.78-.44-1.722-.44-2.83v-9.76h-4.715v-2.375h4.716v-4.35h3.087zm13.614 4.35h9.18v15.306h5.86V262h-15.04v-2.656h6.11V246.71h-6.11v-2.673zm5.71-4.716c0-.51.153-.938.457-1.286.305-.35.767-.523 1.386-.523.61 0 1.07.174 1.378.523.31.348.465.777.465 1.286 0 .498-.155.913-.465 1.245-.31.332-.77.498-1.378.498-.62 0-1.08-.166-1.386-.498-.304-.332-.456-.747-.456-1.245zm21.483.365v4.35h6.84v2.374h-6.84v9.763c0 .697.09 1.273.266 1.726.177.453.42.816.73 1.087.31.27.667.462 1.07.573.405.11.834.166 1.288.166.332 0 .675-.02 1.03-.06.353-.037.7-.084 1.037-.14a22.9 22.9 0 0 0 .947-.174c.293-.06.534-.113.722-.158l.43 2.175c-.254.154-.564.29-.93.406a10.47 10.47 0 0 1-1.194.3 14.09 14.09 0 0 1-1.37.19c-.48.044-.96.066-1.436.066-.797 0-1.54-.113-2.233-.34a4.628 4.628 0 0 1-1.8-1.08c-.51-.492-.912-1.128-1.205-1.91-.293-.78-.44-1.722-.44-2.83v-9.76h-4.715v-2.375h4.715v-4.35h3.088zm13.613-3.187h9.18v22.844h5.86V262h-15.04v-2.656h6.11v-20.17h-6.11V236.5zm27.858 25.832c-1.26 0-2.42-.216-3.477-.647a7.892 7.892 0 0 1-2.715-1.81 8.278 8.278 0 0 1-1.76-2.756c-.42-1.063-.63-2.22-.63-3.47v-.698c0-1.45.232-2.747.697-3.893.465-1.146 1.082-2.115 1.85-2.906a8.076 8.076 0 0 1 2.624-1.818c.98-.42 1.983-.63 3.012-.63 1.295 0 2.427.223 3.395.67a6.663 6.663 0 0 1 2.416 1.86c.642.792 1.12 1.725 1.436 2.798.314 1.074.472 2.236.472 3.487v1.378H207.33c.032.82.19 1.59.472 2.308.282.72.67 1.348 1.162 1.884a5.37 5.37 0 0 0 1.768 1.27c.687.31 1.445.465 2.275.465 1.096 0 2.07-.22 2.922-.664a6.338 6.338 0 0 0 2.124-1.76l1.876 1.462c-.3.454-.673.888-1.12 1.304a7.736 7.736 0 0 1-1.553 1.104c-.587.32-1.25.578-1.992.772-.742.193-1.55.29-2.424.29zm-.398-16.103c-.62 0-1.206.112-1.76.34a4.59 4.59 0 0 0-1.494.995 5.68 5.68 0 0 0-1.12 1.61c-.304.637-.518 1.37-.64 2.2h9.663v-.232a6.858 6.858 0 0 0-.34-1.777 4.95 4.95 0 0 0-.854-1.577 4.278 4.278 0 0 0-1.42-1.13c-.57-.288-1.248-.43-2.034-.43zm12.933.68v-3.172l14.66 6.276v2.423l-14.66 6.292v-3.188l10.74-4.05.997-.283-.996-.316-10.74-3.985z" fill="#525252"/><g transform="translate(349 320)"><ellipse fill="#D8D8D8" cx="59.5" cy="30" rx="59.5" ry="30"/><path d="M44.96 26.71c.642-.94 1.433-1.674 2.374-2.2.94-.525 1.998-.794 3.17-.805.942 0 1.797.136 2.566.407.77.27 1.425.694 1.967 1.27.542.575.96 1.303 1.254 2.183.294.88.44 1.923.44 3.13V42h-3.07V30.66c0-1.47-.352-2.567-1.055-3.286-.703-.72-1.707-1.074-3.013-1.062-.985 0-1.88.24-2.68.722a5.772 5.772 0 0 0-1.952 1.917V42h-3.07V16.5h3.07v10.21zm17.813-2.673h9.18v15.307h5.86V42h-15.04v-2.656h6.11V26.71h-6.11v-2.673zm5.71-4.715c0-.51.154-.938.458-1.286.305-.35.767-.523 1.387-.523.61 0 1.068.174 1.378.523.31.348.465.777.465 1.286 0 .498-.155.913-.465 1.245-.31.332-.77.498-1.378.498-.62 0-1.082-.166-1.386-.498-.303-.332-.456-.747-.456-1.245z" fill="#525252"/></g><g transform="translate(71 320)"><ellipse fill="#D8D8D8" cx="102.5" cy="30" rx="102.5" ry="30"/><path d="M45.692 42a3.346 3.346 0 0 1-.29-.872 9.518 9.518 0 0 1-.158-1.087c-.31.31-.656.604-1.037.88-.382.278-.803.52-1.262.73-.46.212-.95.378-1.47.5a7.27 7.27 0 0 1-1.66.182c-.95 0-1.812-.138-2.58-.415-.77-.277-1.423-.65-1.96-1.12a4.886 4.886 0 0 1-1.245-1.677 5.03 5.03 0 0 1-.44-2.1c0-.985.196-1.85.59-2.59.392-.742.948-1.36 1.668-1.85.72-.494 1.585-.862 2.598-1.105 1.013-.244 2.144-.366 3.395-.366h3.354v-1.412c0-.542-.1-1.03-.298-1.46-.2-.432-.482-.8-.847-1.105a3.89 3.89 0 0 0-1.338-.705 5.858 5.858 0 0 0-1.768-.25c-.608 0-1.153.078-1.635.233-.482.156-.89.36-1.22.615a2.73 2.73 0 0 0-.773.905c-.183.35-.274.71-.274 1.088h-3.088a4.31 4.31 0 0 1 .506-1.926c.328-.63.798-1.198 1.413-1.702.614-.503 1.36-.91 2.24-1.22.88-.31 1.88-.465 2.997-.465 1.02 0 1.965.125 2.84.374.874.248 1.63.624 2.265 1.128a5.34 5.34 0 0 1 1.503 1.884c.365.752.548 1.632.548 2.64v8.35c0 .598.055 1.23.166 1.9.11.67.265 1.254.464 1.752V42h-3.204zm-5.428-2.34c.597 0 1.156-.078 1.676-.233.52-.155.994-.36 1.42-.614a5.154 5.154 0 0 0 1.104-.872 4.25 4.25 0 0 0 .73-1.02v-3.636H42.34c-1.794 0-3.19.266-4.185.797-.996.532-1.494 1.368-1.494 2.508 0 .443.076.852.225 1.228.15.377.374.7.673.972.298.27.675.484 1.13.64.452.154.978.23 1.576.23zm16.75-4.168l.366 2.573.448-2.573L60.7 24.037h1.976l2.855 11.455.483 2.822.448-2.822 1.993-11.455h2.723L67.356 42h-2.422l-2.806-11.007-.465-2.79-.448 2.79L58.442 42H56.02L52.2 24.037h2.723l2.092 11.455zm25.617 6.84c-1.26 0-2.42-.216-3.477-.647a7.892 7.892 0 0 1-2.715-1.81 8.278 8.278 0 0 1-1.76-2.756c-.42-1.063-.63-2.22-.63-3.47v-.698c0-1.45.232-2.747.697-3.893.465-1.146 1.082-2.115 1.85-2.906a8.076 8.076 0 0 1 2.624-1.818c.98-.42 1.983-.63 3.012-.63 1.295 0 2.427.223 3.395.67a6.663 6.663 0 0 1 2.416 1.86c.642.792 1.12 1.725 1.436 2.798.314 1.074.472 2.236.472 3.487V33.9H77.12c.032.82.19 1.59.472 2.308.283.72.67 1.348 1.162 1.884a5.37 5.37 0 0 0 1.768 1.27c.687.31 1.445.465 2.275.465 1.096 0 2.07-.22 2.922-.664a6.338 6.338 0 0 0 2.124-1.76l1.876 1.462c-.3.454-.673.888-1.12 1.304a7.736 7.736 0 0 1-1.553 1.104c-.587.32-1.25.578-1.992.772-.742.193-1.55.29-2.424.29zm-.398-16.103c-.62 0-1.206.112-1.76.34a4.59 4.59 0 0 0-1.493.995 5.68 5.68 0 0 0-1.122 1.61c-.304.637-.518 1.37-.64 2.2h9.663v-.232a6.858 6.858 0 0 0-.34-1.777 4.95 4.95 0 0 0-.854-1.577 4.278 4.278 0 0 0-1.42-1.13c-.57-.288-1.248-.43-2.034-.43zm24.803 11.005c0-.365-.072-.694-.216-.987-.145-.294-.388-.562-.73-.806-.344-.243-.798-.467-1.362-.672-.565-.205-1.268-.39-2.11-.556a21.254 21.254 0 0 1-2.813-.764c-.847-.3-1.57-.656-2.175-1.07-.603-.416-1.07-.903-1.402-1.462-.332-.558-.5-1.21-.5-1.95 0-.73.173-1.414.516-2.05a5.223 5.223 0 0 1 1.444-1.67c.62-.475 1.36-.85 2.217-1.128.858-.277 1.8-.415 2.83-.415 1.107 0 2.103.144 2.99.432.884.287 1.637.686 2.256 1.195a5.402 5.402 0 0 1 1.437 1.785c.338.68.507 1.414.507 2.2h-3.07c0-.388-.1-.767-.3-1.138-.2-.372-.476-.7-.83-.99a4.26 4.26 0 0 0-1.287-.696 5.108 5.108 0 0 0-1.702-.265c-.653 0-1.225.07-1.718.214-.492.144-.902.338-1.228.58a2.48 2.48 0 0 0-.74.848c-.166.32-.25.653-.25.996 0 .354.067.67.2.946.133.277.362.526.69.748.325.22.763.42 1.31.597.548.176 1.243.348 2.084.514 1.107.232 2.097.5 2.972.805.874.303 1.61.67 2.208 1.095.597.426 1.054.92 1.37 1.486.315.565.472 1.218.472 1.96 0 .796-.18 1.52-.54 2.174a5.094 5.094 0 0 1-1.502 1.677c-.64.466-1.41.826-2.307 1.08-.897.255-1.876.382-2.94.382-1.216 0-2.3-.163-3.253-.49-.95-.326-1.757-.758-2.415-1.295a5.578 5.578 0 0 1-1.512-1.867 4.94 4.94 0 0 1-.523-2.208h3.072c.044.63.213 1.162.506 1.593.293.432.658.78 1.096 1.046.436.267.92.455 1.45.566.532.11 1.058.166 1.578.166 1.295 0 2.32-.238 3.072-.714.752-.476 1.134-1.107 1.145-1.893zm7.604-4.382c0-1.295.187-2.5.563-3.61.376-1.114.916-2.08 1.62-2.898a7.538 7.538 0 0 1 2.564-1.934c1.007-.47 2.14-.705 3.403-.705 1.273 0 2.416.235 3.428.706a7.517 7.517 0 0 1 2.574 1.935c.702.82 1.242 1.784 1.618 2.897.376 1.112.565 2.316.565 3.61v.366c0 1.295-.19 2.496-.565 3.602-.376 1.107-.916 2.07-1.618 2.89a7.446 7.446 0 0 1-2.565 1.925c-1.008.465-2.142.697-3.404.697-1.273 0-2.415-.232-3.428-.697a7.426 7.426 0 0 1-2.573-1.926c-.703-.82-1.243-1.783-1.62-2.89-.375-1.106-.563-2.307-.563-3.602v-.365zm3.07.365c0 .885.105 1.73.315 2.532a6.55 6.55 0 0 0 .955 2.116c.426.61.96 1.09 1.602 1.445.642.355 1.39.532 2.24.532.842 0 1.58-.177 2.218-.53a4.737 4.737 0 0 0 1.593-1.446 6.55 6.55 0 0 0 .955-2.116 9.95 9.95 0 0 0 .315-2.532v-.365c0-.875-.108-1.713-.323-2.516a6.682 6.682 0 0 0-.963-2.116 4.82 4.82 0 0 0-1.594-1.452c-.636-.36-1.38-.54-2.233-.54-.852 0-1.594.18-2.225.54-.63.36-1.16.844-1.585 1.453a6.55 6.55 0 0 0-.955 2.117 9.882 9.882 0 0 0-.315 2.516v.365zm19.606-9.18l.083 1.692a4.046 4.046 0 0 1 1.435-1.477c.593-.354 1.31-.537 2.15-.548 1.65 0 2.75.642 3.304 1.926a4.1 4.1 0 0 1 1.402-1.385c.58-.35 1.287-.53 2.117-.54 1.316 0 2.328.404 3.037 1.212.708.808 1.062 2.03 1.062 3.67V42h-2.923V28.553c0-1.505-.69-2.253-2.075-2.24-.365 0-.68.048-.946.148-.266.1-.487.236-.664.408-.177.17-.316.37-.415.597-.1.227-.166.462-.2.706V42h-2.92V28.536c0-.72-.162-1.273-.483-1.66-.32-.387-.83-.576-1.527-.564-.642 0-1.14.127-1.494.38a2.223 2.223 0 0 0-.78 1.014V42h-2.922V24.037h2.756zm26.928 18.294c-1.262 0-2.42-.216-3.478-.647a7.892 7.892 0 0 1-2.714-1.81 8.278 8.278 0 0 1-1.76-2.756c-.42-1.063-.63-2.22-.63-3.47v-.698c0-1.45.232-2.747.696-3.893.465-1.146 1.082-2.115 1.85-2.906a8.076 8.076 0 0 1 2.625-1.818c.98-.42 1.983-.63 3.013-.63 1.295 0 2.426.223 3.395.67a6.663 6.663 0 0 1 2.416 1.86c.642.792 1.12 1.725 1.436 2.798.316 1.074.473 2.236.473 3.487V33.9h-12.833c.034.82.19 1.59.474 2.308.282.72.67 1.348 1.162 1.884a5.37 5.37 0 0 0 1.768 1.27c.686.31 1.444.465 2.274.465 1.096 0 2.07-.22 2.922-.664a6.338 6.338 0 0 0 2.125-1.76l1.876 1.462c-.3.454-.672.888-1.12 1.304a7.736 7.736 0 0 1-1.553 1.104c-.586.32-1.25.578-1.992.772-.742.193-1.55.29-2.424.29zm-.398-16.103c-.62 0-1.207.112-1.76.34a4.59 4.59 0 0 0-1.494.995 5.68 5.68 0 0 0-1.12 1.61c-.305.637-.518 1.37-.64 2.2h9.662v-.232a6.858 6.858 0 0 0-.34-1.777 4.95 4.95 0 0 0-.855-1.577 4.278 4.278 0 0 0-1.42-1.13c-.57-.288-1.248-.43-2.034-.43z" fill="#525252"/></g><path d="M250 122l29.5-32.5M296 89l29.5 32.5M172 217.5v-31M412 217.5v-31M412 312.5v-31M172 312.5v-31" stroke="#979797" stroke-width="2" stroke-linecap="square"/></g></svg>